<?xml version="1.0" encoding="UTF-8"?>
<svg id="background" xmlns="http://www.w3.org/2000/svg" viewBox="0 0 7179.59 4038.52">
  <defs>
    <style>
      .cls-1 {
        fill: #fff;
      }
    </style>
  </defs>
  <path class="cls-1" d="M1746.67,1964.79c1.27-.21,2.9-.4,4.55-.5-3.65.96-6.85,2.73-9.9,5.43-1.42,1.47-2.97,3.86-3.74,5.82-.11-2.14-.53-4.35-1.04-5.71-.53-1.39-1.97-2.85-3.76-3.56,2.55-.27,5.61-1.05,7.67-1.39,3.04-.5,3.18.4,6.22-.09ZM1848.91,1365.1c1.03.13,2.25.27,4.18.47,3.99.41,4.99.38,7.49.58-2.49-.32-3.47-.54-7.47-.83-1.93-.14-3.16-.19-4.2-.22ZM1697.48,2182.11c1.15-.04,2.11.37,2.71,1.11.23-1.32.47-2.63.7-3.94-.9,1.23-2.12,2.28-3.41,2.84ZM1605.46,1375.58c-.12,3.81.01,5.19.07,7.26.29-2.18.69-3.45.8-7.35.22-7.07.26-12.28.29-18.67-.12,1.87-.24,3.29-.36,6.88-.19,5.95-.62,5.94-.81,11.89ZM1676.75,2032.5c-1.26,2.44-3.12,6.26-3.12,8.68,0,2.22-.04,5.42-.47,7.5.55-2.08,1.28-5.28,1.28-7.5,0-2.43,1.15-6.19,2.41-8.63.02-.05,0-.1-.02-.15-.02.03-.05.06-.07.1ZM1869.05,1361.92c-.16,2.62-2.41,4.66-5,4.59,2.55.44,4.38,2.76,4.23,5.38-.34,5.69-.63,5.67-.97,11.35-.09,1.55-.11,2.68-.08,3.62.35-4.22.82-4.79,1.14-10.07.36-5.94.41-5.93.77-11.87.15-2.44.11-3.88.04-5.15-.03.61-.07,1.3-.12,2.15ZM1606.81,1347.45c.07-1.83.13-3.22.23-6.73.11-6.82.17-11.93.3-18.02-.28,5.68-.56,10.65-.87,17.16-.13,4.01.18,5.33.33,7.59ZM1412.55,1568.02c-1.86-5.68-1.56-5.78-3.42-11.46-.26-.79-.5-1.46-.72-2.06.36,1.07.72,2.14,1.09,3.24,1.92,5.87,1.2,6.11,3.13,11.98,1.92,5.87,2.29,5.75,4.22,11.62.76,2.32,1.25,3.71,1.68,4.91-.5-1.99-.74-3.37-1.93-6.99-1.86-5.68-2.19-5.57-4.05-11.25ZM1391.31,1519.31c-.95.36-1.26.74-1.67,1.11.56-.21,1.16-.44,1.83-.7,1.75-.66,3.7-.33,5.05.76-1.37-1.29-3.42-1.86-5.21-1.18ZM1996.49,1337.78c.05.14.16.1.2.24.64,1.88.89,4.75.9,7.24.11-1.36.22-2.86.31-5.53.19-6.13.53-6.12.72-12.25.19-6.13-.05-6.14.15-12.27.19-6.13.63-6.12.83-12.25.19-6.13-.32-6.15-.12-12.27.46-9.15.86-15.35,1.21-24.5.11-3.48-.13-4.99-.32-6.77,0,.31-.02.62-.03.97-.22,9.54-.53,16.02-1.03,25.56-.2,6.4.31,6.41.11,12.81-.2,6.4-.68,6.38-.89,12.78-.09,2.75-1.06,5.91-2.14,7.34-1.08,1.43-1.8,5.1-1.85,7.85-.01.72.25.72.23,1.44-.05,2.75.84,7.01,1.73,9.61ZM1646.04,2193.77c-3.83.91-5.28,1.51-7.23,2.19.44-.11.9-.22,1.43-.35q5.63-1.33,11.25-2.68c4.94-1.15,9.55-2.27,14.11-3.41-1.85.2-3.46.32-6.99,1.16-6.3,1.49-6.27,1.6-12.57,3.1ZM1635.12,2114.13c-.26,1.7-.59,3.33-.98,4.92.53-1.75,1-3.52,1.11-4.9.19-2.22.15-3.17.16-4.31-.09,1.44-.16,2.89-.29,4.3ZM1659.04,2073.43c.75-.75,1.52-1.79,2.27-2.91-.9.99-1.79,1.92-2.53,2.66-.07.07-.04.17,0,.28.09.02.19.05.25-.02ZM1640.06,2096.35c-.28.28-.58.6-1.1,1.2-1.04,1.31-1.75,2.73-2.26,4.21.61-1.6,1.41-3.13,2.31-4.17.33-.39.69-.81,1.05-1.24ZM1644.94,2086.99c0,1.01-.36,2.28-.9,3.55.56-1.19.93-2.39.95-3.55,0-1.76.93-3.97,2.44-5.52-2.43.89-5.62,1.44-7.78,1.71-.2.03-.34.1-.45.19.15-.01.32-.03.46-.04,2.73-.34,5.27,1.38,5.27,3.67ZM2024.51,1723.75c1.52-2.9,2.18-3.36,4.1-7.36,1.15-2.41,1.96-6.66,2.57-9.36-.65,2.68-2.07,6.64-3.18,9.08-1.83,4.05-2.17,4.73-3.5,7.64ZM7179.59,0v4038.52H0V0h7179.59ZM2062.43,1403.01c-7.8,4.22-11.67,10.65-11.52,19.67-.18,8.4,2.6,14,8.94,18.28-.23.1-.46.2-.65.06-2.18-1.67-4.89-3.63-6.29-4-1.4-.37-4.63.21-7.05,1.51-1.81.97-1.79,1.01-3.6,1.98-2.42,1.3-4.13,3.94-4.13,5.71s.91,5.17,2.28,7.55c2.73,4.77,2.85,4.7,5.58,9.47,1.37,2.39,3.41,6.41,4.91,8.72,3.71,5.69,4.21,5.37,7.92,11.06,1.5,2.3,3.46,4.02,4.74,4.02,1.56-.02,4.76,3.64,6.21,5.84,1.72,2.14,5.68,3.31,8.43,3.16,6.22-.36,6.22-.42,12.44-.78s6.22-.36,12.44-.72c2.75-.16,4.73-1.61,4.42-3.56-.31-1.95-1.81-4.81-3.03-6.58-1.22-1.77-3.18-5.3-4.58-7.66-2.11-3.19-4.43-7.61-7.14-10.37-1.65-1.61-1.81-1.44-3.46-3.05-1.97-1.92-5.56-3.89-7.95-4.01-2.38-.12-5.88-1.52-7.66-3.62-3.18-3.74-2.87-4.01-6.05-7.75-1.32-1.55-3.42-3.75-5.31-5.46,0,0,.01,0,.02,0,7.13,4.39,15.72,4.37,22.83-.06,8.25-4.45,11.76-10.22,11.66-19.75-.15-8.2-4.62-15.85-11.47-20.07-6.72-4.03-16.34-3.87-22.94.39ZM2010.45,921.47c-.14,5.95-.57,5.94-.71,11.89-.14,5.95.71,5.97.57,11.92-.14,5.95-.73,5.93-.88,11.88-.14,5.95.25,5.96.1,11.91-.14,5.95-.25,5.94-.4,11.89-.14,5.94-.37,5.94-.52,11.88-.14,5.95-.53,5.94-.67,11.88-.14,5.95,0,5.95-.14,11.9-.14,5.95-.25,5.94-.39,11.89-.14,5.95.57,5.96.42,11.91-.14,5.95.06,5.95-.09,11.9-.14,5.94-1.13,5.92-1.28,11.87s.42,5.96.28,11.9c-.14,5.95.23,5.95.08,11.9-.14,5.94-.77,5.93-.91,11.87-.14,5.94.28,5.95.13,11.9-.14,5.94-.61,5.93-.76,11.88-.07,2.75,2.36,5.31,5.11,5.31,6.05,0,6.04-.58,12.09-.68,6.05-.1,6.06-.08,12.1-.08s6.04.81,12.09.81,6.05-.39,12.09-.39c2.75,0,4.77-2.22,4.85-4.97.18-5.95.32-5.95.5-11.9s.53-5.94.7-11.89c.18-5.95-.39-5.96-.22-11.91.18-5.95.78-5.93.96-11.88.18-5.95-.07-5.95.1-11.9.18-5.94.32-5.94.5-11.88.18-5.95-.32-5.96-.14-11.91.18-5.95.07-5.95.25-11.9.18-5.95.65-5.93.83-11.88.18-5.95.53-5.94.7-11.88.18-5.95-.22-5.96-.05-11.9.18-5.94.08-5.95.26-11.89s.8-5.93.98-11.87c.18-5.95-.04-5.95.14-11.9.18-5.94-.24-5.96-.07-11.9.18-5.94.48-5.93.66-11.88.18-5.94.13-5.95.3-11.89.08-2.75-2.2-4.73-4.95-4.73-9.26-.13-15.53-.27-24.77-.24-6.19,0-6.19.45-12.38.45s-6.19-.04-12.38-.04c-2.75,0-5.04,1.81-5.1,4.56ZM1919.77,945.38c-.08,2.75,2.03,5.18,4.78,5.16,5.73-.05,5.72-.73,11.45-.78,5.73-.05,5.73.28,11.46.23,4.08-.04,5.26.23,7.67.37-2.27.52-4.05,2.65-4.12,5.04-.16,6.01-.29,6-.45,12.01-.16,6.01.1,6.01-.06,12.02-.16,6.01-.74,5.99-.9,12-.16,6.01.64,6.03.48,12.04-.16,6.01-.8,5.99-.96,12-.16,6.01-.26,6-.42,12.01-.16,6.01.46,6.02.3,12.03s-.68,5.99-.84,12q-.16,6.01-.33,12.01c-.16,6.01.23,6.02.07,12.03-.16,6.01-.68,6-.84,12.01-.16,6.01.35,6.02.19,12.03-.16,6.01.29,6.02.13,12.04-.16,6.01-.38,6.01-.54,12.02-.07,2.75,1.86,5.45,4.61,5.45,11.06.01,18.56-.56,29.6-.79,2.75,0,5.04-1.92,5.12-4.67.19-6.01.34-6,.53-12.01.1-8.97.12-15.07.37-24.04.47-12.65,1.1-23.39,1.73-36.03.19-6.01-.57-6.03-.39-12.04s.76-5.99.95-12c.19-6.01.35-6,.53-12.01.19-6.01-.47-6.03-.28-12.04.19-6.01.8-5.99.99-12,.19-6.01-.44-6.03-.25-12.04.19-6.01,1.01-5.99,1.2-12,.19-6.01-.7-6.04-.51-12.05.09-2.75-1.65-4.9-4.4-4.9-7.59.18-12.73.33-20.31.27-3.1,0-4.31-.19-5.93-.34,4.27-.11,4.78-.5,9.96-.55,5.73-.05,5.72-.41,11.45-.47,5.73-.05,5.73.1,11.46.04s5.73-.26,11.46-.31c2.75-.02,4.6-1.81,4.6-4.56.23-9.56.43-16.05.46-25.62-.05-9.57.05-16.06.24-25.63,0-6.41-.56-6.41-.56-12.82s.71-6.41.71-12.82c0-2.75-2.71-4.76-5.46-4.86-6.36-.24-6.35-.38-12.71-.62-6.36-.24-6.34-.7-12.7-.94-6.36-.24-6.36-.31-12.71-.55-6.36-.24-6.38.19-12.74-.05s-6.35-.69-12.71-.93c-2.75-.1-6.42-.49-8.15-1.31-1.73-.82-4.83-1.55-6.88-1.55s-3.55,2.34-3.63,5.09c-.18,5.96,0,5.96-.19,11.92-.18,5.96-.61,5.94-.8,11.9-.18,5.96.13,5.97-.05,11.93-.18,5.96-.27,5.96-.46,11.92-.18,5.96.01,5.96-.17,11.92-.18,5.96-1.08,5.94-1.26,11.9s.37,5.98.19,11.94ZM1813.71,965.3c5.58,2.63,5.87,2.03,11.45,4.66s5.51,2.79,11.09,5.42c5.58,2.63,5.47,2.87,11.05,5.5,2.49,1.17,5.59.09,6.44-2.52,1.87-5.73,1.48-5.85,3.23-11.62,1.75-5.76,1.98-5.7,3.84-11.42,1.87-5.72,1.62-5.8,3.49-11.53,2.97-8.5,4.98-14.24,7.72-22.81,1.87-5.72,1.43-5.86,3.3-11.58,1.87-5.72,2.32-5.58,4.19-11.3s2.27-5.59,4.13-11.32c1.87-5.72,1.93-5.7,3.8-11.42,1.87-5.72,1.29-5.91,3.16-11.63,1.87-5.72,1.99-5.68,3.86-11.4,2.61-8.6,4.33-14.46,7.06-23.02,1.87-5.72,2.5-5.52,4.37-11.24,1.87-5.72,1.79-5.75,3.66-11.47.85-2.61-.71-5.56-3.27-6.55-5.48-2.11-5.54-1.94-11.02-4.05s-5.4-2.3-10.88-4.41c-5.47-2.11-5.51-2.01-10.98-4.12-2.57-.99-5.57.12-6.44,2.73-1.88,5.6-1.27,5.81-3.15,11.41-1.88,5.6-2.31,5.46-4.19,11.06-1.88,5.6-1.55,5.71-3.43,11.3-1.88,5.6-2.34,5.44-4.22,11.04-1.88,5.6-1.35,5.77-3.23,11.37-1.88,5.6-2.16,5.5-4.03,11.1s-1.69,5.66-3.56,11.25c-1.88,5.6-2.19,5.49-4.07,11.09-1.88,5.6-1.64,5.68-3.52,11.27-1.88,5.6-1.99,5.56-3.87,11.16-1.88,5.6-1.66,5.67-3.53,11.27-1.88,5.6-2.58,5.36-4.46,10.95-1.88,5.6-1.69,5.66-3.56,11.25-1.88,5.6-1.6,5.69-3.48,11.29-1.88,5.6-2.03,5.54-3.9,11.14-.87,2.61.48,5.98,2.97,7.15ZM1747.62,530.93c2.54,10.12,4.24,17,6.65,27.14.65,2.67,1.09,6.56,1,8.75-.09,2.19.62,6.21,1.42,8.85,2.1,7.36,4.31,13.43,6.01,20.99,1.08,5.7,1.26,5.67,2.34,11.37,1.79,8.49,2.9,14.25,4.35,22.8,1.08,5.7.96,5.73,2.03,11.43,1.08,5.7.72,5.77,1.79,11.47,1.08,5.71,1.82,5.57,2.89,11.28s.56,5.8,1.63,11.51c.51,2.7,3.14,4.36,5.81,3.7,3.12-.78,3.15-.67,6.27-1.45,2.67-.67,4.85-3.62,4.31-6.32q-1.19-5.98-2.39-11.96c-1.19-5.98-1.51-5.92-2.7-11.9-1.19-5.98-1.81-5.86-3-11.85-1.19-5.98-1.1-6-2.3-11.98-1.19-5.98-.39-6.14-1.58-12.13-1.19-5.98-1.49-5.92-2.69-11.91-1.19-5.98-1.38-5.94-2.57-11.93-1.86-8.93-3.2-14.95-5.05-23.88-1.19-5.98-.59-6.1-1.78-12.09-1.19-5.99-1.1-6.01-2.29-12-1.19-5.99-1.75-5.88-2.94-11.87-.54-2.7-2.01-5.63-3.65-6.18s-5.18.02-7.77.93q-.93.33-1.86.65c-2.59.92-4.56,3.91-3.91,6.58ZM1722.14,873.47c3.43,1.98,7.39,3.59,11.64,3.59,12.48-.38,23.08-11.15,22.83-23.75,0-4.25-.29-8.44-2.27-11.87-4.24-6.79-12.39-11.51-20.56-11.63-4.25,0-8.27,1.24-11.7,3.23-3.54,2.05-6.19,5.22-8.24,8.76-6.83,10.87-2.9,25.51,8.3,31.67ZM1675.04,1101.27c-.27,2.74,1.84,5.05,4.58,5.33,5.44.56,5.46.32,10.9.88s5.44.57,10.87,1.13c5.43.56,5.35,1.32,10.79,1.88,2.74.28,6.57-1.09,8.28-2.81,1.71-1.72,2.76-5.55,3.01-8.29.53-5.97.69-5.96,1.22-11.93s.71-5.95,1.24-11.92c.53-5.97.32-5.98.85-11.95,1.01-8.89,1.74-14.91,2.53-23.83.53-5.96.08-6,.61-11.97.53-5.97,1.31-5.9,1.84-11.86.53-5.97.47-5.97,1-11.94.53-5.97.13-6,.66-11.97.53-5.97.96-5.93,1.49-11.89.53-5.97-.19-6.03.35-11.99.53-5.96.85-5.94,1.38-11.9.53-5.96.9-5.93,1.43-11.9.24-2.74-2.22-5.02-4.96-5.35-6.11-.72-6.09-.89-12.2-1.61-6.11-.72-6.14-.48-12.25-1.2-6.11-.72-6.04-1.33-12.14-2.05-2.73-.32-4.74,1.97-5.01,4.71-.57,5.81-1.34,5.71-2.06,11.51-.73,5.79.12,5.89-.45,11.69-.57,5.8-.83,5.78-1.39,11.58-1.03,8.65-1.76,14.5-2.6,23.18-.57,5.8,0,5.86-.57,11.66-.57,5.8-.83,5.78-1.4,11.58s-.22,5.84-.79,11.64c-.57,5.8-.93,5.77-1.5,11.57-.97,12.25-2.07,22.6-3,34.85-.57,5.8-.48,5.81-1.05,11.61-.57,5.8-1.08,5.75-1.65,11.55ZM1672.12,1210.41c-.16,6.02-.6,6.01-.76,12.03-.16,6.02-.05,6.02-.21,12.04-.16,6.02.41,6.04.25,12.06-.16,6.02-.71,6-.88,12.02-.16,6.02.43,6.04.27,12.06-.16,6.02-.76,6.01-.92,12.03-.16,6.02.12,6.03-.04,12.05-.16,6.02-.58,6.01-.74,12.04-.16,6.02-.08,6.03-.24,12.05-.07,2.75,2.31,5.88,4.88,6.85,4.31,1.63,4.19,1.95,8.5,3.57,2.57.97,6.98.66,9.68.13,4.42-.87,4.52-.35,8.93-1.22,4.42-.87,4.3-1.46,8.71-2.33,2.7-.53,5.15-2.89,5.21-5.63.15-6.11-.16-6.12-.01-12.23.15-6.11.35-6.1.5-12.21.15-6.11-.28-6.12-.13-12.23.15-6.11,1.06-6.09,1.21-12.2.11-9.13.25-15.32.59-24.44.15-6.11.02-6.11.17-12.22.15-6.11-.48-6.13-.33-12.24.15-6.11.88-6.09,1.02-12.2.15-6.11-.48-6.13-.34-12.24.15-6.11.44-6.11.59-12.22.15-6.11.52-6.1.67-12.21.15-6.11-.25-6.12-.1-12.24.15-6.11-.42-6.13-.27-12.24.07-2.75-.95-6.62-2.9-8.57-1.04-1.04-1.02-1.06-2.07-2.11-1.94-1.94-5.83-3.88-8.58-4.02-6.41-.3-6.42.07-12.83-.09-6.42-.15-6.42-.06-12.83-.37-2.75-.13-4.73,1.56-4.81,4.31-.16,6.02-.23,6.02-.39,12.04-.16,6.02-.46,6.01-.62,12.03-.16,6.02-.42,6.01-.58,12.03-.16,6.02.19,6.03.03,12.05-.16,6.02-.46,6.01-.62,12.03-.16,6.02.11,6.03-.05,12.05ZM1659.69,1185.2c-.85,1.1-1.1.91-1.95,2.01-1.69,2.17-4.94,3.47-7.64,2.97-5.52-1.09-11.36-1.45-16.5-4-5.29-2.91-5.23-3.03-10.52-5.94-2.41-1.33-5.98-1.05-7.61,1.15-3.57,4.81-3.29,5.02-6.86,9.83s-3.59,4.79-7.16,9.61c-3.56,4.81-3.38,4.95-6.95,9.76-3.57,4.81-3.61,4.78-7.17,9.6-1.64,2.21-1.72,5.87.15,7.89,9.31,9.38,16.97,17.59,25.8,27.43,6.4,6.85,10.72,11.51,17.06,18.4,4.26,4.61,4.01,4.84,8.26,9.44,4.26,4.61,4.72,4.17,8.98,8.78,4.26,4.61,4.06,4.79,8.32,9.39,4.26,4.61,3.9,4.94,8.15,9.55,1.87,2.02,4.02,1.15,4.1-1.6.13-8.95-.03-14.99.29-23.93.17-5.98.26-5.97.43-11.95.17-5.98.58-5.97.75-11.94.19-12.59.13-23.3.65-35.86.17-5.98-.24-5.99-.06-11.96.17-5.97.45-5.97.62-11.94.17-5.98.19-5.98.37-11.95.08-2.75-1.5-6.16-3.89-7.16-2.39-1-5.92.26-7.61,2.43ZM1665.62,1368.19c.19-6.09.28-6.09.46-12.18.2-12.87.68-23.71,1.56-36.54.08-2.75-2.17-4.82-4.92-4.9-6.26-.2-6.24-.87-12.5-1.07-6.26-.2-6.28.54-12.54.34-6.26-.2-6.25-.5-12.51-.7-6.26-.2-6.25-.48-12.51-.68-2.37-.07-4.44,1.73-5.02,3.98,0-.12.01-.23.02-.35.19-5.95-.37-5.97-.18-11.92.19-5.95.46-5.94.65-11.9.19-5.95.81-5.93,1-11.88.19-5.96-.65-5.98-.46-11.94.19-5.96,1.02-5.93,1.21-11.89.09-2.75-2.52-5.2-5.27-5.33-6-.28-6.01-.17-12.01-.45-8.97-.26-15.06-.37-24.03-.78-6.01-.28-5.98-.93-11.98-1.21-2.75-.13-4.95,2.34-5.04,5.09-.32,8.72-.6,14.65-.95,23.37-.18,5.84-.33,5.84-.51,11.68-.18,5.84.27,5.86.09,11.7-.18,5.85-.3,5.84-.48,11.69-.18,5.85-.68,5.83-.87,11.68-.18,5.85.54,5.87.36,11.71-.18,5.85-.14,5.85-.33,11.69s-.06,5.85-.24,11.7c-.18,5.84-.45,5.84-.63,11.68-.18,5.85-.39,5.84-.57,11.68-.18,5.85.17,5.86-.02,11.71q-.18,5.85-.36,11.69c-.18,5.85-.8,5.83-.98,11.68s-.33,5.84-.51,11.69c-.09,2.75,2.44,5.31,5.18,5.58,5.99.6,5.96.88,11.96,1.48,5.99.6,6.01.37,12,.98,6,.6,6.03.26,12.03.81,6,.55,5.98.74,11.98,1.34,2.74.28,4.99-1.59,5.07-4.34.19-5.95.61-5.94.8-11.89.19-5.95-.03-5.96.16-11.91.15-4.8.05-5.73.11-9.03.2,2.58.67,3.74.55,7.97-.17,5.79-.36,5.79-.52,11.58-.17,5.8-.46,5.79-.63,11.58s-.38,5.79-.54,11.59c-.08,2.75,2.31,4.78,5.06,4.61,6.24-.39,6.24-.49,12.48-.88,6.24-.39,6.25-.21,12.49-.59,9.35-.44,15.67-.81,24.99-1.45,2.74-.17,5.09-2.65,5.17-5.39.19-6.09.12-6.09.31-12.18.19-6.09-.02-6.1.17-12.19.19-6.09.69-6.07.88-12.17.19-6.09-.15-6.1.04-12.19.19-6.09.08-6.09.27-12.18.19-6.09-.08-6.1.11-12.19ZM1580.2,1899.99c-.32,5.29-.39,5.28-.71,10.57-.17,2.75-.28,7.21.49,9.85.78,2.67.95,2.63,1.73,5.3.77,2.64,2.4,6.87,3.04,9.54.7,2.92.32,3.02,1.02,5.94.64,2.67,2.64,6.6,4.7,8.43,3.79,3.37,3.63,3.58,7.51,6.85,3.89,3.27,4.36,2.71,8.16,6.08,2.06,1.83,5.46,2.52,8.08,1.68,5.64-1.81,5.92-.93,11.56-2.73,5.64-1.81,5.48-2.32,11.12-4.12,5.64-1.81,5.56-2.05,11.21-3.86,2.62-.84,4.4-3.43,3.76-6.1-1.39-5.89-1.78-5.8-3.18-11.7-1.39-5.89-1.55-5.86-2.94-11.75s-.58-6.09-1.97-11.98c-2.09-8.79-3.63-14.75-5.82-23.52-1.39-5.9-1.88-5.78-3.27-11.68-1.98-8.82-3.28-14.83-5.32-23.65-1.78-7.55-3.34-13.87-4.95-21.56-1.33-5.72-1.6-5.66-2.93-11.38-1.33-5.72-.59-5.89-1.92-11.61-1.33-5.72-2.26-5.51-3.58-11.23-1.33-5.72-1.09-5.78-2.41-11.5-2.06-8.54-3.29-14.34-5.05-22.95-1.33-5.72-1.74-5.63-3.06-11.35-1.33-5.73-.89-5.83-2.22-11.55-1.33-5.73-1.39-5.71-2.72-11.44-.62-2.68-2.12-6.93-2.88-9.57-1.64-5.7-1.59-5.71-3.23-11.41-1.64-5.7-.99-5.88-2.63-11.58-.76-2.64-3.78-5.73-5.98-7.38-4.4-3.29-4.13-3.66-8.53-6.96-2.2-1.65-6.14-3.79-8.59-5.04-4.58-2.34-4.28-2.92-8.86-5.26-2.45-1.25-6.8-2.61-9.48-3.23-3.23-.74-3.37-.13-6.59-.87-2.68-.62-6.98-.95-9.7-.57-4.08.56-4.12.26-8.2.83-2.72.38-4.17,2.86-3.49,5.52,1.45,5.75,1.02,5.86,2.47,11.61,1.45,5.75,2.11,5.59,3.56,11.34,1.46,5.75.67,5.95,2.12,11.7,1.45,5.75,1.54,5.73,3,11.48,1.46,5.75,2.2,5.56,3.65,11.31q1.45,5.75,2.89,11.51c1.45,5.75.54,5.98,1.99,11.73,1.45,5.75,2.15,5.57,3.61,11.32,1.46,5.75,1.22,5.81,2.67,11.56,1.46,5.75,1.74,5.68,3.19,11.43,2.02,8.63,3.52,14.45,5.87,23.01,2.77,11.1,5.95,20.77,8.96,31.76.78,2.64,1.39,7.13,2.09,9.79,1.65,6.27,2.15,6.14,3.8,12.42,1.65,6.28,1.59,6.3,3.24,12.58,2.05,7.97,5.09,13.97,4.71,22.41ZM1496.95,1546.46c.29,12.31,1.13,22.74,1.94,35.02.33,5.84.68,5.82,1.01,11.65.33,5.84.74,5.81,1.07,11.65.16,2.75,2.02,4.51,4.76,4.37,6.18-.32,6.19-.14,12.38-.33,6.19-.19,6.16-.68,12.34-1,6.18-.32,6.2.23,12.38-.08,6.18-.32,6.17-.58,12.34-.89,6.18-.32,6.19,0,12.37-.31,6.17-.32,6.16-.63,12.33-.95,6.18-.32,6.19-.14,12.36-.46,6.18-.32,6.18-.26,12.35-.58,2.75-.14,4.99-2.6,4.89-5.35-.23-6.01-.44-6-.67-12.02-.23-6.01.15-6.03-.08-12.04q-.23-6.01-.45-12.02c-.23-6.01-.76-5.99-.99-12-.23-6.01-.38-6-.61-12.01-.23-6.01-.01-6.01-.24-12.02-.23-6.01.29-6.03.06-12.04-.23-6.01-.6-5.99-.83-12-.23-6.01.08-6.02-.15-12.03-.23-6.01-.38-6-.61-12.01-.23-6.01.06-6.02-.17-12.03-.23-6.01-.87-5.98-1.1-11.99-.1-2.75-2.15-4.63-4.89-4.39-6.35.55-6.36.37-12.71.93-6.35.55-6.31.97-12.66,1.53-6.34.55-6.41-.16-12.75.39-6.35.55-6.31,1-12.65,1.56-6.34.55-6.36.33-12.71.88-6.34.55-6.33.63-12.68,1.19-6.34.55-6.38.17-12.72.72-6.34.55-6.33.7-12.67,1.25-2.74.24-5,2.93-4.84,5.68.33,5.84.2,5.85.53,11.69.33,5.84.99,5.8,1.32,11.64.33,5.84.39,5.83.72,11.67.33,5.84-.03,5.86.3,11.7.33,5.84.35,5.83.68,11.67.33,5.83.74,5.81,1.07,11.65.33,5.84-.38,5.88-.05,11.71ZM1652.43,1119.37c-3.79-4.89-3.65-4.99-7.44-9.88-3.79-4.89-4.16-4.6-7.94-9.48-1.68-2.17-4.36-2.27-6.42-.45-5.21,4.62-5.45,4.34-10.65,8.96-5.21,4.62-5.29,4.52-10.49,9.14-6.8,6.02-11.26,10.91-17.55,17.3-5.08,5.27-4.76,5.58-9.84,10.85-1.91,1.98-4.89,5.34-6.65,7.45-4.28,5.15-4.74,4.76-9.02,9.91s-4.27,5.15-8.55,10.3c-5.58,7.45-9.19,13.27-14.52,20.8-1.61,2.23-3.66,6.14-4.78,8.66-1.18,2.66-1.6,2.47-2.79,5.12-1.12,2.51.18,5.38,2.54,6.81,4.39,2.65,4.37,2.69,8.75,5.34,4.39,2.66,4.3,2.81,8.69,5.47,4.39,2.66,4.08,3.16,8.47,5.82,2.35,1.42,6.55,1.3,8.78-.31,2.39-1.73,1.91-2.41,4.3-4.14,2.23-1.61,5.73-4.34,7.37-6.55q3.23-4.36,6.44-8.73c3.23-4.36,2.94-4.58,6.17-8.95,3.23-4.36,3.19-4.4,6.42-8.76,6.43-7.86,10.75-13.22,16.9-21.16,1.69-2.17,4.2-5.95,6.05-7.98,5.53-6.08,5.99-5.65,11.52-11.73,1.85-2.03,5.16-4.99,7.36-6.64,6.62-5.3,6.39-5.59,13.17-10.67,2.2-1.65,3.13-4.7,1.44-6.87-3.78-4.88-3.96-4.75-7.74-9.63ZM1607.58,814.99c-7.05,1.62-7.08,1.48-14.14,3.1-2.68.61-4.26,3.48-3.9,6.21.77,5.99.62,6.01,1.4,12.01.77,5.99.56,6.02,1.33,12.02.77,5.99.49,6.03,1.26,12.02.77,5.99,1.53,5.89,2.3,11.89,2.08,16.45,3.49,31.58,5.81,47.97q.77,5.99,1.56,11.98c.77,5.99.35,6.05,1.12,12.04.77,5.99,1.43,5.91,2.2,11.9,1.04,8.95,1.71,15.05,2.85,23.99.35,2.73,2.59,6.05,4.78,7.71.96.73.56,1.26,1.52,1.99,2.19,1.66,6.44,2.9,9.18,2.63,5.32-.54,5.24-1.34,10.56-1.88s5.32-.55,10.64-1.09c2.74-.28,5.18-2.34,4.81-5.07q-.83-6.03-1.82-12.05c-.98-6.01-1.49-5.93-2.32-11.97-.83-6.03-.36-6.09-1.19-12.12-.83-6.03-.57-6.07-1.4-12.1-.83-6.03-1.07-6-1.9-12.02-.83-6.03-.45-6.08-1.28-12.11-.83-6.03-1.52-5.93-2.35-11.96-.83-6.03-.72-6.04-1.54-12.07-.83-6.03-.25-6.11-1.07-12.14-.83-6.03-1.58-5.93-2.4-11.96-.83-6.03-.53-6.07-1.36-12.1-.83-6.03-1.07-5.99-1.89-12.02-.83-6.03-.12-6.12-.95-12.15-.83-6.03-1.81-5.89-2.64-11.92-.37-2.72-2.45-4.81-5.13-4.2-7.05,1.62-6.99,1.87-14.05,3.49ZM1493.95,704.14c.34,6.06-.28,6.1.06,12.16s.59,6.05.93,12.11c.16,2.75,1.4,7.01,2.66,9.46,2.26,4.39,2.76,4.13,5.02,8.52,1.26,2.44,3.61,6.15,6.03,7.46,3.75,2.03,4.08,1.42,7.83,3.45,2.42,1.31,6.07,2.96,8.27,3.12s6.29.09,9.02-.24c4.28-.51,4.25-.79,8.53-1.31,2.73-.33,7.17-.25,9.88.23,4.46.79,4.45.86,8.91,1.65,2.71.48,6.11,2.72,7.75,4.93,2.54,3.44,2.35,3.58,4.9,7.02,1.64,2.21,5.38,2.81,7.85,1.61,5.06-2.44,5.25-2.05,10.31-4.5,5.06-2.45,5.03-2.49,10.1-4.93,2.48-1.19,4.26-4.79,3.69-7.48-1.45-6.84-1.67-6.79-3.12-13.64-.57-2.69-1.54-7.11-2.36-9.73-1.96-6.27-2.48-6.11-4.44-12.38-.82-2.62-2.01-7.01-3.32-9.42-2.33-4.29-2.65-4.12-4.97-8.41-2.33-4.29-2.11-4.41-4.43-8.7-1.31-2.42-4.29-5.8-6.12-7.85-3.86-4.34-3.5-4.67-7.36-9.01-3.86-4.34-3.81-4.39-7.67-8.73-1.83-2.06-5.69-4.3-8.32-5.1-1.15-.35-1.32.22-2.47-.13-2.63-.8-6.9-1.51-9.52-.65-6.32,2.1-12.29,3.68-18.16,7.03-3.73,2.25-3.71,2.27-7.44,4.52-2.35,1.42-5.65,4.58-7.85,6.23-5.21,4.11-11.79,6.71-13.87,13.4-.53,2.35-.46,6.54-.3,9.29ZM1460.78,1089.15c0,6.23-.77,6.23-.77,12.45,0,2.75,2.51,5.95,4.83,7.42q1.69,1.07,3.38,2.15c2.32,1.47,3.49,5.12,2.47,7.67-.77,1.94-.68,1.98-1.45,3.93-1.36,3.52-2.02,8.29-1.44,12,.1,2.75,1.03,6.87,2.94,8.84,4.21,4.14,8.12,9.29,13.56,11.38,1.88.69,5.7,1.08,8.43.79,2.42-.26,2.38-.6,4.8-.86,2.73-.29,6.29-2.24,8.25-4.17,4.17-4.11,4.37-3.91,8.53-8.01,1.96-1.93,3.31-5.65,3.31-8.4,0-1.14.45-1.14.45-2.28,0-2.75.19-7.25.18-10-.02-6.03-.32-6.03-.34-12.06-.02-6.03-.39-6.03-.41-12.06-.02-6.02.1-6.02.08-12.05-.02-6.03.42-6.03.4-12.05-.02-6.02.16-6.02.14-12.05q-.02-6.02-.05-12.05c-.02-6.02-.57-6.02-.59-12.05-.02-6.02.62-6.03.6-12.05-.02-6.02-.43-6.02-.45-12.05-.02-6.02-.46-6.02-.48-12.05-.02-6.02.61-6.03.59-12.05,0-2.75-2.47-4.84-5.22-4.84-5.89,0-5.89.3-11.77.3s-5.88.02-11.77.02-5.88-.26-11.76-.26-5.88.17-11.77.17c-2.75,0-5.15,1.86-5.15,4.61.04,17.1-.06,32.72-.2,49.83,0,6.23.26,6.23.26,12.45s.58,6.22.58,12.45-.92,6.23-.92,12.45.75,6.23.75,12.45ZM1458.83,1354.66c-.1,5.89-.95,5.87-1.05,11.76-.04,2.75,2.65,5.37,5.4,5.37,5.43,0,5.43-.6,10.86-.6s5.43.22,10.86.22,5.43-.33,10.85-.33c2.75,0,4.55-1.9,4.5-4.65-.1-5.89.73-5.91.63-11.8-.1-5.89-.98-5.88-1.08-11.77-.1-5.89.71-5.9.61-11.79-.1-5.89-.91-5.88-1.01-11.77-.1-5.89.74-5.9.64-11.79-.1-5.89-.23-5.88-.33-11.77-.23-8.79-.3-14.76-.33-23.56-.1-5.89-.33-5.88-.43-11.77-.1-8.79-.05-14.77-.07-23.56-.05-2.75-2.71-4.7-5.46-4.7-7,0-7-.64-14-.64s-7,.47-14,.47c-2.75,0-4.84,2.14-4.89,4.89-.1,5.89.16,5.9,0,11.79-.16,5.89-.57,5.88-.67,11.77-.1,5.89.32,5.9.23,11.78-.1,5.89-.77,5.88-.86,11.77-.1,5.89.07,5.89-.02,11.78-.1,5.89-.02,5.89-.12,11.77-.1,5.89.31,5.9.22,11.78-.08,8.8-.3,14.76-.65,23.55-.1,5.89.23,5.89.13,11.78ZM1432.76,1599.19c-1.87-5.65-1.45-5.79-3.31-11.44-1.87-5.65-2.07-5.58-3.94-11.23-2.81-8.42-4.67-14.16-7.39-22.62-1.87-5.65-2.48-5.45-4.35-11.1-1.87-5.65-1.2-5.87-3.07-11.52-1.87-5.65-2.46-5.46-4.33-11.11-1.87-5.65-1.77-5.69-3.64-11.34-.86-2.61-3.51-4.25-6.04-3.18-6.15,2.61-5.85,3.34-12,5.95-2.53,1.07-4.14,3.69-3.16,6.26.03.08.21.01.24.1.79,2.07,2.89,3.54,5.02,3.53-2.87,1.06-4.34,1.56-9.24,3.43-6.95,2.65-7,2.51-13.95,5.15-2.57.98-4.12,4.13-3.21,6.73,1.85,5.3,1.87,5.29,3.72,10.6,1.85,5.3,2.06,5.23,3.91,10.53,1.85,5.3,1.72,5.35,3.57,10.65,1.85,5.31,2.08,5.22,3.93,10.53,2.45,7,5.12,12.82,6.49,20.22,1.03,5.83.7,5.89,1.73,11.72,1.16,6.64,3.68,12.25,5.66,18.6.84,2.62,3.34,4.49,5.95,3.62,5-1.68,4.98-1.73,9.98-3.41,5-1.68,5.05-1.54,10.05-3.22s4.76-2.41,9.76-4.09c2.61-.88,4.11-3.4,3.26-6.01-1.92-5.87-1.69-5.95-3.61-11.82-.08-.26-.16-.49-.24-.73,1.35,1.45,3.49,2.14,5.34,1.54,2.52-.81,3.72-3.75,2.86-6.36ZM1420.9,1686.9c.07-6.22.44-6.21.51-12.43.07-6.22-.44-6.22-.36-12.44.03-2.75-1.77-5.32-4.52-5.32-5.66,0-5.66-.06-11.32-.06s-5.66.65-11.32.65-5.66-.57-11.31-.57c-2.75,0-5.05,2.57-4.84,5.31.43,5.73.61,5.72,1.04,11.45.43,5.73.23,5.75.66,11.48.62,8.56.94,14.37,1.49,22.93.43,5.73,1.3,5.66,1.73,11.39.43,5.73-.41,5.79.02,11.52.43,5.73.72,5.71,1.15,11.44s.86,5.7,1.29,11.43c.43,5.73.31,5.74.74,11.46.43,5.73.73,5.71,1.15,11.44.2,2.74,2.15,5.03,4.89,4.81,5.8-.46,5.78-.77,11.58-1.23,5.8-.46,5.79-.55,11.6-1,2.74-.22,5.11-2.42,5.14-5.17.07-6.22-.17-6.22-.12-12.45.17-9.31.35-15.59.46-24.88.33-13.09.12-24.22.44-37.31.07-6.22-.16-6.22-.09-12.44ZM1418.71,1830.55c0-5.42.17-5.42.17-10.83s-.54-5.42-.54-10.83c0-2.75-1.96-4.93-4.71-4.93-5.59,0-5.59-.03-11.18-.03-2.75,0-5.79,2.07-6.72,4.65-2.67,7.38-3,7.25-5.67,14.63-.94,2.59-.4,6.92.25,9.59,1.18,4.86.28,5.08,1.46,9.94,1.18,4.86,1.71,4.73,2.89,9.6.65,2.67,3.36,4.68,6.11,4.68,6.42-.35,6.44-.3,12.86-.3,2.75,0,4.71-1.75,4.71-4.5,0-5.42.55-5.42.55-10.83s-.19-5.41-.19-10.83ZM1339.92,1464.71c4.71-1.25,4.64-1.52,9.35-2.78,2.66-.71,7.05-1.86,9.4-3.28,4.67-2.83,4.25-3.53,8.93-6.36,2.35-1.43,5.82-4.08,7.48-6.28,3.25-4.31,3.28-4.29,6.53-8.59,1.66-2.19,1.43-5.68-.21-7.89-2.54-3.44-2.62-3.38-5.17-6.82-1.64-2.21-3.16-6.43-3.59-9.15-1.3-8.19-.79-8.27-2.1-16.46-.43-2.72-2.72-6.29-4.69-7.93s-4.93-4.77-6.71-6.86c-1.97-2.31-2-2.29-3.97-4.61-1.79-2.09-3.6-5.91-3.8-8.66,0-3.67-1.28-8.22-4.11-10.71-2.89-2.44-3.3-1.95-6.19-4.4-2.1-1.77-5.34-2.05-7.41-.24-2.2,1.93-2.47,1.62-4.67,3.55-2.07,1.81-5.7,3.7-8.45,3.7-.22,0-.22.39-.44.39-2.75,0-6.45-2.17-8.18-4.3-1.74-2.28-5.28-3.37-7.93-2.13-3.82,1.77-3.7,2.03-7.52,3.8-2.49,1.16-6.55,3.16-8.51,5.08-5.98,5.89-5.69,6.19-11.67,12.08-1.96,1.93-5.27,4.99-7.14,7.01-1.98,2.14-1.89,2.22-3.87,4.36-1.87,2.02-4.2,5.88-4.77,8.57-.16.78.64.94.48,1.72-.57,2.69-.28,6.81,1.42,8.98q3.76,4.82,7.51,9.63c3.76,4.82,4.08,4.56,7.84,9.38,1.69,2.17,4.96,5.14,7.35,6.51,6.85,3.93,6.66,4.26,13.51,8.19,2.39,1.37,6.41,3.38,8.62,5.01,5.97,4.41,5.99,4.37,12.04,8.67q6.05,4.3,12.03,8.7c2.21,1.63,5.98,2.79,8.64,2.09ZM1333.48,1596.63c-2.01-5.62-1.36-5.85-3.37-11.46-2.01-5.62-2.67-5.38-4.67-11-2.01-5.61-1.66-5.74-3.66-11.35-3.09-8.35-5.08-14.06-7.92-22.5-2.01-5.62-2.35-5.5-4.36-11.11-2.01-5.62-1.85-5.67-3.85-11.29-2.01-5.62-2.34-5.5-4.35-11.12-2.01-5.62-1.81-5.69-3.81-11.31-.93-2.59-3.82-4.87-6.57-4.87-1.04,0-1.04-.27-2.08-.27-2.75,0-3.97,2.41-3.04,5q2.09,5.84,4.17,11.69c2.09,5.84,1.49,6.06,3.57,11.91,4.27,12.35,8.44,22.65,12.95,34.91,2.09,5.85,1.77,5.96,3.85,11.81,2.09,5.84,1.91,5.91,4,11.75,3.2,8.72,5.25,14.65,8.54,23.33.93,2.59,4.18,4.25,6.75,3.25.65-.25.34-1.02.99-1.28,2.56-1,3.79-3.51,2.87-6.1ZM1250.37,1942.98c-2.86-6.92-3.47-6.67-6.33-13.59-2.86-6.92-2.8-6.95-5.66-13.86-1.05-2.54-1.84-7-2.52-9.66-2.16-8.52-2.27-8.49-4.44-17.01-.68-2.67-1.63-7.04-2.08-9.75-1.1-6.73-1.45-6.68-2.56-13.41-.44-2.71-2.94-4.81-5.69-4.81-4.34,0-4.34.32-8.67.32-2.75,0-4.55,1.75-4.28,4.49.57,5.84.82,5.82,1.39,11.66.27,2.74.32,7.26.99,9.93,2.18,8.73,2.23,8.71,4.42,17.44,2.08,7,4.64,12.66,7.12,19.45,1.95,4.99,1.5,5.17,3.45,10.16,1,2.56,3.44,6.41,4.71,8.85,3.14,6.06,2.69,6.29,5.83,12.35,3.14,6.06,3.89,5.67,7.03,11.73,1.27,2.44,2.94,6.65,4.42,8.97,3.03,4.75,2.96,4.78,5.99,9.53,4.53,7.1,7.82,11.75,12.46,18.78,1.48,2.32,4.57,3.2,6.76,1.54,3.02-2.28,2.99-2.32,6.01-4.6,2.19-1.66,2.92-5.26,1.64-7.59-1.28-2.33-4.35-5.52-6.17-7.58-1.36-1.55-.74-2.1-2.11-3.65-1.82-2.06-5.04-5.29-6.33-7.72-2.97-5.64-2.72-5.77-5.69-11.41-2.97-5.64-2.38-5.95-5.35-11.59-1.28-2.43-3.31-6.4-4.36-8.95ZM1251.51,1551.58c5.52,4.19,5.51,4.22,10.82,8.67,2.11,1.77,5.04,1.91,6.75-.24,2.63-3.31,2.69-3.26,5.32-6.57,1.71-2.15,1.17-5.46-.72-7.47-5.45-5.79-5.51-5.73-10.96-11.52-1.88-2-4.54-5.67-6.25-7.83-3.07-3.86-3.3-3.68-6.37-7.54-3.07-3.86-2.83-4.05-5.9-7.92-1.71-2.15-4.62-5.64-6.05-7.98-2.6-4.27-2.45-4.37-5.05-8.64-3.63-5.86-7.05-11.01-9.6-17.53-2.05-4.84-2.21-4.77-4.26-9.62s-2.3-4.74-4.35-9.58c-1.07-2.53-1.76-7.04-2.32-9.73-1.16-6.39-2.4-12.17-3.69-18.59-.15-.83-.78-.71-.93-1.54-.49-2.71-2.66-4.56-5.36-4.03-5.7,1.11-5.64,1.44-11.34,2.55-2.7.52-4.28,2.76-3.69,5.44.86,3.95.18,4.1,1.04,8.05.58,2.69,2.58,6.8,3.46,9.41,2,5.96,2.11,5.92,4.12,11.87,2,5.96,1.38,6.16,3.39,12.12,2.07,6.28,4.72,11.66,7.53,17.56,1.9,4.14,2.26,3.97,4.16,8.11,1.15,2.5,3.38,6.33,4.93,8.6,2.64,3.83,2.75,3.75,5.39,7.59,3.59,5.55,6.67,10.75,10.93,15.89,2.94,3.41,3.27,3.12,6.21,6.53,2.94,3.41,2.3,3.96,5.23,7.37,1.79,2.08,5.45,4.79,7.55,6.56ZM1369.42,1251.33c1.62-5.58,2.31-5.37,3.97-10.94,1.66-5.56.89-5.79,2.55-11.35,1.66-5.56,2.38-5.35,4.04-10.91,1.66-5.56,1.14-5.72,2.8-11.28,1.66-5.56,1.99-5.46,3.64-11.02,1.66-5.56,1.59-5.58,3.25-11.14.79-2.64-.86-5.28-3.42-6.29q-4.3-1.71-8.6-3.41c-2.56-1.02-5.04-.03-5.79,2.61-1.73,6.05-1.9,6.01-3.63,12.06-1.73,6.05-2,5.98-3.73,12.03-1.73,6.05-1.15,6.22-2.88,12.27-1.73,6.05-2.41,5.86-4.14,11.91-1.73,6.05-.83,6.31-2.56,12.36-1.73,6.05-2.65,5.79-4.38,11.84-.76,2.64.8,6.39,2.94,8.11,3.77,3.03,3.62,3.23,7.39,6.26,2.14,1.72,4.85.78,5.64-1.85,1.66-5.57,1.28-5.68,2.89-11.26ZM1367.06,1260.77c.06-.21.11-.38.15-.5-.03.1-.08.27-.15.5ZM1425.17,988.11c-2.4-5.7-2.93-5.48-5.33-11.18-2.4-5.7-1.7-5.99-4.1-11.69-2.4-5.7-2.24-5.77-4.64-11.47-2.4-5.7-2.84-5.52-5.24-11.22-2.4-5.7-2.77-5.54-5.17-11.24-2.4-5.7-2.35-5.72-4.75-11.43q-2.4-5.7-4.81-11.4c-1.07-2.53-3.78-4.06-6.29-2.95-5.77,2.55-5.54,3.07-11.31,5.62-5.77,2.55-5.96,2.11-11.73,4.66-2.52,1.11-3.35,4.11-2.21,6.61q2.95,6.51,5.91,13.01c2.94,6.51,2.5,6.71,5.44,13.22,1.13,2.51,3.61,4.39,5.11,4.85,1.5.46,3.82,2.47,4.85,4.2,1.04,1.73,1.21,4.16.55,4.82-2.18,3.03-1.74,10.54.19,14.41,3.19,6.19,3.69,5.93,6.88,12.12,3.19,6.19,2.58,6.51,5.85,12.67,3.27,6.15,3.69,5.93,6.88,12.12,1.26,2.44,4.01,3.42,6.47,2.19,4.88-2.44,5.14-1.92,10.02-4.36,4.88-2.44,4.82-2.55,9.7-4.99,2.46-1.23,3.53-4.61,2.46-7.15-2.4-5.7-2.34-5.73-4.73-11.43ZM1322.97,766.29c0,2.3,2.07,5.37,4.3,6.98,2.96,2.32,7.27,4.73,11.15,4.78,7.23,0,7.23-.59,14.45-.59,2.75,0,5.29,2.66,5.29,5.41,0,1.43-.68,1.43-.68,2.87,0,2.75,2.5,5.81,5.14,6.56,3.71,1.05,3.78.83,7.49,1.88,2.65.75,7.01,1.9,9.73,2.26,3.41.46,3.42.42,6.82.88,2.73.37,7.23.43,9.98.43,3.53,0,3.53.23,7.05.23,2.75,0,6.29-2.01,7.89-4.25,1.92-2.69,2.28-2.43,4.2-5.12,1.6-2.24,2.75-6.57,3.3-9.27,1.1-5.4,1.61-5.29,2.71-10.69.55-2.7-.08-6.62-1.49-8.3-1.42-1.68-3.5-4.97-3.74-7.71-.03-.33.14-.34.11-.67-.25-2.74-2.05-6.35-4.16-8.12-1.16-.97-.84-1.34-2-2.31-2.11-1.77-5.39-3.14-6.98-3.5-1.59-.35-4.66-2.15-7.08-3.47-5.29-2.9-5.53-2.47-10.81-5.37q-5.29-2.9-10.59-5.78c-2.41-1.32-6.42-3.4-9.08-4.1-8.67-2.29-8.75-1.98-17.43-4.25-2.66-.7-5.21,1.01-6.1,3.61-2.56,7.49-3.33,7.23-5.89,14.73-.89,2.6-1.83,7.08-3.08,9.53-3.83,7.46-4.62,7.05-8.45,14.51-1.26,2.45-2.06,6.52-2.06,8.82ZM1299.1,1218.94q-2.56,5.39-5.12,10.78c-1.18,2.48-.17,5.5,2.3,6.71,5.53,2.73,5.66,2.47,11.19,5.2,5.53,2.73,5.2,3.4,10.73,6.13,5.53,2.73,5.72,2.34,11.24,5.06,2.47,1.22,5.59.2,6.72-2.3,2.57-5.71,2.31-5.83,4.83-11.57,2.52-5.74,2.8-5.61,5.38-11.32,2.57-5.71,2.79-5.61,5.36-11.32,2.57-5.71,1.86-6.03,4.43-11.74,2.57-5.71,2.81-5.6,5.38-11.31,2.57-5.71,2.31-5.82,4.88-11.53,2.57-5.71,3.17-5.44,5.75-11.15,5.55-11.95,9.72-22.38,15.2-34.36,2.57-5.71,2.44-5.77,5.01-11.48,1.13-2.51.38-5.76-2.11-6.91-6.18-2.84-6.14-2.93-12.32-5.77-6.18-2.84-6.58-1.97-12.76-4.81-2.5-1.15-6.41-2.9-8.93-2.9s-5.65,2.38-6.72,4.92c-3.5,8.12-5.94,13.57-9.47,21.67-2.31,5.44-1.75,5.68-4.05,11.12-1.07,2.53-3.09,5.7-4.54,6.85-1.45,1.14-2.66,4.11-2.48,6.85.09,1.39.21,1.38.3,2.77.18,2.74-1.48,6.49-3.42,8.44-.35.35-.22.47-.57.81-1.94,1.94-4.42,5.59-5.6,8.07-2.57,5.39-2.46,5.44-5.02,10.84-2.57,5.39-3.2,5.09-5.76,10.48-3.68,8.12-6.09,13.67-9.82,21.77ZM1243.87,1145.85c-5.61,3.03-5.76,2.75-11.37,5.78-5.61,3.03-5.55,3.14-11.16,6.17-2.42,1.3-3.11,3.91-1.84,6.35,2.96,5.71,2.33,6.03,5.29,11.74,2.96,5.7,3.07,5.65,6.03,11.35,2.96,5.71,2.67,5.86,5.63,11.57,2.96,5.71,3.42,5.47,6.39,11.18,1.27,2.44,4.26,3.4,6.67,2.08,5.64-3.09,5.71-2.98,11.35-6.07,5.64-3.09,5.37-3.58,11.01-6.67,8.45-4.58,14.5-7.12,22.98-11.63,2.41-1.32,3.3-4.91,2.01-7.34-2.98-5.63-3.4-5.41-6.38-11.04-2.98-5.63-3.14-5.54-6.12-11.17-2.98-5.63-2.88-5.69-5.87-11.32-2.98-5.63-2.43-5.92-5.41-11.56-1.29-2.43-4.48-3.05-6.91-1.74-5.61,3.02-5.67,2.92-11.28,5.95-5.61,3.02-5.42,3.37-11.03,6.39ZM1185.01,887.09c-2.18-.86-5.48-1.55-7.19-.76-1.85.78-4.86,3.58-6.94,5.43-4.13,4.9-8.51,11.37-8.77,17.99,0,.76-.3.76-.3,1.52,0,2.75,1.32,6.7,2.64,8.68,3.3,5.19,4.55,11.27,6.5,17.15,2.11,5.87,3.68,11.55,5.31,17.52.68,2.66,2.51,6.72,4.16,8.92,1.42,1.89,1.61,1.75,3.03,3.64,3.95,4.89,10.48,6.06,16.38,6.47,2.64,0,6.26-1.77,8.29-3.62.26-.24.52.05.78-.19,2.04-1.85,5.4-4.8,7.44-6.65.27-.17.38.11.51-.01,2.04-1.85,5.41-4.7,7.94-5.76,3.67-1.54,3.8-1.22,7.47-2.76,2.54-1.07,5.72-3.49,7.17-5.14,1.45-1.65,2.44-5.18,2.11-7.82-.33-2.64-1.54-6.87-2.75-9.34-.21-.42-.42-.32-.63-.74-1.21-2.47-4.21-5.46-6.47-7.02-1.77-1.23-1.74-1.27-3.51-2.5-2.26-1.57-5.93-3.91-8.51-4.24-2.57-.33-6.03-2-7.93-3.99-3.63-3.81-3.65-3.79-7.28-7.61-1.9-1.99-5.39-4.91-7.12-7.04-2.71-3.32-2.22-3.73-4.94-7.05-1.74-2.13-5.24-4.19-7.41-5.05ZM1068.09,521.21c5.74,3.79,6.1,3.24,11.84,7.04,5.74,3.79,5.68,3.88,11.42,7.68,5.73,3.79,5.31,4.43,11.04,8.22,2.29,1.52,6.37,3.54,8.52,5.25,4.83,3.81,4.51,4.21,9.33,8.02,2.16,1.7,5.77,4.43,8.05,5.97,4.65,3.13,5.03,2.56,9.68,5.69,4.65,3.13,4.6,3.2,9.25,6.33,4.64,3.13,4.37,3.53,9.02,6.66,4.64,3.13,5,2.6,9.65,5.73,2.28,1.54,5.13,1.26,6.8-.93,3.88-5.11,4.05-4.98,7.92-10.09,1.66-2.19,1.37-5.61-.88-7.2-4.41-3.11-4.67-2.72-9.16-5.73-4.48-3.01-4.21-3.4-8.62-6.51-4.41-3.11-4.29-3.27-8.69-6.38-4.41-3.11-4.37-3.16-8.78-6.27-2.25-1.59-5.6-2.5-7.18-2.5-6.33-.34-11.21-5.7-16.61-9.04-4.78-3.13-4.94-2.89-9.72-6.01-6.37-4.03-11.66-7.36-17.98-11.64-1.21-.79-.78-1.44-1.99-2.23-2.3-1.51-5.87-4.13-7.71-6.17-1.2-1.33-1.21-1.32-2.41-2.66-1.84-2.04-4.81-2-6.49.18-3.69,4.79-3.22,5.15-6.91,9.94-1.68,2.18-1.7,5.15.59,6.67ZM865.69,804.56c0,2.75,1.06,7.07,2.32,9.51,2.77,5.02,5.12,10.4,8.87,14.84,3.49,3.76,3.68,3.58,7.18,7.35,1.87,2.02,4.88,5.37,6.78,7.35,4.17,4.34,4.15,4.36,8.32,8.7,4.17,4.34,4.56,3.96,8.74,8.3,6.13,6.58,10.3,11.03,16.57,17.45,1.91,1.98,4.51,1.6,6.24-.54,3.7-4.54,4.29-4.06,7.99-8.6,3.7-4.54,3.33-4.85,7.03-9.39,3.7-4.54,4.19-4.13,7.89-8.67,3.7-4.54,3.73-4.52,7.43-9.06,3.7-4.54,3.26-4.89,6.96-9.43,3.7-4.54,3.62-4.6,7.32-9.14s4-4.29,7.7-8.82,3.85-4.41,7.55-8.95c1.74-2.13,1-5.44-1.14-7.17-6.59-5.34-6.67-5.25-13.19-10.67-2.14-1.73-5.42-4.88-7.74-6.37-6.53-4.19-6.95-3.54-13.49-7.74-2.31-1.49-5.51-4.71-7.63-6.46-3.84-3.18-4.33-2.59-8.17-5.76-2.12-1.75-5.86-3.94-8.41-4.98-2.53-1.03-2.42-1.3-4.95-2.33-2.55-1.04-6.84-2.14-9.57-2.5-2.07-.27-2.01-.72-4.08-1-2.73-.36-7.11.56-9.8,1.12-3.33.7-3.38.44-6.71,1.14-2.69.56-6.89,1.98-9.17,3.5-1.81,1.2-1.56,1.57-3.37,2.77-2.29,1.53-5.88,4.16-7.65,6.27-2.48,2.94-2.37,3.03-4.85,5.97-1.77,2.1-3.09,6.1-3.39,8.83-.78,4.61-.99,9.87-.96,14.57,0,4.95-.63,4.95-.63,9.89ZM797.63,1867.41c-3.5-4.88-3.11-5.15-6.61-10.03-3.5-4.88-4.11-4.44-7.61-9.32-3.5-4.88-3.32-5-6.82-9.88-3.5-4.88-3.78-4.67-7.28-9.55-3.5-4.88-3.08-5.17-6.58-10.05-5.36-7.19-8.89-12.13-13.96-19.53-3.5-4.88-3.81-4.65-7.31-9.53-3.5-4.88-2.91-5.3-6.41-10.17-5.28-7.27-8.96-12.09-14.31-19.3-1.6-2.23-4.57-2.44-6.89-.96-5.21,3.34-5.41,3.03-10.62,6.37q-5.22,3.34-10.42,6.7c-5.22,3.34-5.26,3.27-10.48,6.61-2.32,1.48-3.28,4.73-1.73,7,7.12,10.45,13.33,19.24,20.38,29.73,3.4,4.96,3.42,4.94,6.81,9.9,3.39,4.96,3.97,4.56,7.37,9.51,3.4,4.96,2.74,5.41,6.13,10.36,3.4,4.96,3.37,4.97,6.77,9.93,3.4,4.96,3.67,4.77,7.06,9.73,3.4,4.96,3.9,4.61,7.3,9.57,3.4,4.96,3.07,5.18,6.58,10.06,3.51,4.89,3.56,4.86,6.96,9.82,1.55,2.27,4.3,2.99,6.61,1.5,5.62-3.64,5.47-3.87,11.09-7.51,5.62-3.64,5.88-3.25,11.5-6.89s5.53-3.79,11.16-7.43c2.31-1.49,2.91-4.39,1.31-6.63ZM911.01,2226.77c-.62-1.07-2.75-3.6-4.73-5.51-4.51-4.33-4.47-4.36-8.98-8.69-1.98-1.9-5.26-4.99-6.67-7.36-3.77-6.38-5.78-11.02-9.46-17.45-4.19-6.22-11.36-6.53-17.89-8.79-5.08-1.6-5.01-1.84-10.09-3.44-2.62-.83-6.63.15-8.65,2.02-4.93,4.56-5.08,4.39-10.01,8.95-4.92,4.48-8.08,9.63-11.76,15.04-2.62,3.72-2.69,3.66-5.31,7.38-3.12,4.68-5.92,9.63-8.86,14.38-1.38,2.38-2.55,6.79-2.55,9.54,0,4.74.9,4.74.9,9.47,0,2.75-.8,7.25-.8,10,0,2.95.49,2.95.49,5.9,0,2.75.89,7.02,1.74,9.63,1.79,6.01,2.81,12.22,7.17,17.04,3.44,3.44,3.83,3.05,7.28,6.49,1.94,1.94,5.4,4.76,7.61,6.4,3.67,2.73,3.46,3.02,7.13,5.75s3.89,2.44,7.56,5.17c2.21,1.64,6.05,3.82,8.78,4.12,3.95.43,3.99.07,7.95.5,2.73.3,6.45-1.17,8.59-2.77,2.14-1.61,5.82-4.11,7.57-6.23,3.11-3.75,2.53-4.24,5.64-7.99,3.11-3.75,3.34-3.56,6.45-7.32,1.75-2.12,4.15-5.84,5.42-8.28,2.33-4.62,5.2-9.47,5.95-14.7.56-4.9.79-10.37,1.77-15.25.21-.96.96-.79,1.17-1.76.6-2.68,1.93-6.88,3.05-9.39,1.37-3.06.96-3.24,2.33-6.31,1.12-2.51,1.83-5.51,1.2-6.58ZM1036.13,1841.91c-1.25-1.56-1.64-1.25-2.89-2.81-1.71-2.15-4.65-5.43-6.76-7.2-1.56-1.31-1.67-1.18-3.23-2.49-2.11-1.77-5.02-3.24-6.76-3.41-1.75-.17-5.38-.84-8.13-.84-5.26,0-5.26.15-10.52.15s-5.26-.35-10.53-.35-5.26.49-10.53.49c-2.75,0-5.28,2.03-5.28,4.78-.16,5.63.05,5.64.05,11.27,0,2.75,2.48,4.7,5.23,4.68,5.74-.05,5.75.38,11.49.33,8.57-.04,14.39-.13,22.97-.28,5.75-.05,5.75.35,11.5.29s5.74-.34,11.49-.39c2.75-.03,3.62-2.04,1.91-4.19ZM1064.88,1333.8c-4.76-3.25-4.66-3.4-9.41-6.65-4.76-3.25-4.86-3.1-9.62-6.35-4.75-3.25-4.61-3.46-9.36-6.71-4.75-3.25-4.61-3.46-9.36-6.71-2.27-1.55-4.99-.51-6.32,1.9-2.87,5.2-3.51,4.84-6.38,10.04q-2.87,5.2-5.75,10.39c-2.87,5.2-2.21,5.56-5.08,10.76-4.28,7.78-7.29,12.95-11.7,20.66-2.87,5.19-2.66,5.31-5.53,10.5-2.87,5.19-3.05,5.09-5.92,10.29-2.87,5.2-2.69,5.29-5.56,10.49-2.87,5.2-2.91,5.17-5.78,10.36-2.87,5.2-3.28,4.97-6.15,10.16-2.87,5.2-2.47,5.42-5.34,10.61-2.87,5.2-3.13,5.05-6,10.24-2.87,5.19-2.4,5.45-5.26,10.65-2.87,5.2-3.6,4.79-6.46,9.99q-2.87,5.19-5.74,10.39c-4.18,7.82-7.02,13.12-11.3,20.87-2.87,5.19-2.44,5.43-5.31,10.62-2.87,5.19-3.18,5.02-6.05,10.21-2.86,5.19-2.9,5.17-5.77,10.36-2.87,5.19-2.53,5.38-5.4,10.57-2.87,5.2-3.41,4.89-6.28,10.09-2.87,5.19-2.96,5.15-5.82,10.34-2.87,5.19-2.47,5.41-5.34,10.61-2.87,5.19-2.52,5.38-5.39,10.58-1.33,2.41-.84,5.32,1.47,6.82,7.76,5.1,12.86,8.8,20.59,13.95,5.22,3.37,5.44,3.03,10.66,6.4,5.22,3.37,5.08,3.58,10.3,6.95,2.31,1.49,5.88.76,7.28-1.61,3.27-5.55,2.89-5.77,6.17-11.32,3.27-5.55,3.61-5.35,6.88-10.89,3.27-5.54,3.1-5.64,6.37-11.18,6.42-10.58,11.88-20.08,17.95-30.91,2.86-5.08,2.5-5.29,5.36-10.37s3.4-4.78,6.26-9.87c2.86-5.08,2.72-5.16,5.58-10.24,3.72-6.63,6.76-12.25,10.96-18.67,3.51-5.78,3.19-5.97,6.7-11.75s3.92-5.53,7.43-11.31c3.51-5.77,3.33-5.88,6.83-11.66,1.43-2.35,3.54-6.37,4.47-8.96,1.88-5.24,1.3-5.45,3.18-10.69,1.88-5.24,2.5-5.02,4.38-10.25,1.88-5.23,1.67-5.31,3.55-10.54.93-2.59,2.88-6.59,4.16-9.02,2.76-5.25,2.21-5.54,4.97-10.79,2.76-5.25,2.85-5.2,5.62-10.45,2.76-5.25,3.25-4.99,6.01-10.24,2.76-5.25,2.82-5.22,5.59-10.47,2.76-5.25,2.42-5.43,5.18-10.67,2.76-5.25,2.27-5.51,5.03-10.75,1.28-2.43.72-5.21-1.55-6.76ZM1110.64,1093.72c5.12,2.67,4.87,3.15,9.99,5.82s5.27,2.39,10.39,5.06c2.44,1.27,5.82.5,7.33-1.8.39-.59.65-.42,1.04-1.01,1.51-2.3.26-5.34-2.18-6.6-5.13-2.65-4.92-3.05-10.06-5.7-5.13-2.65-5.21-2.49-10.35-5.14-5.13-2.65-5.04-2.83-10.17-5.48-5.13-2.65-5.45-2.03-10.58-4.68s-4.92-3.06-10.05-5.71c-5.13-2.65-5.05-2.81-10.18-5.46-5.13-2.65-5.1-2.71-10.24-5.36-5.13-2.65-5.47-2-10.6-4.65-5.14-2.65-5.18-2.57-10.32-5.22-5.14-2.65-4.79-3.32-9.93-5.97-2.44-1.26-5.87-.22-7.35,2.09-.26.4-.3.37-.56.77-1.49,2.31-.48,5.15,1.96,6.42,7.59,4.05,12.81,6.69,20.54,10.52,5.12,2.66,4.87,3.15,9.98,5.81,5.12,2.66,5.4,2.11,10.52,4.78s4.86,3.15,9.98,5.81c5.12,2.66,5.19,2.52,10.31,5.18,5.12,2.67,4.87,3.15,9.99,5.81,5.12,2.66,5.45,2.03,10.56,4.7ZM1114.43,1671.04c3.98,3.98,3.87,4.09,7.85,8.07,3.98,3.98,4.66,3.3,8.64,7.28,1.94,1.94,5.09,5.12,7.18,6.91,9.6,8.06,17.81,15.46,26.84,24.21,2.02,1.87,5.07,3.13,6.69,3.37,1.62.24,4.03,2.84,5.43,5.21,3.74,6.32,3.5,6.46,7.23,12.78s3.97,6.18,7.71,12.5c1.4,2.37,4.17,2.72,6.3.99,5.15-4.18,5.26-4.04,10.41-8.23,5.14-4.18,4.85-4.54,9.99-8.72,5.15-4.19,5.69-3.52,10.83-7.71,5.15-4.19,4.61-4.84,9.76-9.03,4.53-3.87,7.32-6.99,4.78-12.95-1.3-2.6-1.46-2.52-2.76-5.12-1.23-2.46-2.77-6.67-3.71-9.25-.64-3.25-3.63-7.03-5.68-9.57-3.25-3.85-3.22-3.88-6.47-7.72-1.78-2.1-4.33-5.81-6.03-7.98-5.46-6.97-5.97-6.57-11.44-13.54-1.7-2.16-4.24-5.9-6.16-7.87-1.82-1.87-1.69-1.99-3.51-3.86-1.92-1.97-3.51-4.9-3.51-6.85s-1.81-5.21-3.31-7.51c-3.64-5.57-2.97-6.01-6.62-11.58-3.64-5.57-4.09-5.28-7.73-10.85-1.5-2.3-4.51-2.95-6.47-1.02-4.32,4.25-4,4.58-8.32,8.83-4.33,4.25-4.67,3.91-8.99,8.16-4.32,4.25-4.18,4.4-8.5,8.65-6.44,6.37-10.83,10.67-17.35,16.96-1.96,1.93-4.82,5.46-6.87,7.29-2.03,1.82-2.25,1.57-4.27,3.39-2.05,1.84-4.27,5-4.67,7.11s.81,5.69,2.75,7.64ZM1174.97,1817.96c.1-6.9.41-6.9.51-13.8.04-2.75-2.1-4.88-4.85-4.88-6.22,0-6.22-.09-12.44-.09-2.75,0-5.77,2.14-7.19,4.49-.61,1.02-1.25.63-1.87,1.65-1.41,2.36-2.89,6.63-3.31,9.35-.21,1.35.19,1.42-.02,2.77-.43,2.72-.74,7.15-.47,9.89.3,3.79,1.2,8.62,2.86,12.13,1.43,2.71,3.68,8.2,4.74,9.91.63.79,3.72,1.34,6.47,1.34,5.23-.11,5.23-.33,10.46-.33,2.75,0,5.13-2.07,5.18-4.82.1-6.9.13-6.9.23-13.79.1-6.9-.41-6.91-.31-13.81ZM1124.59,2178.75c2.69,4.31,2.46,4.45,5.15,8.75-.09-.14-.15-.24-.23-.36-.15-.23-.34-.55-.52-.83-.15-.24-.27-.43-.35-.56.07.11.18.28.35.56.13.21.31.5.52.83.13.21.23.36.23.36,1.46,2.33,4.55,2.98,6.91,1.57,5.39-3.22,5.41-3.19,10.81-6.41,5.39-3.22,5.61-2.85,11-6.07,5.39-3.23,5.14-3.64,10.54-6.87s5.28-3.41,10.68-6.64c2.36-1.41,3.24-4.17,1.87-6.55-2.64-4.6-2.13-4.9-4.77-9.5-2.64-4.6-3.4-4.17-6.04-8.77-1.37-2.38-3.82-3.02-6.04-1.39-.51.37-.92-.19-1.42.18-2.22,1.62-5.3,5.01-6.77,7.34-3.28,5.21-3.14,5.29-6.42,10.49-1.47,2.33-4.7,4.16-7.44,3.87-.09,0-.04-.52-.14-.53-2.74-.28-7.13.16-9.67.54-2.55.38-6.76,1.58-9.18,2.89-1.55.84-1.44,1.04-2.99,1.89-2.42,1.31-2.91,4.28-1.45,6.61q2.69,4.3,5.37,8.61ZM1406.1,2166.45c-4.25-2.83-3.91-3.33-8.16-6.17-4.25-2.83-4.46-2.52-8.72-5.35-4.25-2.83-4.14-3-8.4-5.83-2.29-1.53-6.27-3.63-8.67-4.96-5.51-3.05-5.45-3.16-10.97-6.21-5.51-3.05-5.3-3.44-10.81-6.49-5.51-3.05-5.66-2.79-11.17-5.85q-5.52-3.05-11.02-6.12c-5.51-3.05-5.78-2.57-11.29-5.63-5.52-3.05-5.25-3.54-10.77-6.59-5.52-3.05-5.43-3.2-10.95-6.26-2.41-1.33-6.18-2.45-8.21-2.45s-4.6,2.37-5.99,4.73c-3.26,5.53-3.34,5.48-6.6,11-3.26,5.53-3.68,5.28-6.94,10.81-3.26,5.53-2.63,5.9-5.89,11.42-3.26,5.53-3.35,5.48-6.61,11.01-3.26,5.53-3.58,5.34-6.84,10.87-1.4,2.37-3.15,6.52-4.34,8.99-2.89,5.99-3.06,5.91-5.95,11.91-2.89,5.99-3.36,5.77-6.25,11.76-4.37,8.92-7.23,15.04-11.44,24.05-3.32,6.88-6.16,12.44-9.37,19.26-2.5,5.14-2.02,5.37-4.52,10.51-3.41,6.58-6.96,12.03-8.75,19.33-.58,2.62-2.12,6.68-3.46,9.08-4.62,8.1-7.48,14.2-12.56,22.12-1.33,2.11-1.59,1.94-2.92,4.05-1.46,2.33-2.27,6.71-2.65,9.43-.71,5.1-1.26,5.02-1.97,10.12-.71,5.1-.86,5.08-1.57,10.19-.71,5.1-.32,5.16-1.03,10.26-.38,2.72-2.49,6.44-4.26,8.54-3.59,4.25-3.05,4.71-6.63,8.96-3.59,4.25-4.1,3.82-7.69,8.07-5.23,6.47-10.13,11.27-15.83,17.26-4.62,4.88-4.77,4.74-9.39,9.62-1.89,2-1.38,5.38.42,7.46,4.28,4.98,4.06,5.17,8.33,10.16,6.41,7.44,10.91,12.33,17.43,19.67,4.28,4.99,4.07,5.16,8.36,10.15,5.07,6.15,10.63,10.27,13.52,17.8.78,2.23,2.49,5.88,4.57,7.67,2.55,2.2,2.96,1.72,5.52,3.92,2.08,1.79,5.33,2.13,7.27.18,3.9-3.93,3.51-4.32,7.41-8.25,3.9-3.93,4.35-3.48,8.26-7.41,3.91-3.93,3.96-3.88,7.86-7.81,3.9-3.93,3.36-4.47,7.26-8.4,5.95-5.74,9.94-9.73,15.69-15.66,1.94-1.95,2.64-4.6,1.38-6.15-1.26-1.55-.78-4.56,1.2-6.47,4.22-4.07,4.12-4.18,8.34-8.25,4.22-4.07,4.37-3.92,8.59-7.99,4.22-4.07,4.61-3.67,8.83-7.74,4.22-4.07,3.66-4.65,7.88-8.72,4.22-4.07,4.75-3.52,8.97-7.6,4.22-4.07,4.08-4.22,8.3-8.3,4.22-4.08,3.98-4.32,8.2-8.4,4.22-4.07,4.62-3.66,8.84-7.74,4.22-4.08,3.61-4.71,7.84-8.79,4.22-4.08,4.78-3.5,9-7.58,1.98-1.91,2.74-5.89,2.26-8.6-.19-1.07-.28-1.05-.47-2.11-.48-2.71.45-7.01,1.79-9.41,3.18-5.66,3.47-5.49,6.65-11.15s3.39-5.54,6.57-11.2c1.35-2.4,2.9-6.72,4.42-9.01,3.73-5.66,4.52-5.14,8.25-10.81,3.73-5.66,3.31-5.94,7.04-11.61,1.51-2.3,3.59-6.26,4.64-8.8,2.75-6.67,3.19-6.49,5.93-13.17s2.44-6.8,5.19-13.47c1.05-2.54,3.47-6.26,4.99-8.56,4.42-6.87,7.3-11.54,11.74-18.39,3.01-4.55,2.53-4.88,5.62-9.38,3.09-4.5,3.53-4.2,6.54-8.76,1.52-2.29.47-5.29-1.81-6.81ZM1443.95,1990.69c8.07-1.68,15.38-5.33,21.6-10.61,6.38-5.01,11.89-11.26,15.75-18.42,3.23-7.42,4.77-15.57,4.71-23.79.77-16.54-7.21-32.5-20.44-42.23-3.16-2.53-6.24-5.33-9.92-7.1-3.62-1.75-7.64-2.78-11.65-3.69-3.89-.88-7.95-.83-12.1-.83-8.24-.22-16.25,1.41-23.57,4.92-3.68,1.78-6.91,4.23-10.07,6.76-3.18,2.54-6.37,5.07-8.91,8.25-7.6,9.57-11.7,21.65-11.97,33.93-.16,8.32,1.7,16.35,5.4,23.65,3.47,7.44,8.58,14.03,14.96,19.18,6.47,4.97,14.06,8.26,22.14,9.83,3.89.88,7.86,1.74,12.02,1.74s8.17-.69,12.06-1.58ZM1506.57,2016.88c2.44-1.28,6.68-2.93,8.91-4.54,3.01-2.19,2.65-2.69,5.66-4.88,2.23-1.61,5.28-4.74,6.99-6.9.77-.97,1.11-.7,1.88-1.68,1.71-2.16,3.92-6.08,4.37-8.79.42-2.5-.45-2.64-.04-5.14.46-2.71,1.57-6.31,2.33-7.91.76-1.6,3.58-4.01,5.63-5.85,1.68-1.51,1.29-1.94,2.97-3.44,2.05-1.84,3.21-5.36,2.94-8.1-.62-6.24-.4-6.26-1.01-12.5-.27-2.74.08-7.25.08-10,0-2.2-.11-2.2-.11-4.4,0-2.75-2.04-6.43-3.79-8.55-4.57-5.55-4.17-5.89-8.74-11.44-2.31-2.67-5.74-6.23-9.18-7.27-2.43-1.28-6.1-.45-7.8,1.71-4.66,5.9-4.52,6.01-9.18,11.91-1.7,2.16-2.8,4.87-2.5,6.01.3,1.14,1.1,4.31,1.2,7.06.09,2.48-.48,2.5-.39,4.98.1,2.75-.18,7.25-.12,10,.03,1.37.69,1.35.72,2.72.06,2.75-.08,7.25-.21,10-.04.83-.5.81-.54,1.64-.13,2.75-.25,7.27-1.2,9.85-.76,2.08-.89,2.03-1.65,4.11-.93,2.73-4.12,5.89-5.89,8.03-1.94,1.94-5.25,4.9-7.69,6.17-1.39.73-1.21,1.06-2.6,1.79-2.44,1.28-6.76,2.67-9.34,3.62-3.62,1.34-3.71,1.07-7.33,2.41-2.58.95-5.86,3.89-7.7,5.94-.12.13-.45-.17-.57-.04-1.84,2.05-2.79,5.99-2.79,8.65s-.78,5.66-.78,6.64,1.76,3.32,3.36,5.3c3.89,4.62,6.84,5.97,13,5.25.05,0,.02-.17.08-.18,2.71-.45,7.16-1.28,9.73-2.25,4.87-1.84,4.66-2.4,9.54-4.23,2.57-.97,6.75-2.6,9.18-3.87,1.38-.73,1.18-1.12,2.56-1.84ZM1587.99,2130.63c.69-5.84,1.04-5.8,1.72-11.65.32-2.73-2.02-5.21-4.75-5.55-8.47-1.31-14.22-2.12-22.73-3.14-5.69-.71-5.74-.32-11.44-1.03-2.73-.34-5,1.48-5.51,4.18-.17.87-.33.84-.49,1.72-.51,2.7-1.41,7.11-1.76,9.83-.76,6.03-.95,6.01-1.7,12.03-.76,6.03-.2,6.1-.96,12.13-.76,6.03-1.42,5.95-2.18,11.98-.76,6.03-.11,6.11-.86,12.14-.76,6.03-.94,6.01-1.7,12.04-.76,6.03-1.33,5.96-2.09,11.99-.76,6.03-.49,6.06-1.25,12.09-.76,6.03-.85,6.02-1.61,12.06s-.29,6.09-1.04,12.13c-.34,2.73-1.24,7.15-1.54,9.89-.69,6.2-.28,6.24-.96,12.44-.69,6.2-1.41,6.12-2.1,12.31-.69,6.2-.73,6.19-1.42,12.39-.69,6.2-.06,6.27-.75,12.46-.69,6.2-1.1,6.15-1.79,12.35-.86,9.29-1.4,15.56-2.42,24.83-.69,6.2-.93,6.17-1.62,12.38-.75,7.57-1.61,14.02-2.54,21.5-1.09,8.66-1.78,14.49-2.8,23.14-.71,5.79-.14,5.86-.94,11.64-.8,5.78-1.31,5.71-2.02,11.5-.33,2.73,1.93,4.83,4.67,5.03,5.87.43,5.84.75,11.71,1.18,5.87.43,5.9.05,11.77.48,5.87.43,5.81,1.26,11.68,1.69,2.74.2,5.45-2.29,5.72-5.03.63-6.33.07-6.39.7-12.72.63-6.33,1.32-6.27,1.94-12.6.63-6.33.14-6.38.76-12.71.63-6.33,1.2-6.28,1.83-12.61.63-6.34-.12-6.41.5-12.75.63-6.33,1.36-6.26,1.98-12.6.63-6.34.26-6.37.89-12.71.63-6.34.88-6.31,1.5-12.65.27-2.74.1-7.3.53-10.01.89-5.68,1.4-5.6,2.3-11.27.89-5.68.82-5.69,1.71-11.37.89-5.68,1.19-5.63,2.08-11.31.89-5.68.66-5.72,1.55-11.4.89-5.68.38-5.76,1.27-11.44.43-2.72,1.95-7.05,2.27-9.78.69-5.84-.04-5.93.65-11.77.69-5.84.62-5.85,1.31-11.69.69-5.84,1.04-5.8,1.73-11.64.69-5.84.34-5.88,1.02-11.72.69-5.84,1.03-5.8,1.71-11.64.69-5.84.57-5.85,1.26-11.69.69-5.84.99-5.81,1.68-11.65,1.12-8.73,1.71-14.62,2.53-23.39ZM1632.83,2359.05c-7.31-.71-7.34-.44-14.65-1.15s-7.32-.56-14.63-1.27c-2.74-.27-5.1,1.45-5.47,4.18-.74,5.42-1.32,5.34-2.05,10.75-.74,5.42-.45,5.46-1.19,10.88s-.41,5.47-1.14,10.89c-1.14,7.67-1.66,13.99-2.33,21.62-.73,10.97-1.56,20.91-2.41,31.88-.36,5.1-.37,5.1-.73,10.19-.19,2.74,1.83,4.59,4.58,4.59,7.02,0,7.02.77,14.04.76,7.02-.01,7.02-.4,14.04-.4,2.75,0,5.2-2.21,5.45-4.95.53-5.94.82-5.91,1.34-11.85.53-5.94-.05-5.99.48-11.92.53-5.94.81-5.92,1.34-11.86s.95-5.9,1.48-11.84c.24-2.74.23-7.26.64-9.98.88-5.83.59-5.88,1.47-11.71.88-5.83,1.11-5.8,1.99-11.64.88-5.83.7-5.86,1.58-11.7.41-2.72-1.1-5.22-3.83-5.48ZM1772.55,1971.11c-.29-2.05-1.86-3.92-3.89-4.91,2.18-.38,4.03-2.36,4.03-4.64,0-6.16-.48-6.16-.48-12.32s.38-6.16.38-12.32-.6-6.16-.6-12.32.41-6.16.41-12.33c.07-7.87.37-14.39-.08-22.34-.39-5.29-1.27-5.22-1.66-10.51q-.39-5.29-.79-10.57c-.39-5.29-.02-5.32-.41-10.61-.39-5.29-.04-5.32-.44-10.61-.2-2.74-.96-7.21-1.07-9.96-.25-6.66-.33-6.65-.58-13.31-.21-9.97-.11-16.7-.46-26.67-.1-2.75-2.46-4.05-5.14-3.44-1.2.28-1.38-.51-2.57-.23-3.65.94-7.93,3.24-11.39,4.65-2.5,1.15-6.85,2.17-9.6,2.17-1.25,0-2.27,0-3.14-.02.83-.12,1.82-.23,3.13-.31,2.74-.17,6.73-1.04,9-2.08,2.27-1.04,3.62-3.78,3.37-6.52-.54-6.01.32-6.09-.22-12.1-.54-6.01-1.2-5.95-1.74-11.96-.54-6.01-.31-6.03-.85-12.04-1.27-12.64-2.47-23.37-3.4-36.04-1.08-12.67-1.94-23.43-3.1-36.09-.25-2.74-2.71-5.23-5.45-5.14-5.79.19-5.78.65-11.57.84-5.79.19-5.78.5-11.57.7-5.8.19-5.81-.13-11.61-.08-5.8.05-5.81-.21-11.61-.01-2.75.09-4.75,2.82-4.64,5.57.25,6.29-.36,6.32-.11,12.61.25,6.29.58,6.28.83,12.58.5,9.39.95,15.76,1.4,25.16.71,16.9.74,32.47,1.46,49.31-.22-2.17-.46-3.43-.64-7.31-.27-5.77-.05-5.78-.32-11.56-.27-5.77-.5-5.76-.77-11.54-.27-5.77-.22-5.78-.49-11.55-.27-5.77.07-5.79-.2-11.56-.27-5.77-.58-5.76-.85-11.53-.27-5.77.39-5.8.12-11.57-.27-5.77-.73-5.75-1-11.52-.27-5.78.35-5.8.09-11.58-.27-5.77-.92-5.74-1.19-11.52-.27-5.78.38-5.81.11-11.58s-1.17-5.74-1.44-11.51c-.13-2.75.61-7.29.46-10.04-.33-5.9-.36-5.9-.69-11.8-.33-5.9-1.13-5.86-1.47-11.76-.63-12.43-1.5-22.96-2.03-35.4-.33-5.9.31-5.94-.02-11.84-.33-5.9-.53-5.89-.86-11.8-.33-5.9-.88-5.87-1.22-11.77-.33-5.91.6-5.97.13-11.86-.47-5.9-1.05-5.86-1.38-11.76-.15-2.75-2.12-5-4.87-5-7.04,0-7.04-.21-14.08-.21s-7.04.37-14.08.37c-2.75,0-6.52,1.51-8.63,3.28-.04.04-.35-.33-.4-.29-2.1,1.77-3.54,5.59-3.43,8.34.24,6.02.31,6.02.54,12.04.18,12.69.77,23.47,1.48,36.14.24,6.03-.17,6.04.07,12.07.11,2.75.96,7.2,1.2,9.93.51,5.6.29,5.62.79,11.22.51,5.6.61,5.59,1.12,11.18.51,5.6-.02,5.65.49,11.25.54,7.38,1.18,13.7,1.47,21.17.26,5.9.62,5.89.88,11.79.26,5.91.74,5.88.99,11.79.26,5.9-.05,5.92.21,11.82.26,5.91.6,5.89.86,11.8.26,5.91-.36,5.93-.11,11.84.26,5.9.82,5.88,1.08,11.78q.26,5.91.5,11.81c.26,5.91-.24,5.93.02,11.84.26,5.91-.02,5.92.23,11.82.26,5.91,1.17,5.87,1.43,11.78s.03,5.92.29,11.83c.12,2.75,1.92,6.17,4.14,7.78.52.38.19.83.71,1.21,7.4,4.9,14.59,1.89,22.78,1.81q6.77-.27,13.53-.52c2.57-.1,4.54-2.08,4.68-4.58.27,3.01.63,4.16.82,8.93.11,2.75,2.11,4.73,4.86,4.57,5.49-.33,5.48-.41,10.97-.74.12,0,.22-.01.33-.02-1.93.2-3.29.4-6.93.59-5.83.29-5.81.7-11.65.87-5.84.17-5.85-.22-11.68.07-2.75.14-5.04,2.87-4.99,5.62.1,6.48.65,6.47.75,12.94.1,6.48-.57,6.49-.47,12.97.1,6.48.27,6.47.37,12.95.1,6.48.53,6.47.63,12.96.1,6.48-.18,6.49-.08,12.97.04,2.75,2.27,5.22,5.01,5.06,5.85-.33,5.81-1.03,11.66-1.37,2.75-.16,5.7-2.08,6.45-4.72q1.56-5.48,3.11-10.97c1.56-5.48,1.66-5.45,3.22-10.93,1.56-5.48,1.11-5.61,2.67-11.1,2.08-7.21,3.75-13.31,6-20.55,1.96-6.39,2.53-6.21,4.5-12.6.59-1.93-.3-3.86-1.9-4.7,1.01.03,2.21.03,3.99-.08,1.27-.08,2.24-.14,3.05-.19-.95.71-1.74,1.57-2.19,2.51-3.06,6.37-2.94,6.44-6,12.81-2.94,6.93-3.9,13.13-5.78,20.31-1.41,5.4-2.07,5.23-3.48,10.64-1.41,5.41-1.25,5.45-2.66,10.86-1.41,5.41-1.55,5.37-2.96,10.78-.69,2.66-1,7.17-1.07,9.92-.13,5.58-.5,5.58-.63,11.16-.13,5.58-.24,5.58-.37,11.17-.13,5.59-.03,5.59-.16,11.18-.13,5.59.39,5.6.25,11.19-.13,5.59.1,5.59-.03,11.18-.13,5.59-.5,5.58-.63,11.17-.13,5.59-.37,5.58-.5,11.18-.06,2.75,2.35,5.24,5.1,5.41,5.39.33,5.42-.15,10.81.19,5.39.33,5.34,1.11,10.74,1.45,4.45.27,5.23.38,8.39.6-.1,0-.2.01-.32.01-2.75,0-7.25-.07-10-.07-1.19,0-1.19-.29-2.39-.29-2.75,0-5.79,2.43-6.7,5.02-1.79,5.09-1.94,5.03-3.72,10.12-.91,2.59-2.28,6.89-3.51,9.35-2.75,5.52-6.16,10.45-5.76,16.93.34,4.73.74,4.7,1.08,9.43.2,2.74,2.11,5.34,4.86,5.51,5.48.34,5.49.07,10.97.35,5.48.28,5.49.24,10.96.58,2.55.16,5.48-1.3,6.37-3.66-.3,2.48,1.02,4.75,3.57,4.92,3.1.21,4.39.33,5.98.47-3.17-.12-4.53-.07-9.68-.38-2.75-.16-5.56,1.41-5.98,4.12-.92,5.94-.69,5.97-1.61,11.91s-1.12,5.91-2.04,11.84c-.92,5.93-.25,6.04-1.17,11.97-.92,5.94-1.7,5.81-2.62,11.75-.92,5.93-.43,6.01-1.35,11.94-.92,5.93-1.52,5.84-2.44,11.77-.92,5.93-.95,5.93-1.87,11.86-1.27,8.88-2.01,14.91-3.24,23.8-.92,5.93-.4,6.01-1.32,11.95-1.19,7.52-2.39,14.73-3.63,21.92.02-1.04.09-2.27.31-4.15.63-5.39,1.11-5.34,1.74-10.73.63-5.39.52-5.4,1.15-10.79.63-5.39.3-5.43.94-10.82.63-5.39,1.26-5.32,1.89-10.7.32-2.73.56-7.23,1-9.94.92-5.68,1.3-5.62,2.22-11.29.92-5.68.21-5.79,1.12-11.47.92-5.67,1.05-5.65,1.97-11.33.92-5.68.73-5.71,1.65-11.38.92-5.67,1.56-5.57,2.48-11.24,1.53-9.27.52-16.26.41-25.46,0-2.75-2.11-5.54-4.83-5.93-5.05-.72-5.04-.77-10.1-1.42-5.06-.65-5.1-.35-10.14-1.08-5.04-.72-5.02-.87-10.07-1.59-2.72-.39-4.92,1.11-5.06,3.37-.08,1.3-.61,3.09-1.28,4.84.53-4.88-1.2-10.17-3.91-14.07-2.16-2.78-1.87-3-4.03-5.78-1.69-2.17-4.29-5.07-5.73-6.37-1.44-1.3-4.82-2.45-7.21-2.56-2.39-.1-6.47.88-8.97,2.03-1.5.69-1.58.51-3.08,1.2-2.5,1.15-6.01,4-8,5.89-.78.74-.49,1.05-1.27,1.79-2,1.89-5.5,4.77-7.09,7.01-1.63,2.3-1.11,2.67-2.75,4.98-1.59,2.24-5.39,3.93-8.14,3.93-2.91.13-6.77.99-8.83,2.13-1.85.96-3.34,3.57-3.34,6.32,0,4.98-.64,4.98-.64,9.96,0,2.75.52,7.25.52,10,0,1.04-.27,1.04-.27,2.07,0,2.75-.06,7.25-.06,10,0,.45.59.45.59.91,0,2.75.92,6.85,2.77,8.89.94,1.05,1.23.78,2.18,1.83,1.84,2.04,5.14,4.28,7.44,4.28s6.4-.12,9.1.39c.54.1.59-.12,1.13-.01,1.52.29,3.58.67,5.59.89-2.02.19-4.05.3-5.74.09-3.56-.44-3.53-.67-7.09-1.1-2.73-.33-5.2,1.5-5.78,4.19-1.45,6.76-1.67,6.72-3.12,13.48-2.33,10.07-3.76,16.92-5.72,27.06-.58,2.69.63,6.27,2.58,8.22,1.13,1.13.64,1.58,1.71,2.78,1.94,1.94,6.16,3.39,8.91,3.39.13,0,.13-.66.26-.66,2.75,0,5.95-.09,6.94-.96.99-.87,2.05-3.97,2.82-6.61.6-2.22,1.27-4.34,1.93-6.44-.43,1.99-.52,3.13-1.52,6.56-.77,2.64-2.02,7-2.02,9.75,0,6.19.08,6.19.08,12.38s.02,6.19.02,12.38.18,6.19.18,12.38.39,6.19.39,12.38c0,2.71,1.99,4.8,4.61,4.26-1.09.32-2.38.67-4.42,1.15-5.63,1.34-5.82.52-11.45,1.86-2.68.63-4.76,3.74-5,6.48-.52,5.9-.47,5.9-.99,11.79-.51,5.9-1.06,5.85-1.58,11.74-.52,5.9.14,5.95-.37,11.85-.52,5.9-1.21,5.84-1.72,11.73-.52,5.9.03,5.94-.49,11.84-.51,5.9-.42,5.9-.94,11.8-.52,5.89-.87,5.86-1.38,11.76-.52,5.9-.25,5.92-.77,11.82-.52,5.9-1.01,5.85-1.53,11.75-.52,5.9.01,5.94-.5,11.84q-.52,5.9-1.13,11.79c-.63,5.89-1.02,5.85-1.53,11.75-.24,2.74,2.21,4.8,4.94,5.13,6.17.75,6.1,1.32,12.27,2.06,6.17.75,6.24.18,12.41.92,9.2,1.25,15.45,2,24.68,3.01,6.17.75,6.08,1.54,12.25,2.29,2.73.33,5.03-2.01,5.48-4.73,1.02-6.12,1.17-6.09,2.18-12.21,1.39-9.15,2.33-15.37,3.89-24.49,1.02-6.12,1.66-6.01,2.68-12.13,1.02-6.12,1.17-6.09,2.19-12.21,1.02-6.12.6-6.19,1.62-12.3,1.02-6.12.75-6.16,1.77-12.28,1.02-6.12,1.43-6.05,2.44-12.17,1.02-6.12.65-6.18,1.67-12.29,1.02-6.12.81-6.15,1.83-12.27.75-4.52,1.19-5.66,1.78-8.41-.11,1.04-.27,2.29-.55,4.07-.92,5.93-1.01,5.92-1.93,11.85-.42,2.72,1.31,4.96,4.06,4.96,8.54.03,14.32-.05,22.87-.24,5.71,0,5.71-.03,11.43-.03,2.75,0,5.25-2.02,5.75-4.73.47-2.52.25-2.57.8-5.07.76-3.66,2.65-8.11,3.8-11.63.87-2.61,1.63-7.09,1.59-9.84-.06-3.72-.88-3.7-.94-7.42,0-4.16,1.87-8.89,2.46-12.96.75-2.65,1.61-7.03,2.01-9.75.99-6.65,1.32-6.6,2.32-13.25s.8-6.68,1.79-13.33c.99-6.65,1.27-6.6,2.26-13.25.99-6.65.4-6.74,1.39-13.38.41-2.72,1.59-7.11,1.83-9.84.55-6.25.44-6.26.99-12.52.55-6.25.84-6.23,1.39-12.48.55-6.25-.25-6.32.3-12.57.55-6.25,1.1-6.2,1.65-12.46.55-6.25-.07-6.3.48-12.55.24-2.74.68-6.16.15-7.53-.53-1.37.04-4.27,1.37-6.67.49-.88-.08-1.19.41-2.07,1.33-2.41,2.78-6.42,2.49-9.15-.19-1.79-.41-1.76-.6-3.55-.29-2.73-2.79-4.62-5.54-4.78-1.71-.1-3-.19-4.07-.28.36.02.73.05,1.15.08,2.74.18,5.82-2.29,7.14-4.7.81-1.48,1.06-1.34,1.87-2.83,1.32-2.41,3.16-6.52,3.72-9.21.99-4.78.19-4.95,1.27-9.71,1.08-4.76,1.7-4.62,2.69-9.4.56-2.69.9-7.14,1.25-9.79s.09-6.77-.26-9.24ZM1802.32,1438.34c.26-6.84.48-6.83.75-13.67.11-2.75-1.14-6.65-3.36-8.27-2.54-1.85-2.96-1.27-5.5-3.12-2.22-1.62-6.17-3.16-8.87-3.69-5.51-1.09-5.48-1.23-10.98-2.32-5.51-1.09-5.53-.95-11.04-2.05-5.51-1.09-5.34-1.94-10.85-3.03-11.68-1.88-21.51-3.97-33.13-6.19-2.7-.53-4.63,1.31-4.7,4.06-.18,6.62-.07,6.62-.24,13.24-.18,6.62-1,6.59-1.17,13.21-.18,6.62.4,6.64.23,13.26-.18,6.62-.59,6.61-.76,13.23-.07,2.75,2.23,5.67,4.91,6.28,6.24,1.42,6.39.77,12.64,2.19,7.83,1.9,14.02,4.3,22.25,4.27,5.58,0,5.58.38,11.16.38s5.58-.38,11.16-.38c2.75,0,7.22-.27,9.96-.5,5.15-.51,11.67.12,15.14-4.26,1.38-2.04,2.69-6.18,2.79-8.93.26-6.84-.63-6.88-.37-13.72ZM1808.97,1247.81c6.43-1.16,6.53-.57,12.96-1.73,6.43-1.16,6.33-1.69,12.76-2.85,6.42-1.16,6.47-.88,12.89-2.04,7.98-1.1,14.52-.65,22.47-.92,6.29-.09,6.28-.79,12.57-.88,6.28-.09,6.29.16,12.57.07,2.75-.04,7.25.13,10,.09,7.25-.12,7.23-.76,14.48-.88,7.25-.12,7.25.34,14.5.22,2.75-.05,6.92-1.33,8.98-3.15,5.34-4.74,5.12-4.99,10.45-9.73,2.06-1.83,4.17-5.6,4.17-8.35,0-2.39-.46-2.39-.46-4.79,0-2.75-.56-7.18-1.14-9.87-1.28-5.87-.96-5.94-2.24-11.81-.59-2.69-2.17-6.92-2.97-9.55-1.82-5.95-1.43-6.07-3.24-12.01-1.82-5.95-1.68-5.99-3.5-11.94-1.82-5.94-2.48-5.74-4.3-11.68-1.82-5.94-1.06-6.18-2.88-12.12-.8-2.63-2.29-6.91-3.29-9.47-2.3-5.84-2.93-5.6-5.23-11.44-2.3-5.84-2.56-5.74-4.86-11.59-2.3-5.84-2.04-5.94-4.34-11.78-1.01-2.56-3.81-5.35-6.43-6.2-5.7-1.84-5.57-2.23-11.27-4.07-5.7-1.84-5.75-1.67-11.45-3.51-5.69-1.84-5.77-1.6-11.46-3.44-2.62-.85-6.94-2.08-9.64-2.57-6.88-1.27-6.89-1.17-13.77-2.43-6.88-1.27-6.86-1.34-13.74-2.61-6.87-1.27-6.97-.75-13.84-2.02-2.7-.5-7.08-1.45-9.83-1.45-6.96,0-6.96.4-13.92.4s-6.96-.43-13.92-.43-6.96-.01-13.91-.01c-2.75,0-6.81,1.53-8.6,3.62-2.79,3.26-2.57,3.46-5.36,6.72-1.79,2.09-3.6,6.14-3.6,8.89,0,5.56.93,5.56.93,11.13s-.67,5.56-.67,11.13c0,2.75.7,7.25.7,10,0,6.74-.49,6.74-.49,13.47s.06,6.74.06,13.47-.29,6.73-.29,13.46c0,2.75-.67,7.09-1.42,9.73-1.31,4.6-.82,4.74-2.14,9.34-1.87,7.35-1.82,13.81-2.58,21.24-.47,5.74-.59,5.73-1.06,11.47-.22,2.74-1.27,7.15-1.6,9.88-1.08,8.81-.63,8.87-1.71,17.68-.33,2.73.36,6.99,1.13,9.62.27.92-.47,1.13-.2,2.05.78,2.64,3.87,5.54,6.58,5.97,3.46.55,3.49.42,7,.7,2.72.43,7.08,0,9.75-.67,2.96-1.18,7.77-1.41,10.95-1.48,9.29.03,16.17.96,25.43-.87ZM1949.32,1361.26c.15-8.87.31-14.89.52-23.76.11-5.94.78-5.93.89-11.87.05-2.75-2.49-5-5.21-5.44-6.78-1.1-6.76-1.18-13.54-2.28-10.1-1.79-16.95-2.94-27.09-4.46-2.71-.44-7.15-.73-9.9-.73-4.5,0-4.5-.55-9.01-.55s-4.5.2-9.01.2c-2.75,0-4.78,2.3-4.95,5.05-.36,5.94-.28,5.95-.64,11.89-.22,3.68-.55,5.07-.84,7,0-1.28-.02-2.56.14-5.11.17-2.75-1.79-4.79-4.54-4.87-4.18-.13-5.37-.22-7.85-.33,2.48.03,3.68,0,7.86.12,2.75.08,5.05-2.15,5.15-4.89.36-11.06.84-18.55,1.33-29.61.1-2.75-2.18-5.57-4.9-5.94-7.12-.98-7.09-1.17-14.21-2.15-4.06-.47-8.73,1.56-12.12,3.64-2.41,1.33-4.74,4.67-5.26,7.37-.87,4.49-1.39,4.39-2.26,8.89s-.85,4.5-1.72,8.99c-.68,5.93,4.51,12.57,10.62,12.89,4.8.15,5.66.35,9.05.52-3.4-.02-4.27.19-9.07.04-2.75-.08-5.97,1.38-7.25,3.81-3.29,6.3-3.51,6.18-6.81,12.48-1.27,2.44-1.02,6.47.47,8.78,2.78,4.33,3.18,4.07,5.96,8.4,1.23,1.91,3.54,4.14,5.85,5.03-2.38.14-4.9,1.08-6.23,2.35-1.61,1.54-3.47,4.87-4.2,7.52-.49,1.77-.57,1.74-1.06,3.51-.74,2.65-2.01,6.97-2.57,9.66-.45,2.17-.39,2.19-.84,4.36-.56,2.69.28,6.76,1.7,9.12,4.61,7.66,4.79,7.56,9.4,15.22,1.42,2.36,4.51,5.02,7.01,6.17,1.8.83,1.64,1.17,3.44,2,2.5,1.15,6.56,1.14,8.85-.38,4.65-3.1,4.49-3.35,9.14-6.45l-.49-.04c.2-3.26.41-4.64.62-6.3-.02.41-.05.84-.08,1.32-.17,2.74,2.2,5.24,4.87,5.9,6.08,1.48,5.94,2.03,12.01,3.61,6.06,1.58,6.1,1.44,12.19,2.93,6.08,1.48,6.2.99,12.28,2.47,6.08,1.48,6.13,1.29,12.21,2.77,6.08,1.48,6.01,1.78,12.09,3.27,6.08,1.48,6.14,1.21,12.22,2.7,2.67.65,5.03-.7,5.08-3.45.11-5.94.18-5.94.29-11.89.11-5.94-.56-5.96-.45-11.9.11-5.94.24-5.94.35-11.88.11-5.94.53-5.93.64-11.88.11-5.94-.2-5.95-.09-11.89.11-5.94-.18-5.94-.07-11.88ZM1885.14,1815.62c.02-8.19-4.34-15.71-11.23-19.84-6.58-3.77-16.42-3.9-23.08-.3-7.68,4.5-11.39,11.08-11.09,20.14-.06,7.56,4.8,16.26,11.07,20.16,15.1,7.88,34.13-2.78,34.32-20.16ZM2070.99,1775.6c-.45-6.3.34-6.36-.11-12.66-.2-2.74-.67-7.21-.72-9.96-.08-5.1-.47-5.09-.56-10.2.05-7-.16-13.15.52-20.19.59-7.2.99-7.17,1.58-14.37.23-2.74.21-7.26.37-10,.23-4.05-.16-4.07.06-8.13.15-2.75-1.68-5.31-4.43-5.35-6.48-.09-6.49.36-12.97.27-6.48-.09-6.48-.29-12.96-.38-2.75-.04-5.08,2.28-5.7,4.95-2,8.64-2.81,8.52-4.79,17.05,1.68-8.59,1.97-8.61,3.97-17.24.62-2.68-.63-5.45-3.16-6.55q-4.85-2.11-9.7-4.23c-4.85-2.11-4.77-2.28-9.62-4.39-1.56-.68-2.59-1.18-3.45-1.61,5.35,1.39,9.84-2.8,9.94-8.45,0-7.88-.06-7.88-.06-15.75,0-2.75-.32-6.57-1.28-8.51-.97-1.93-1.98-5.79-1.84-8.54.46-2.56-1.12-6.61-2.99-8.52-3.26-3.26-3.18-3.33-6.44-6.59-3.26-3.26-3.18-3.34-6.43-6.6-1.94-1.94-4.33-1.3-5.06,1.35-1.39,5.11-1.77,5.01-3.16,10.1.6-3.31.2-3.86,1.06-7.92,1.91-7.8,2.29-14.28,3.13-22.17.74-6.17.91-6.15,1.64-12.32.74-6.17.55-6.2,1.29-12.37.74-6.17,1.18-6.12,1.92-12.29.33-2.73.57-7.25.46-10-.22-5.54-.06-5.54-.28-11.08-.22-5.54-.74-5.52-.96-11.05-.22-5.54.16-5.55-.05-11.09-.22-5.54-.91-5.51-1.12-11.05-.22-5.54.57-5.57.35-11.11-.22-5.54-.45-5.53-.67-11.07-.11-2.75-1.93-6.59-3.87-8.53-.57-.57-.91-.22-1.48-.79-1.64-1.64-4.36-3.63-6.81-4.45,2.17-.33,4.02-2.15,4.73-4.32.08-.23.74-.02.82-.25,2.26-6.97,1.07-13.05.74-20.18-.17-2.74-.57-7.21-.48-9.96.18-5.12.55-5.11.73-10.23.18-5.12-.31-5.14-.13-10.26.1-2.75.57-7.23.78-9.97.48-6.35.26-6.36.74-12.71.48-6.35.56-6.34,1.04-12.69.48-6.34.15-6.37.63-12.71.37-4.91.66-6.01.99-9.19,0,.2-.01.39-.02.61-.19,6.13.6,6.15.41,12.28-.19,6.13-.1,6.13-.3,12.26-.09,2.75,1.59,4.8,4.34,4.8,5.94,0,5.94.32,11.88.38,5.94.06,5.94-.47,11.88-.47,2.75,0,6.45,1.55,8.47,2.67,2.02,1.13,6.12,1.49,8.82.98,6-1.12,6.04-.9,12.04-2.02,2.7-.51,4.53-3.62,4.59-6.37.15-6.03.85-6.01.99-12.05q.15-6.03.3-12.06c.15-6.03-.59-6.04-.44-12.07.15-6.03.54-6.02.69-12.05.15-6.03.18-6.03.33-12.05.15-6.03-.04-6.03.11-12.06.15-6.03.45-6.02.59-12.05.16-9,.44-15.1.84-24.1.15-6.03-.75-6.05-.61-12.08.15-6.03.46-6.02.6-12.05.15-6.03.46-6.02.61-12.04.15-6.03.19-6.02.33-12.05.15-6.03.04-6.03.19-12.06.15-6.03-.3-6.04-.16-12.06.07-2.75-1.79-4.87-4.54-5.01-6.43-.32-6.44-.15-12.86-.48-6.43-.32-6.41-.68-12.84-1-6.42-.32-6.43-.16-12.85-.48-6.42-.32-6.44-.05-12.86-.37-2.75-.14-5.31,1.51-5.4,4.26-.19,6.13-.34,6.13-.53,12.26-.19,6.13.07,6.14-.12,12.28-.19,6.13.25,6.14.06,12.27-.02.73-.05,1.36-.09,1.94,0-3.22-.21-4.36-.05-9.31.09-2.75-2.03-4.8-4.78-4.89-5.17-.16-5.18,0-10.35-.16-5.17-.16-5.16-.51-10.33-.67-5.17-.16-5.17-.25-10.33-.41-2.75-.09-5.68,1.45-6.65,3.35-.97,1.9-2.93,5.34-3.65,7.87-.72,2.54-.6,7-.6,9.75,0,5.45-.55,5.45-.55,10.9s.31,5.45.31,10.9-.37,5.45-.37,10.9c0,2.75.84,7.25.84,10,0,5.07-.62,5.07-.62,10.14s.26,5.07.26,10.14.34,5.07.34,10.13c0,2.75-.93,7.2-1.47,9.9-.57,2.88-.97,2.8-1.54,5.69-.53,2.7-.35,7.25-.41,10-.14,5.89-.04,5.9-.18,11.79-.14,5.89-.51,5.88-.65,11.78-.14,5.89.26,5.9.12,11.79-.14,5.89-.74,5.88-.88,11.77-.14,5.89-.36,5.88-.5,11.77-.14,5.89.05,5.89-.09,11.78-.14,5.89.27,5.9.13,11.79-.14,5.89-.67,5.88-.82,11.76-.14,5.89.06,5.89-.08,11.78-.14,5.89.05,5.89-.09,11.78-.07,2.75,2.1,5.18,4.83,5.57,1.85.27,3.04.49,4.04.69-1.71-.2-3.11-.34-6.42-.82-8.51-1.21-14.25-2.09-22.73-3.51-12-1.66-22.14-3.47-34.11-5.19-5.69-.83-5.76-.39-11.45-1.24-5.69-.85-5.68-.93-11.37-1.76-2.72-.4-5.05,1.59-5.09,4.34-.09,6.09.06,6.09-.03,12.18-.09,6.09.27,6.09.18,12.18-.09,6.09-.89,6.08-.98,12.16-.11,9.08-.02,15.28,0,24.36-.16,6.13-.26,10.94-.33,16.2-.67-1.92-2.65-3.19-4.86-3.29-6.54-.28-6.53-.61-13.08-.89-6.54-.28-6.56.08-13.11-.2-7.33-.31-14.24-2.75-21.16-.35-1.6.73-2.38,4-2.38,6.75,0,12.94.22,23.95.06,36.92,0,6.15-.59,6.15-.59,12.3,0,2.75-.07,7.25-.07,10,0,6.04.61,6.04.61,12.08s-.79,6.04-.79,12.08.76,6.03.76,12.07-.44,6.04-.44,12.07c.06,9.01.22,15.12.39,24.13,0,6.03-.03,6.03-.03,12.07s-.6,6.03-.6,12.07.6,6.03.6,12.07c-.12,9.01-.19,15.13-.14,24.14,0,2.75-.51,7.25-.51,10,0,5.65.63,5.65.63,11.3s-.2,5.65-.2,11.3.14,5.65.14,11.29c0,2.75,2.07,5.33,4.82,5.33,6.94,0,6.93-.68,13.88-.79,6.94-.11,6.95.37,13.89.37s6.94.44,13.87.44c2.75,0,4.94-2.6,4.98-5.35.08-5.91.06-5.91.14-11.83.03-2.12.06-3.48.1-4.62.07,1.47.14,2.99.1,5.92-.04,2.75.43,6.86,1.06,9.22.63,2.36,1.9,6.38,3.33,8.73,3.73,6.16,4.26,5.83,7.99,11.99,3.73,6.16,3.05,6.57,6.78,12.73,1.42,2.35,3.66,6.23,4.27,8.91,1.13,5.01.85,5.07,1.98,10.08.61,2.68,3.36,4.81,6.11,4.71,6.4-.24,6.38-.59,12.78-.83,6.4-.24,6.42.44,12.82.2,6.4-.24,6.38-.6,12.78-.84,6.4-.24,6.4-.17,12.8-.41,6.4-.24,6.38-.77,12.77-1.01,6.4-.24,6.44.69,12.84.45s6.37-1.02,12.77-1.26c2.75-.1,5.03-2.12,4.99-4.87,0-.65,0-1.22,0-1.75.18,1.76.39,3.25.39,6.65-.13.03-.24.05-.37.08h.37s0-.05,0-.08c5.06-1.14,5.29-.81,10.6-2.02,5.44-1.24,5.33-1.72,10.77-2.96,5.44-1.24,5.36-1.59,10.81-2.83q5.44-1.24,10.89-2.49c5.44-1.24,5.45-1.19,10.9-2.43,5.45-1.24,5.64-.41,11.08-1.65,5.45-1.24,5.45-1.22,10.9-2.46,2.68-.61,5.55-3.11,6.45-5.05,2.41-7.03.18-13.72-.12-21.09ZM2034.46,1692.75c.04-.19.1-.43.16-.69-.07.28-.12.51-.16.69ZM2123.47,1795.48c2.75,0,5.42-2.01,6.25-3.95.83-1.94,1.41-5.67,1.45-8.42.1-6.29.41-6.28.51-12.57.1-6.28.49-6.28.6-12.56.05-9.4.2-15.76.53-25.15.05-2.75-.37-7.26-.6-10-.59-6.92-.44-6.93-1.03-13.84-.23-2.74-1.23-7.17-2.28-9.71-.21-.52-.62-.35-.84-.87-1.05-2.54-2.17-6.75-2.78-9.26-.61-2.51-3.43-5.15-5.94-6.27-.78-.35-.83-.24-1.61-.59-2.51-1.12-5.51-1-7.06.6s-5.23,2.67-7.93,2.16c-4.77-.89-4.67-1.41-9.43-2.31-2.7-.51-7.07.2-9.77.73-2.92.57-3.04-.08-5.96.5-2.7.53-4.78,3.4-4.84,6.15-.14,5.99.16,5.99.03,11.98-.14,5.99-.57,5.98-.71,11.96-.14,5.99.06,5.99-.08,11.98-.14,5.99-.7,5.97-.83,11.96-.14,5.99.32,6,.18,11.99-.14,5.99-.08,5.99-.21,11.98.1,9.73.97,16.57,1.59,26.16.2,2.74,1.84,5.68,4.14,6.23,2.31.55,6.49,1.22,9.24,1.22,6.23,0,6.23-.48,12.46-.48s6.24-.31,12.47-.21c6.23.1,6.23.57,12.46.57ZM2239.63,2521.42c-5-1.69-4.95-1.81-9.95-3.5-4.99-1.69-5.17-1.17-10.16-2.86-7.41-2.65-12.4-4.55-19.84-7.13-2.6-.88-5.65.77-6.97,3.19-2.95,5.39-3.05,5.34-6,10.73-2.95,5.39-3.4,5.15-6.34,10.54-2.95,5.39-2.79,5.48-5.74,10.87-4.41,8.06-7.39,13.52-11.75,21.59-2.94,5.39-2.51,5.63-5.45,11.02-2.95,5.39-3.46,5.11-6.4,10.5-2.95,5.39-2.73,5.51-5.67,10.9-2.95,5.39-3.21,5.25-6.15,10.64-2.95,5.39-2.91,5.41-5.86,10.8-2.95,5.39-2.35,5.72-5.29,11.11-1.32,2.41-2.32,6.37-1.89,9.09.1.63-.12.66-.02,1.29.42,2.72,2.82,6.1,5.39,7.07,5.53,2.09,5.52,2.12,11.05,4.21s5.73,1.56,11.26,3.64c5.53,2.08,5.44,2.32,10.96,4.41,8.28,3.07,13.9,5.11,22.18,8.15,5.53,2.08,5.35,2.56,10.87,4.64,5.52,2.08,5.64,1.77,11.17,3.86,5.53,2.08,5.61,1.85,11.14,3.94,2.57.97,4.65-.36,4.98-3.09.76-6.2.5-6.24,1.35-12.43.85-6.19.89-6.18,1.65-12.38.76-6.2,1.1-6.16,1.87-12.36.76-6.2.72-6.21,1.48-12.41.76-6.2.51-6.23,1.27-12.43.76-6.2,1.4-6.12,2.16-12.32.76-6.2.67-6.21,1.43-12.41.76-6.2.16-6.27.92-12.47.76-6.2,1.36-6.12,2.13-12.32.76-6.2-.03-6.3.73-12.5.76-6.2,1.15-6.15,1.91-12.35.76-6.2.43-6.24,1.19-12.44.34-2.73-.99-5.91-3.59-6.79ZM2779.7,1538.79c-1.09-5.73-1.06-5.73-2.15-11.45-2.34-12.05-4.59-22.24-7.1-34.25-2.73-15.77-5.02-30.22-7.8-45.98-1.8-8.53-3.1-14.28-4.77-22.83-1.09-5.73-1.48-5.65-2.62-11.37-1.14-5.72-.86-5.78-1.95-11.51-.51-2.7-2.99-4.58-5.71-4.19-5.7.8-5.74.53-11.45,1.33-8.53,1.08-14.31,1.91-22.82,3.2-5.71.8-5.6,1.53-11.31,2.33-2.72.38-7.3.3-9.99.87-6.18,1.3-6.12,1.6-12.3,2.9-6.19,1.3-6.11,1.67-12.29,2.97q-6.19,1.3-12.37,2.61c-2.69.57-5.24,2.99-5.13,5.74.24,5.98,1,5.94,1.24,11.92.19,8.93.41,14.99.88,23.91.24,5.98-.36,6-.12,11.98.24,5.98.79,5.95,1.03,11.93.24,5.98-.23,6,.01,11.97.24,5.97.5,5.96.74,11.94.24,5.98-.11,5.99.13,11.97.24,5.98,1.03,5.95,1.27,11.92.24,5.98-.28,6-.04,11.97.24,5.98.14,5.98.38,11.97.24,5.98.83,5.96,1.08,11.94.11,2.75,1.99,4.73,4.69,4.21,5.72-1.1,5.63-1.54,11.35-2.64q5.72-1.1,11.44-2.18c12.12-1.9,22.39-3.79,34.39-6.2,5.72-1.1,5.62-1.6,11.34-2.7q5.72-1.1,11.44-2.21c5.72-1.1,5.85-.44,11.57-1.54,5.72-1.1,5.61-1.7,11.33-2.8,5.72-1.1,5.73-1.04,11.46-2.14,2.7-.52,4.67-2.88,4.15-5.58ZM3033.03,2252.35c-5.79-.12-5.8.11-11.59,0-5.79-.12-5.8.08-11.59-.04-5.79-.12-5.78-.64-11.57-.76-5.79-.12-5.81.62-11.6.5-5.79-.12-5.78-.54-11.57-.66-5.79-.12-5.8.34-11.59.23-5.79-.12-5.78-.49-11.58-.61-5.79-.12-5.8.26-11.59.14-5.79-.12-5.79-.18-11.58-.29-5.8-.12-5.78-.67-11.58-.79s-5.79-.26-11.59-.37c-2.75-.06-5.48,2.39-5.62,5.13-.3,5.93-.12,5.94-.43,11.87-.3,5.93-.03,5.94-.33,11.87-.3,5.93-.37,5.93-.68,11.86-.3,5.93.02,5.95-.29,11.88-.3,5.93-.58,5.92-.88,11.85-.3,5.93-.5,5.92-.8,11.86-.14,2.75,2.12,5.26,4.87,5.26,9.03.03,15.16-.13,24.19-.36,9.03-.03,15.16.04,24.19.18,12.74.03,23.55-.32,36.29-.47,12.75-.03,23.58.71,36.3.69,2.75,0,5.45-2.51,5.81-5.23.77-5.7,1.09-5.66,1.87-11.37.77-5.71.19-5.78.96-11.49.77-5.71,1.07-5.67,1.84-11.38q.77-5.71,1.54-11.41c.77-5.71.62-5.73,1.39-11.44.77-5.71,1.07-5.67,1.84-11.38.37-2.73-1.88-5.21-4.63-5.27ZM3172.87,1255.15c-.02-8.96-.64-15.03-.73-24,0-5.99.23-5.99.23-11.99s.45-6,.45-11.99-.14-5.99-.14-11.99-.69-5.99-.69-11.99c.12-8.95.27-15.03.32-23.98,0-5.99.03-5.99.03-11.99,0-2.75-2.18-5.21-4.93-5.34-5.62-.26-5.63-.03-11.25-.3-5.62-.26-5.63.04-11.25-.22-5.61-.26-5.61-.29-11.23-.56-5.62-.26-5.6-.53-11.22-.79-2.75-.13-4.96,1.87-5.05,4.62-.28,12.96-.75,23.93-1.08,36.85-.2,6.14-.64,6.13-.83,12.27-.2,6.14-.14,6.14-.34,12.28-.2,6.14.31,6.15.11,12.29-.2,6.14-.97,6.11-1.17,12.25-.2,6.14.4,6.16.2,12.3-.2,6.14-.65,6.12-.85,12.26-.09,2.75,2.39,4.89,5.14,4.89,6.1,0,6.1-.35,12.2-.35s6.1.48,12.2.48,6.1.17,12.19.17,6.1-.03,12.2-.03c2.75,0,5.47-2.4,5.47-5.15ZM3564.42,1618.47c-5.93-1.64-6.01-1.36-11.93-3-5.93-1.65-5.84-1.95-11.77-3.6-5.93-1.64-5.99-1.4-11.92-3.04-5.93-1.65-5.89-1.77-11.82-3.42-5.93-1.65-5.8-2.12-11.72-3.76-5.92-1.64-6.11-.97-12.04-2.61-12.43-3.66-23.01-6.69-35.5-10.11-5.93-1.65-6.04-1.26-11.97-2.91-5.93-1.65-5.91-1.71-11.84-3.36-2.65-.74-5.58.48-6.25,3.14-1.52,6.06-1.36,6.1-2.88,12.15-1.52,6.06-1.09,6.16-2.62,12.22-1.52,6.06-2.03,5.93-3.56,11.98-1.52,6.05-1.03,6.18-2.55,12.23-1.52,6.06-1.67,6.02-3.2,12.07q-1.52,6.06-3.05,12.11c-1.52,6.06-1.96,5.95-3.48,12-1.52,6.06-1.28,6.12-2.8,12.18-1.52,6.06-1.8,5.99-3.32,12.05-.67,2.67,1.39,4.51,4.14,4.51,5.79,0,5.79.33,11.59.33s5.79.3,11.59.3,5.79-.33,11.59-.33,5.79.61,11.59.61,5.79-.33,11.59-.33,5.79-.37,11.59-.37,5.79.32,11.59.32,5.79.32,11.59.32,5.8-.82,11.59-.82,5.79-.02,11.59-.02,5.79.71,11.59.8c5.8.08,5.8-.13,11.6-.13,2.75,0,5.43-2.46,6.12-5.12,1.52-5.85,1.97-5.73,3.49-11.57,1.52-5.85,1-5.98,2.52-11.83,1.52-5.85,1.46-5.86,2.98-11.71,2.26-8.73,3.89-14.62,6.33-23.33,1.52-5.85,1.69-5.81,3.21-11.66.69-2.66-1.05-5.57-3.7-6.3ZM1864.8,1549.15c-.12,1.12-.22,2.45-.25,4.51-.08,5.91.4,5.91.32,11.82,0,.26,0,.49-.01.72.16-1.27.31-2.73.34-5.17.09-5.98-.46-6.11-.4-11.88ZM1988.34,1772.08c.02-5.74.3-5.74.33-11.49s-.3-5.74-.28-11.49c.02-5.74.33-5.74.35-11.48.02-5.74-.65-5.74-.63-11.48.02-5.74.4-5.74.42-11.48.02-5.74.29-5.74.31-11.47.02-5.74-.69-5.74-.66-11.48.02-5.74.34-5.74.36-11.48.02-5.74.21-5.74.23-11.48,0-2.56,1.75-3.77,4.02-3.05-2.24-1.32-3.72-4.39-3.76-6.96q-.14-8.72-.53-17.44c-.04-2.75.79-7.07,1.51-9.72,1-3.65.86-4.82,1.21-7.04-.67,2.54-1.16,3.16-1.94,6.86-.57,2.69-.73,7.17-.8,9.92-.15,5.46-.65,5.45-.81,10.92-.15,5.46.3,5.48.15,10.94-.15,5.46-.57,5.45-.73,10.91q-.15,5.46-.3,10.93c-.08,2.75.3,7.25.34,10,.07,5.94-.46,5.94-.4,11.88.07,5.94.28,5.93.34,11.87.07,5.93.6,5.93.67,11.86.07,5.93-.47,5.94-.4,11.87.07,5.93.21,5.93.28,11.86.07,5.93.4,5.93.46,11.86.07,5.93-.43,5.94-.36,11.87.07,5.93-.13,5.93-.06,11.87.05,3.94.38,5.27.62,7.45.02-.85.03-1.85.03-3.13,0-6.1-.21-6.1-.21-12.2,0-2.75,2.1-6.27,4.26-7.97,1.23-.97,1.79-1.58,2.32-2.17-.73.34-1.48.72-2.7,1.69-2.16,1.7-3.66,1.21-3.65-1.54ZM2006.99,1758.32c1.87-3,3.7-5.89,5.45-8.99-.95,1.47-1.92,2.92-2.63,4.04-1.55,2.44-2.15,3.66-2.82,4.95ZM1862.93,1695.48c-.03,1.84,0,3.11.06,4.16.12-1.16.22-2.54.25-4.67.05-3.16-.15-4.69-.35-6.27.01,2.22.02,4.46.04,6.78ZM1864.25,1574.24c-.05.83-.09,1.8-.11,3.04-.05,3.35.09,4.8.21,6.51.02-4.25-.15-5.01-.1-9.55ZM1863.23,1658.43c0-.57.02-1.07.03-1.54-.07.85-.12,1.84-.14,3.13-.17,6.38-.24,12.27-.25,18.17.27-2.19.63-3.57.69-7.57.09-6.09-.42-6.1-.33-12.19Z"/>
</svg>