<?xml version="1.0" encoding="UTF-8"?>
<svg xmlns="http://www.w3.org/2000/svg" xmlns:xlink="http://www.w3.org/1999/xlink" viewBox="0 0 1200 675">
  <defs>
    <style>
      .cls-1 {
        fill: none;
        stroke: #000;
        stroke-linejoin: round;
        stroke-width: .5px;
      }
    </style>
  </defs>
  <g id="Layer_1" data-name="Layer 1">
    <image width="4000" height="2250" transform="scale(.3)" xlink:href="../../../../../../Desktop/Sebastia_drone_051225 Niklas Hart-4.jpg"/>
  </g>
  <g id="Brown">
    <polygon class="cls-1" points="389.73 237.23 368.08 239.79 363.89 176.83 376.81 177.7 387.52 178.63 387.29 208.31 388.34 213.78 389.73 225.07 389.73 237.23"/>
    <polygon class="cls-1" points="308.07 276.47 317.65 276.82 318.35 246.67 308.48 246.67 308.07 276.47"/>
    <polygon class="cls-1" points="269.8 254.53 252.4 250.36 258.34 226.16 275.67 230.19 269.8 254.53"/>
    <polygon class="cls-1" points="276.8 227.15 259.61 222.91 266.76 198.15 280.69 202.25 283.74 202.46 282.53 209.32 276.8 227.15"/>
    <polygon class="cls-1" points="295.69 199.98 284.3 202.11 284.02 174.87 294.77 173.74 294.98 188.38 295.69 190.5 295.69 199.98"/>
    <polygon class="cls-1" points="227.77 116.69 231.67 104.39 217.21 99.98 213.01 113 227.77 116.69"/>
    <polygon class="cls-1" points="411.97 355.39 413.36 328.45 407.42 325.29 405.19 325.29 404.54 326.69 401.84 325.76 394.41 326.87 395.34 341.27 394.41 347.68 394.41 354.56 411.97 355.39"/>
    <polygon class="cls-1" points="438.81 361.99 435.28 356.41 412.66 355.77 412.45 357.83 411.4 360.74 411.92 361.53 438.81 361.99"/>
    <polygon class="cls-1" points="402.64 387.8 402.97 355.39 395.57 355.04 395.17 388.13 402.64 387.8"/>
    <polygon class="cls-1" points="278.57 411.49 273.36 411.49 266.77 412.43 268.8 385.66 271.26 384.93 278.86 384.93 278.57 411.49"/>
    <polygon class="cls-1" points="261.48 340.72 250.98 342.72 246.91 318 257.94 315.7 261.48 340.72"/>
    <polygon class="cls-1" points="116.99 290.9 109.21 265.27 127.14 258.93 132.09 274.19 131.64 276.71 128.58 278.46 126.68 280.52 125.08 283.19 124.85 286.62 116.99 290.9"/>
    <polygon class="cls-1" points="435.06 442.65 425.27 440.91 417.38 440.53 422.08 415.49 439.84 418.67 435.06 442.65"/>
    <polygon class="cls-1" points="398.69 510.93 394.53 485.86 412.35 482.87 416.29 507.41 398.69 510.93"/>
    <polygon class="cls-1" points="364.12 540.15 366.59 510.27 356.88 509.26 354.77 540.15 364.12 540.15"/>
    <polygon class="cls-1" points="299.26 550.6 299.78 522.98 289.54 522.64 288.59 537.27 288.59 549.74 299.26 550.6"/>
    <polygon class="cls-1" points="237.95 478.16 228.31 475.77 234.69 452.24 244.71 454.85 237.95 478.16"/>
  </g>
  <g id="Green">
    <polygon class="cls-1" points="468.64 459.27 456.84 454.02 465.83 433.4 475.95 437.99 474.74 446.33 468.64 459.27"/>
    <polygon class="cls-1" points="346.45 224.73 345.24 212.66 365.99 208.31 366.95 222.68 346.45 224.73"/>
    <polygon class="cls-1" points="626.66 410.62 631.83 390.6 606.64 391.28 603.1 404.36 626.66 410.62"/>
    <polygon class="cls-1" points="679.06 484.4 679.37 464.42 669.57 464.12 669.57 484.4 679.06 484.4"/>
    <polygon class="cls-1" points="756.9 438.48 739.69 441.34 735.62 417.26 755.9 413.05 756.9 438.48"/>
    <polygon class="cls-1" points="692.3 298.45 693.92 284.92 715.7 285.74 715.7 298.45 692.3 298.45"/>
    <polygon class="cls-1" points="833.17 255.88 845.19 233.74 827.81 227.07 824.83 253.26 833.17 255.88"/>
  </g>
  <g id="Yellow">
    <polygon class="cls-1" points="320.57 403.54 322.35 387.05 312.93 386.6 311.53 403.54 320.57 403.54"/>
    <polygon class="cls-1" points="243.28 416.69 240.14 401.6 230.89 404.3 234.3 419.29 243.28 416.69"/>
    <polygon class="cls-1" points="366.8 459.9 357.9 459.2 349 459.2 349.82 449.6 359.84 450.07 367.91 450.54 366.8 459.9"/>
    <polygon class="cls-1" points="348.16 353.89 348.51 364.07 330.16 364.63 330.16 354.31 348.16 353.89"/>
    <polygon class="cls-1" points="414.65 378.38 415.41 361.59 404.89 361.59 404.55 378.38 414.65 378.38"/>
    <polygon class="cls-1" points="352.05 241.4 352.3 257.22 348.73 257.22 343 257.84 343 241.77 352.05 241.4"/>
    <polygon class="cls-1" points="299.69 239.52 302.14 226.16 292.16 224.13 289.66 237.89 299.69 239.52"/>
    <polygon class="cls-1" points="334.32 195.83 325.25 197.01 323.81 180.19 332.55 179.21 334.32 195.83"/>
    <polygon class="cls-1" points="242.89 474.54 245.28 465.9 262.26 469.88 260.11 479.2 242.89 474.54"/>
  </g>
</svg>