<?xml version="1.0" encoding="utf-8"?>
<!-- Generator: Adobe Adobe Illustrator 24.2.0, SVG Export Plug-In . SVG Version: 6.00 Build 0)  -->
<svg version="1.1" xmlns="http://www.w3.org/2000/svg" xmlns:xlink="http://www.w3.org/1999/xlink" x="0px" y="0px" width="4000px"
	 height="2250px" viewBox="0 0 4000 2250" style="enable-background:new 0 0 4000 2250;" xml:space="preserve">
<style type="text/css">
	.st0{fill:none;stroke:#000000;stroke-miterlimit:10;stroke-dasharray:0,0,0,0,0,0;}
</style>
<g id="Layer_1">
</g>
<g id="Red">
	<path class="st0" d="M671.94,408.44c-0.12-2.97,0-6.11-0.36-9.08c-0.19-1.55-0.27-3.05-0.27-4.61c-0.01-3.6,0.12-7.26,0.2-10.87
		c0.05-2.3,0.29-4.61,0.52-6.9c0.23-2.32,0.12-4.66,0.12-6.99c0-3.82-0.22-7.61-0.21-11.43c0.01-3.87-0.42-7.7-0.42-11.57
		c0-3.52-0.23-7.04-0.21-10.54c0.03-6.31-0.64-12.55-0.63-18.86c0.01-3.15-0.09-6.32-0.2-9.47c-0.06-1.69-0.31-3.15-0.01-4.83
		c0.21-1.16,0.37-2.37,0.17-3.56c-0.23-1.41-0.46-2.37,0.04-3.78c0.5-1.39,0.91-2.04,2.51-1.83c1.82,0.24,3.56,0.56,5.4,0.17
		c2.21-0.46,4.68-0.87,6.96-0.54c1.25,0.18,2.52,0.55,3.79,0.56c1.31,0.01,2.53-0.51,3.81-0.72c2.16-0.36,4.33-0.57,6.48-0.99
		c1.34-0.26,2.68-0.19,4.03-0.41c1.09-0.18,2.16-0.31,3.27-0.17c0.87,0.11,1.68,0.46,2.58,0.39c0.9-0.07,1.48-0.48,2.25-0.87
		c1.26-0.62,2.51-0.47,3.79,0.02c0.87,0.33,1.86,0.27,2.3,1.18c0.82,1.73,0.27,4.71,0.26,6.61c-0.02,2.4-0.58,4.72-0.8,7.1
		c-0.12,1.31-0.02,2.64-0.04,3.95c-0.02,1.54-0.35,3.02-0.63,4.54c-0.76,4.09-0.19,8,0,12.07c0.08,1.63,0.22,3.22,0.21,4.85
		c-0.01,1.59-0.19,3.3,0.13,4.85c0.33,1.56,1.01,3.05,1.3,4.63c0.35,1.92,0.32,3.9,0.52,5.84c0.25,2.47,0.62,4.87,0.96,7.31
		c0.25,1.77,0.04,3.73,0.04,5.52c0,2.02,0.21,3.99,0.21,6.01c0,2.14-0.17,4.37-0.01,6.51c0.16,2.18,1,4.21,1.33,6.36
		c0.42,2.74,0.55,5.55,1.07,8.26c0.56,2.93,0.67,5.91,0.39,8.87c-0.15,1.67,0.22,3.93-1.52,4.73c-5.34,2.46-11.42,0.94-16.81,3.06
		c-1.66,0.65-3.43,1.33-5.18,1.72c-1.37,0.31-2.7,0.25-4.08,0.61c-3.72,0.98-7.41,2.33-11.27,2.7c-1.57,0.15-3.27,0.25-4.85,0.24
		c-1.49-0.01-2.9,0.37-4.38,0.43c-0.85,0.04-1.7,0.02-2.53-0.16c-0.68-0.15-1.71-0.61-2.29-0.01
		C670.02,409.65,670.29,409.96,671.94,408.44z"/>
	<path class="st0" d="M643.61,512.11c-3.39-0.47-7.39-0.52-10.69-1.67c-2.29-0.8-4.7-1.44-7.13-1.46c-1.4-0.02-2.8-0.34-4.2-0.47
		c-1.69-0.16-3.26-0.88-4.93-1.01c-1.45-0.11-2.71,0.19-4.09-0.45c-2.33-1.07-4.64-1.88-6.49-3.7c-0.75-0.74-1.51-1.99-2.36-2.54
		c-1.09-0.71-2.87,0.09-4.06,0.18c-1.46,0.11-2.98,0.1-4.29-0.64c-1.26-0.71-2.18-1.59-3.59-2.04c-2.75-0.87-6.16-2.54-9.09-2.39
		c-1.29,0.06-2.43,0.77-3.73,0.88c-1.3,0.1-2.35-0.16-3.61-0.42c-1.64-0.34-3.44-0.26-5.04-0.61c-1.66-0.37-1.49-3.58-1.42-4.84
		c0.15-2.6,1.33-4.75,2.09-7.19c1.66-5.35,2.57-10.82,3.56-16.34c1.16-6.49,3.28-12.81,4.65-19.26c0.86-4.03,1.69-7.89,3.17-11.76
		c1.75-4.59,3.36-9.38,5.43-13.84c2.11-4.53,3.75-9.18,5.41-13.9c0.77-2.18,1.61-4.32,2.51-6.44c0.56-1.31,0.82-2.66,1.32-3.98
		c0.27-0.72,0.8-1.4,0.82-2.2c0.02-0.74-0.43-1.46-0.25-2.23c0.29-1.22,1.43-1.57,2.63-1.69c2.37-0.23,4.82,1.99,7.02,2.71
		c1.92,0.63,3.7,1.85,5.68,2.2c1.61,0.28,3.24-0.05,4.85,0.31c3.07,0.69,5.85,2.18,9.07,2.12c3.21-0.06,6.42,0.94,9.48,1.92
		c1.54,0.5,2.78,1.03,4.11,1.97c1.33,0.94,3.12,1.35,4.62,1.98c1.13,0.48,2.09,0.94,3.36,0.99c0.9,0.03,1.81-0.21,2.71-0.2
		c1.64,0.02,3.27,0.84,4.86,1.24c1.04,0.26,2.06,0.75,3.13,0.87c0.66,0.07,1.22,0.05,1.87,0.22c1.71,0.45,3.29,1.16,5.04,1.46
		c0.89,0.15,0.91-0.02,1.49,0.83c0.36,0.53,0.88,1.28,0.87,1.94c0,0.93-0.8,1.57-1.02,2.41c-0.2,0.78,0.03,1.41,0.34,2.13
		c1.2,2.77,1.59,6.01,0.39,8.84c-1.89,4.48-4.06,8.84-5.7,13.42c-0.91,2.54-1.26,5.2-2.05,7.78c-0.52,1.7-1.02,3.42-1.05,5.22
		c-0.05,3.07-0.21,5.87-1.08,8.84c-1.11,3.81-2.04,7.66-3.16,11.47c-1.16,3.95-2.09,7.8-2.89,11.85c-0.41,2.05-0.75,4.1-1.45,6.08
		c-0.68,1.93-1.45,3.78-2.02,5.75c-1.2,4.19-1.78,8.55-3.67,12.52C644.3,510.59,643.77,512.62,643.61,512.11z"/>
	<path class="st0" d="M564.16,509.38c-1.32,4.18-2.69,7.82-3.18,12.07c-0.19,1.6-0.58,3.12-1.02,4.67c-0.92,3.22-2.1,6.36-3.16,9.54
		c-2.18,6.57-4.66,12.82-6.38,19.55c-1.5,5.83-2.77,11.69-4.3,17.54c-1.52,5.78-1.92,11.98-3.03,17.86
		c-0.88,4.68-2.26,9.3-3.26,13.96c-0.3,1.4-0.75,2.98-0.57,4.42c0.16,1.28-0.28,0.77,1.22,1.27c2.88,0.96,5.67,1.85,8.72,1.83
		c3.8-0.02,7.48,0.48,11.24,0.78c2.1,0.17,4.23-0.21,6.33,0.06c1.84,0.24,3.73,0.88,5.5,1.43c3.93,1.23,7.7,3.06,11.66,4.14
		c1.31,0.36,2.59,0.25,3.88,0.51c2.05,0.42,3.47,1.34,5.69,1.11c3.7-0.39,6.33,0.34,9.99,1.13c2.77,0.6,5.52,0.71,8.05,2.01
		c1.1,0.57,2.2,1.91,3.42,2.1c1.67,0.26,1.26-0.42,1.51-1.81c0.35-1.94,0.4-3.74,0.39-5.72c-0.04-8.08,3.17-15.61,3.44-23.67
		c0.49-14.91,6.72-29.07,10.68-43.26c0.97-3.47,2.15-6.91,3.35-10.31c1.02-2.89,1.23-5.78,2.16-8.67c0.83-2.54,1.62-5.32,1.31-8
		c-2.05-0.27-4.07,0.01-6.15-0.41c-3.75-0.76-7.47-1.98-11.28-2.43c-3.99-0.47-7.77,1.16-11.87,0.92c-1.84-0.11-2.99-0.9-4.62-1.68
		c-1.73-0.83-3.13-0.98-5-1.36c-2.45-0.5-4.64-1.72-7.05-2.38c-2.2-0.6-4.45-0.82-6.66-1.38c-3.76-0.96-7.67-1.99-11.45-2.71
		c-3.33-0.64-6.78-1.58-10.19-1.59C563.72,510.9,563.94,510.9,564.16,509.38z"/>
	<path class="st0" d="M821.31,718.97c0.36-10.92,0-21.75,0-32.68c0-3.97,0.11-7.95,0.02-11.92c-0.09-3.88-0.88-7.66-0.86-11.56
		c0.03-5.28,0.87-10.48,0.84-15.74c-0.04-6.76,0.01-13.5-0.35-20.22c-0.33-6.1,1.73-12.29,1.6-18.47
		c-0.08-3.68-0.32-7.39-0.42-11.09c-0.06-2.02-0.48-3.12-2.48-3.4c-2.67-0.36-5.67-0.41-8.34-0.4c-4.85,0.02-9.74-0.24-14.55,0.31
		c-2.09,0.24-4.27,0.25-6.34,0.59c-1.25,0.2-2.43,0.84-3.71,0.81c-1.09-0.03-1.97-0.63-3-0.82c-1.24-0.23-3.27-0.45-4.02,0.84
		c-0.4,0.69-0.01,2.02-0.06,2.77c-0.15,1.96-0.45,3.83-0.43,5.82c0.04,4.44-0.41,8.86-0.41,13.32c0,5.34,0.3,10.67,0.74,15.97
		c0.75,9.21,0.47,18.48,0.5,27.74c0.04,11.4-1.24,22.77-1.24,34.14c0,4.06,0.41,8.05,0.41,12.13c0,3.65-0.41,7.45,0.48,11
		c8.4,0.26,16.95,0.9,25.43,0.88c3.4-0.01,6.62,0.84,10,0.83c1.97-0.01,4.09-0.42,5.61,0.88
		C820.5,720.39,820.31,720.06,821.31,718.97z"/>
	<path class="st0" d="M1188.15,664.91c-0.59-8.94-0.96-17.64-1.9-26.51c-0.67-6.27-1.34-12.53-1.87-18.81
		c-0.61-7.26-1.49-14.51-2.5-21.74c-0.95-6.78-0.68-14.09-2.68-20.66c-2.46-8.1-3.35-16.6-4.54-25.02
		c-1.1-7.75-0.07-15.25-0.11-23.01c-0.04-6.24,0.2-12.42,0.45-18.64c0.48-11.79,0.45-23.57,0.52-35.4c0.02-2.77-0.26-4.68-1.12-7.19
		c-1.05-3.09-0.83-6.02-0.84-9.27c-0.02-5.35,0.83-10.86,1.36-16.21c0.41-4.16-1.03-8.16-1.39-12.26c-0.26-2.99,0.52-6.31-2.97-7.39
		c-2.02-0.62-4.23,0.06-6.3,0.16c-2.65,0.12-5.25,0.44-7.91,0.48c-3.76,0.06-7.45,0.88-11.21,1.04c-3.65,0.15-7.06-1.18-10.67-1.56
		c-6.19-0.65-11.54-3.34-17.93-2.64c-7.33,0.8-14.19-2.51-21.54-1.7c-2.42,0.27-4.71,2.02-7.12,2.01c-2.16,0-4.35-1.33-6.57-1.51
		c-3.47-0.27-6.22,2.01-9.5,1.99c-1.12,5.18-0.31,10.44,0.02,15.68c0.28,4.38,0.3,8.87,0.95,13.23c0.69,4.62,2.68,8.86,3.11,13.53
		c0.73,7.94,1.22,15.88,1.81,23.8c0.36,4.8,0.91,9.64,1.47,14.43c0.64,5.43,2.33,10.73,2.37,16.2c0.15,17-0.71,34.6,2.9,51.23
		c1.43,6.6,2.2,13.33,2.42,20.08c0.28,8.65,2.47,16.81,1.91,25.58c-0.33,5.2-0.3,10.42,0.36,15.59c0.92,7.13,1.8,14.14,2.15,21.3
		c0.37,7.56,1.41,15.55,3.44,22.41c0.65,2.21,1.02,2.45,3.44,2.45c3.41-0.01,6.97-0.22,10.39-0.48c3.91-0.3,7.57-1.49,11.64-1.48
		c4.62,0.01,9.27,0.99,13.71-0.46c2.44-0.8,4.8-1.72,7.25-2.5c2.77-0.88,4.79,0.01,7.55,0.42c2.96,0.43,6.19,0.11,9.17,0.1
		c3.67-0.01,7.3,0.76,10.91,0.13c2.15-0.37,4.16-1.36,6.24-1.64c2.22-0.3,4.16,0.21,6.36-0.55c1.84-0.63,4.08-1.54,5.55-2.56
		C1187.78,666.97,1188.22,665.94,1188.15,664.91z"/>
	<path class="st0" d="M521.35,889.9c1.17,6.28,2.44,12.5,3.51,18.78c0.58,3.38,1.99,6.74,2.36,10.09c0.7,6.38,0.25,12.96,0.98,19.34
		c0.88,7.66,2.5,15.13,3.72,22.73c0.71,4.4,1.78,8.77,2.6,13.14c0.56,2.99,1.87,5.82,2.45,8.78c0.55,2.83,0.85,5.59,2.23,8.16
		c1.61,3.02,5.26,0.09,7.63-0.64c2.72-0.84,5.72,0.22,8.6,0.05c2.4-0.14,4.16-1.54,6.43-2.02c1.39-0.29,2.76-0.78,4.17-1.07
		c2.15-0.45,4.11-0.85,6.21-1.63c2.01-0.75,3.21-1.6,5.36-1.59c1.81,0.01,4.45-0.03,5.63-1.66c0.77-1.07,0.59-2.74,0.47-3.99
		c-0.33-3.41-1.5-6.88-2.63-10.08c-2.75-7.76-3.22-16.69-4.02-24.85c-0.82-8.37-3.9-16.73-3.94-25.12c-0.02-3.69,0-7.3-0.6-10.96
		c-0.51-3.12-1.71-6.07-2.05-9.23c-0.26-2.38,0.12-4.74-0.37-7.09c-0.41-2.01-0.97-3.92-1.59-5.85c-0.45-1.4-0.37-2.64-1.26-3.84
		c-1.13-1.53-2.33-1.28-4.11-1.27c-3.41,0.02-6.98-0.31-10.38-0.02c-4.26,0.36-7.53,3.38-11.77,3.56
		c-5.18,0.22-10.09,0.62-14.78,2.98c-1.64,0.83-3.32,1.25-4.85,1.9c-0.28,0.12-0.86,0.47-1.1,0.68
		C519.75,889.64,520.07,890.13,521.35,889.9z"/>
</g>
<g id="Green">
	<path class="st0" d="M954.86,502.69c1.64-0.25,3.28-0.42,4.93-0.55c4.89-0.4,9.65-1.89,14.54-1.96c3.91-0.05,7.71,0,11.6-0.47
		c2.67-0.32,5.34-0.5,8.02-0.76c2.57-0.25,4.8-1.17,7.29-1.66c5.74-1.13,11.52-0.44,17.24,0.12c2.17,0.21,4.82-0.22,7.12-0.99
		c0.85-0.29,1.33-1.23,1.02-2.07c-0.68-1.86-0.35-5.31-0.72-6.49c-0.9-2.84-2.12-5.19-2.59-8.2c-0.52-3.4-1.66-7.1-1.7-10.5
		c-0.03-3.11-0.56-6.18-0.81-9.3c-0.24-3.05-0.35-6.03-0.36-9.11c-0.01-3.69,0.78-7.85,0.67-11.74c-0.04-1.38-1.31-2.39-2.66-2.09
		c-0.01,0-0.02,0-0.03,0.01c-2.75,0.62-5.45,1.23-8.18,2c-2.76,0.77-5.66,1.52-8.47,1.98c-3.79,0.61-7.68-0.08-11.42,0.75
		c-3.76,0.84-7.33,2.19-11.15,2.82c-4.82,0.79-9.33,1.8-14.05,3.15c-4.26,1.22-8.5,2.25-12.71,3.5c-2.34,0.69-4.73,0.25-7.09,0.81
		c-1.44,0.34-2.76,1.08-4.2,1.39c-1.84,0.4-6.61,0.11-7.31,2.85c-0.21,0.83,0.49,1.43,0.77,2.16c0.54,1.41,1.03,2.86,1.41,4.32
		c0.86,3.28,0.87,6.73,1.61,10.07c1.27,5.69,2.9,11.31,4.1,17c0.69,3.24,1.25,6.46,2,9.69c0.1,0.45,0.23,0.98,0.33,1.55
		c0.3,1.71,1.86,2.89,3.58,2.67C949.8,503.36,952.5,503.06,954.86,502.69z"/>
	<path class="st0" d="M1482.22,1459.6c0.32-1.38,0.78-2.72,1.32-4.02c1.43-3.43,2.54-6.69,3.39-10.28
		c1.44-6.07,5.36-11.48,7.15-17.49c0.79-2.64,1.26-5.34,2.18-7.93c0.98-2.78,2.41-4.55,4.2-6.75c2.04-2.5,1.95-6.36,2.84-9.27
		c1.24-4.06,1.05-8.25,1.59-12.48c0.26-2.03,0.75-4,1.05-6.01c0.17-1.14,0.57-2.69,0.38-3.85c-0.43-2.55-1.6-3.54-4.03-3.52
		c-2.57,0.02-4.97-0.13-7.15-1.65c-1.08-0.75-1.82-1.93-2.89-2.66c-0.99-0.68-2.18-0.66-3.29-1.03c-1.34-0.45-2.52-0.9-3.92-1.19
		c-2.03-0.42-1.95-1.24-4.62-2.77c-2.65-1.52-5.64-2.35-8.69-2.5c-2.19-0.11-4.02-0.29-5.98-1.74c-0.08-0.06-0.16-0.13-0.25-0.19
		c-1.04-0.83-2.55-0.53-3.25,0.61c-0.37,0.6-0.84,1.16-1.18,1.76c-2.63,4.65-5.08,9.59-6.75,14.69c-1.5,4.56-4.89,8.03-6.51,12.57
		c-1.58,4.44-4.07,8.45-5.5,12.96c-2.68,8.44-7.35,15.83-11.01,23.85c-1.64,3.6-2.92,7.27-4.44,10.89c-0.39,0.94-1.33,2.78-1.89,4.4
		c-0.42,1.21,0.33,2.5,1.57,2.8c2.24,0.53,4.25,1.14,6.34,2.6c1.35,0.95,2.88,1.65,4.37,2.37c1.54,0.75,2.96,0.58,4.62,0.91
		c2.52,0.49,4.52,2.02,7.01,2.69c2.99,0.8,6.75,0.96,9.5,2.25c2.04,0.95,3.46,2.64,5.59,3.44c1.89,0.72,3.64,1.84,5.45,2.44
		c0.74,0.24,1.7,0.13,2.43,0.39c0.82,0.3,1.53,0.93,2.27,1.37c1.11,0.64,2.03,0.87,3.13,0.91c0.82,0.03,1.58-0.42,1.95-1.15
		C1480.05,1465.37,1481.6,1462.25,1482.22,1459.6z"/>
	<path class="st0" d="M2057.01,1188.8c-1.26,4.93-2.54,9.83-4,14.71c-1.32,4.42-1.69,9.07-2.63,13.59
		c-0.51,2.46-1.38,4.83-2.41,7.13c-1.03,2.28-1.68,4.53-2.39,6.92c-0.55,1.83-2.91,5.91-1.03,7.27c0.65,0.47,1.9,0.35,2.69,0.64
		c1.31,0.49,2.43,0.92,3.83,1.2c2.78,0.55,5.57,0.69,8.36,1.17c4.54,0.79,8.9,2.07,13.43,2.88c2.73,0.49,4.98,1.48,7.53,2.54
		c2.5,1.04,4.85,1.49,7.44,2.19c3.26,0.88,6.23,2.38,9.53,3.13c2.87,0.66,6.08,1.01,8.69,2.36c1.65,0.85,3.23,1.77,5.09,2.21
		c2.52,0.59,5.05-0.29,7.5,0.82c2.54,1.15,4.87,2.07,7.69,2.39c2.5,0.28,4.38,1.51,6.78,2.11c2.09,0.52,4.03,0.59,6.06,1.26
		c0.52,0.17,1.07,0.3,1.64,0.42c1.86,0.39,3.68-0.89,3.87-2.78c0.17-1.58,0.46-3.17,0.78-4.58c1.05-4.68,1.78-9.41,2.85-14.09
		c1-4.37,1.9-8.79,3.2-13.09c1.33-4.4,2.96-8.58,4.59-12.83c1.39-3.63,1.81-7.68,3-11.4c0.53-1.66,1.41-3.19,1.98-4.82
		c0.53-1.54,0.39-3.23,0.65-4.82c0.5-3.01,1.26-6.01,1.45-9.05c0.03-0.45,0-0.98-0.05-1.55c-0.14-1.95-1.95-3.3-3.87-2.93
		c-5.41,1.06-11.23,0.57-16.7,1.5c-4.17,0.71-8.23,0.61-12.5,0.61c-4.16,0-8.36,0.17-12.49-0.26c-8.71-0.92-17.51,0.68-26.24-0.1
		c-4.09-0.37-8.04-1.06-12.13-0.31c-3.32,0.61-6.37,0.03-9.65,0c-1.57-0.02-3.24-0.2-4.72,0.32c-1.59,0.56-2.8,0.68-4.48,1.03
		C2057.55,1185.17,2057.49,1186.93,2057.01,1188.8z"/>
	<path class="st0" d="M2412.56,800.89c5.71,0.06,10.11,0.74,15.45,1.34c2.51,0.28,4.99,0.06,7.49-0.25c2.7-0.34,5.63-1.13,8.35-1.15
		c3.4-0.02,6.68,1.05,10.14,1.03c4.81-0.03,10.45-1.78,15.13-0.88c1.23,0.24,2.7,1.02,3.91,1.46c3.29,1.19,5.94,1.35,9.56,1.34
		c3.85-0.01,7.7,0,11.55,0c2.64,0,5.7,0.44,8.3,0.02c1.68-0.27,2.38-1.24,3.7-2.05c1.92-1.18,2.75-0.9,2.9-3.25
		c0.24-3.54-0.63-6.84-0.13-10.44c0.61-4.35,1.08-9.08,0.64-13.48c-0.69-6.87,0.95-13.37,0.94-20.25c0-2.1,0.69-4.33-1.44-5.32
		c-1.63-0.76-4.49-0.53-6.32-0.92c-4.17-0.9-8.62-0.48-12.86-0.48c-5.29,0-10.58,0-15.86,0c-11.69,0-23.34,0.48-34.99,0.48
		c-4.66,0-9.33,0-13.99,0c-1.51,0-3.2,0.24-4.68,0.02c-1.24-0.18-2.05-0.72-3.37-0.43c-0.49,3.93-0.27,8.06-0.53,12.02
		c-0.2,3.03-0.96,6.01-0.99,9.05c-0.03,2.65,0.49,4.99,0.25,7.66c-0.5,5.42-0.14,11.58-1.48,16.83
		C2413.5,795.94,2413.34,799.32,2412.56,800.89z"/>
	<path class="st0" d="M2623.04,1388.65c6.5-0.99,12.79-2.01,19.21-3.28c3.49-0.69,6.97-1.69,10.49-2.22c6.6-1,13.28-1.31,19.88-2.75
		c3.62-0.79,7.27-1.47,10.87-2.3c2.11-0.49,4.16-1.47,6.3-1.82c2.34-0.38,4.73-0.99,7.09-1.13c0.48-1.59-0.87-5.08-1.33-6.61
		c-1.56-5.22-2.35-10.66-2.89-16.1c-0.98-9.8,0.47-19.85-0.4-29.68c-0.42-4.78,0.35-9.48,0.38-14.25
		c0.04-5.63-0.17-11.23,0.37-16.83c0.64-6.61-1.42-14.03-2.38-20.53c-5.78-1.47-12.89,0.39-18.63,1.84
		c-4.8,1.21-9.71,2.55-14.68,2.84c-5.5,0.32-9.86,1.8-15.1,3.41c-8.65,2.65-17.59,5.09-26.42,7.06c-2.57,0.57-4.89,1.52-7.57,1.58
		c-1.81,0.04-3.22-0.19-4.66,1.13c-0.94,0.86-1.74,2.36-1.61,3.73c0.15,1.55,1.65,3.38,2.35,4.72c1.19,2.28,2.01,4.18,2.42,6.75
		c1.3,8.25,1.57,16.58,4.79,24.34c1.41,3.39,1.65,7.14,2.51,10.7c0.91,3.78,1.8,7.63,2.29,11.49c0.43,3.41,0.85,6.38,1.93,9.6
		c1,2.98,0.38,6.45,0.45,9.58c0.05,2.66,0.58,5.45,0.94,8.06c0.29,2.11,0.43,4.75,1.11,6.77
		C2621.56,1387.13,2623.08,1390.35,2623.04,1388.65z"/>
	<path class="st0" d="M2330.24,1565.29c7,0.26,13.34-0.81,19.78,1.46c3.54,1.25,6.67,0.05,10.1-0.53c2.23-0.38,4.4,0.93,6.6,0.62
		c1.46-0.21,1.14,0.14,1.55-1.63c0.55-2.38,0.29-4.77,0.48-7.22c0.67-8.43,0.91-16.84,1.72-25.29c0.71-7.47-0.86-15.07-0.86-22.57
		c0-5.56,0.41-11.31-0.04-16.84c-0.3-3.77-0.08-7.71-0.5-11.45c-3.83-0.46-7.98-0.81-11.85-1.06c-4.86-0.31-9.2,1.69-14,1.97
		c-2.22,0.13-4.66,0.15-6.86-0.13c-1.2-0.15-2.44-0.65-3.71-0.4c-2.29,0.46-4.25,1.51-6.67,1.5c0.29,2.19,1.56,4.46,2.01,6.72
		c0.39,1.94,0.8,3.75,0.84,5.73c0.08,3.84-0.32,7.78,0.1,11.59c0.87,7.94,0.37,16.15,0.37,24.16c0,6.43,1.44,12.51,1.44,18.94
		c0,2.5,0.06,5,0,7.5C2330.68,1559.7,2329.48,1563.17,2330.24,1565.29z"/>
</g>
<g id="Yellow">
	<path class="st0" d="M445.35,1357.5c0.98,4.67,1.86,9.18,1.78,14.04c-0.03,1.81-0.05,3.62-0.02,5.44c0.09,4.3-0.32,8.56,0.53,12.79
		c1.22,6.1,2.75,12.52,4.94,18.35c1.08,2.88,2.29,5.19,2.95,8.27c0.89,4.1,2.38,8.36,4.3,12.08c1.16,2.23,2.46,4.45,3.39,6.75
		c0.53,1.3,0.65,4.26,1.8,5.12c1.33,0.99,2.12-0.14,3.45-0.83c2.77-1.42,5.83-2.7,8.93-3.21c3.78-0.62,7.76-0.87,11.43-1.85
		c3.48-0.94,6.65-2.8,10.13-3.78c3.12-0.88,5.97-0.76,9.1-1.15c3.01-0.37,5.89-2.07,8.81-2.97c2.46-0.76,4.73-1.82,7.2-2.52
		c3.15-0.9,6.21-0.94,9.33-1.66c12.23-2.83,25.65-3.95,36.82-9.87c4.78-2.53,0.68-7.34-0.47-11.52c-2.5-9.11-4.99-18.81-8.37-27.61
		c-1.54-4-1.25-8.53-3.45-12.17c-2.24-3.7-3.68-7.85-5.38-11.84c-2.86-6.67-3.1-14.36-4.87-21.28c-0.29-1.14-0.64-3.72-1.38-4.59
		c-0.93-1.09-3.01-1.02-4.54-0.75c-2.53,0.44-5.06,2.35-7.6,3.16c-3.59,1.15-7.52,1.93-10.99,3.33c-4.14,1.68-8.27,3.73-12.41,5.5
		c-4.6,1.97-9.01,2.54-13.79,3.86c-4.49,1.24-8.65,3.07-13.25,4.12c-4.6,1.05-9.17,1.07-13.75,2.05c-4.53,0.97-8.6,3.39-13.15,4.59
		c-2.44,0.65-4.03,0.98-6.18,2.24c-1.42,0.83-2.6,1.65-3.55,2.15C445.73,1354.42,445.03,1355.99,445.35,1357.5z"/>
	<path class="st0" d="M794.6,1371.34c2.2-14.57,3.09-29.58,2.17-44.37c-0.36-5.68-1.24-11.16-1.12-16.88
		c0.12-5.97,3.14-11.41,3.23-17.46c0.08-4.99-0.04-11.02,1.59-15.81c1.78-5.23,1.12-9.88,1.66-15.3c0.43-4.32,0.85-8.69,1.24-12.99
		c0.23-2.52,2.65-4.25,5.1-3.65c4.72,1.15,11.55,3.24,15.51,2.99c7.14-0.46,14.36-0.54,21.62-0.54c5.81,0,11.57-0.47,17.35-0.57
		c6.38-0.11,12.82,0.79,19.27,0.61c4.49-0.12,8.7-1.43,13.25-1.13c2.16,0.14,4.25,0.74,6.31,1.37c1.8,0.55,4.03,0.34,5.64,1.19
		c2.7,1.42,2.42,7.53,2.66,10.17c0.67,7.13-1.1,14.03-1.1,21.09c0,10.16-0.51,20.21-0.53,30.38c-0.02,10.07,0.99,20.07,1.07,30.18
		c0.05,6.67-2.83,14.08-4.25,20.59c-0.86,3.93-2.4,7.96-3.65,11.82c0,0.01,0,0.01-0.01,0.02c-0.59,1.91-2.38,3.18-4.37,2.92
		c-3.37-0.43-6.69-0.58-9.02-1.04c-8.34-1.64-12.64-1.22-20.95,0.16c-6.59,1.09-14.65-0.53-21.35-0.53
		c-6.45,0-12.81,0.53-19.27,0.53c-8.38,0-16.76,0-25.14,0C798.9,1375.08,790.87,1376.2,794.6,1371.34z"/>
</g>
</svg>
