<?xml version="1.0" encoding="UTF-8"?>
<svg xmlns="http://www.w3.org/2000/svg" viewBox="0 0 7179.59 4038.52">
  <g id="Brown">
    <g>
      <path d="M2199.35,1371.24s-.01,0-.02-.01c-.01.07-.02.15-.03.22l.05-.21Z"/>
      <path d="M2333.57,1415.8c.37-1.07,1.12-2.06.99-3.84-.6-8.32.63-16.75.77-25.11-.06-2.76-.13-5.52-.19-8.29-.16-2.74-.32-5.47-.49-8.22-.29-5.48-.57-10.98-.86-16.47-.57-10.99-1.14-21.97-1.71-32.86-.13-2.2-.19-4.37-.4-6.61-.22-2.21-.51-4.41-.96-6.59l-2.57-12.92-2.58-12.92-1.44-6.46-1.56-6.4-3.91-15.93c-.32-1.31-.68-2.68-.96-3.95-.27-1.3-.47-2.64-.63-3.97-.16-1.35-.24-2.62-.26-4.01l-.12-4.1-.49-16.4-.13-4.1c-.04-1.38-.1-2.71-.07-4.05.02-1.35.07-2.7.16-4.04.08-1.33.25-2.68.39-4.04l1.7-16.32.84-8.16c.22-2.74.35-5.51.53-8.26l.32-16.41c.07-5.47.27-10.92.17-16.42,0-3.14-.13-6.26-.22-9.38l-.3-9.36-.3-9.36-.07-2.34c-.01-.78.01-1.55.02-2.33l.06-4.66c.25-6.23.7-12.47,1.07-18.7l.6-9.35.16-2.34c.03-.37.04-.85-.02-1.27-.07-.44-.2-.86-.39-1.26-.39-.79-1.01-1.47-1.79-1.9-.38-.22-.81-.37-1.24-.46-.44-.1-.88-.1-1.25-.11-10.37-.4-20.87-.8-31.12-.99-8.35-.19-16.7-.62-25.02-1.04-4.16-.15-8.26-.71-12.34-1.58-4.09-.8-8.17-1.6-12.26-2.4-4.16-.79-8.32-1.58-12.47-2.37l-3.12-.58c-1.06-.19-2.12-.32-3.19-.41-2.11-.2-4.29-.24-6.39-.13-8.45.31-16.9.61-25.38.79l-4.03.1c-1.48.07-2.88.91-3.65,2.16-.39.62-.64,1.34-.69,2.08-.04.72-.03,1.36-.04,2.04l-.05,4.03-.17,16.13-.08,8.07c0,2.7.12,5.39.37,8.08.51,5.35,1,10.69,1.45,16.03l.91,11.01c.17,1.84.27,3.67.37,5.5.09,1.83.22,3.66.29,5.5l.65,22.09.17,5.52c.04,1.82.15,3.74.33,5.58.17,1.84.43,3.74.74,5.54l.88,5.45c1.18,7.27,2.39,14.52,3.64,21.76.61,3.47.93,6.96,1,10.52l.34,10.71.32,10.71.16,5.36c.04,1.78.24,3.6.36,5.4.2,3.64.71,7.15,1.13,10.7l1.31,10.64,1.33,10.64c.49,3.49.63,6.99.44,10.51-.39,8.98-.79,18.02-1.18,27.07-.05,1.11-.12,2.3-.08,3.47.04,1.16.12,2.31.25,3.47.12,1.13.32,2.35.57,3.44l.69,3.33c.9,4.45,1.81,8.89,2.71,13.34.59,2.94,1.26,5.88,1.93,8.85.32,1.48.71,3.01.94,4.46.22,1.49.35,3.02.36,4.56,0,.42-.02,1.2-.12,2.16-.09.99-.19,2.16-.23,3.28-.08,2.25.06,4.34.88,4.54.28-1.48.42-3.08.52-4.73.07-1.65.2-3.34.16-5.03-.06-2.67-.37-5.37-.98-7.96l-1.65-7.81-3.37-15.61c-.53-2.61-1.24-5.18-1.45-7.83-.12-1.32-.2-2.65-.18-3.98l.18-3.99c.25-5.32.53-10.64.85-15.97.22-3.66.45-7.33.68-11,.07-1.85.04-3.7-.07-5.55-.11-1.86-.37-3.68-.56-5.51-.82-7.31-1.67-14.58-2.61-21.76-1.52-10.93-1.41-22-1.84-33.05l-.26-8.29c-.08-2.79-.36-5.55-.78-8.31-.95-5.45-1.9-10.9-2.85-16.35-.84-4.68-1.65-9.39-2.41-14.09-.33-2.35-.57-4.73-.67-7.1l-.23-7.17-.4-14.36-.19-7.18c-.07-2.39-.24-4.8-.36-7.19-.52-7.61-1.28-15.16-1.96-22.74l-.54-5.68c-.17-1.9-.39-3.78-.49-5.64-.1-1.88-.17-3.77-.16-5.63l.06-5.7c.07-7.6.14-15.2.21-22.8,0-.45,0-1,.02-1.37.03-.38.12-.75.28-1.1.31-.71.88-1.3,1.56-1.66.34-.18.71-.3,1.09-.36.34-.04.89-.04,1.34-.06l2.85-.1,11.38-.38,14.65-.46c2.41-.12,4.81.05,7.2.35,1.18.15,2.36.41,3.57.63l3.6.69,14.39,2.76,7.19,1.38,3.61.69c1.22.22,2.44.39,3.67.54,1.22.15,2.45.27,3.69.35l3.66.19,7.32.38,14.64.72,7.33.27,7.32.18,14.65.31,3.45.07c.61,0,1.05.02,1.53.2.46.16.89.44,1.24.79.72.71,1.05,1.7.95,2.75l-.21,3.44-.86,13.78-.45,6.89-.22,3.44-.11,1.72-.04,1.73c-.04,2.31-.12,4.63-.12,6.93l.17,6.89.36,13.32.2,6.66.05,6.64c-.13,8.87-.25,17.75-.38,26.62,0,2.22-.16,4.43-.28,6.64l-.19,3.32c-.08,1.1-.21,2.21-.32,3.31l-1.34,13.25c-.43,4.42-.96,8.82-1.33,13.25-.33,4.44-.02,8.89.06,13.33l.37,13.96.2,6.98c.15,2.34.46,4.66.97,6.95,2.21,9.05,4.54,18.07,6.68,27.12.49,2.27,1.03,4.53,1.48,6.81l1.33,6.86,2.66,13.71c.43,2.29.94,4.56,1.24,6.84.32,2.3.53,4.57.62,6.91l.74,13.95c.37,6.16.73,12.35,1.1,18.52.33,6.18.64,12.34.81,18.47.09,3.19.22,6.38.36,9.58l.02,4.77c0,1.59.06,3.18-.04,4.78-.26,6.39-.56,12.76-1.11,19.07-.22,2.56-.24,5.15.14,7.12.23,1.2.46,2.54.88,1.31Z"/>
      <path d="M2197.73,1391.45c-.07,1.61-.02,3.25,0,4.88l.05,4.88.44,9.69.81,19.38.09,2.42c.02.38.01.83.12,1.29.1.45.27.89.53,1.28.51.79,1.37,1.34,2.29,1.51.46.08.92.07,1.37,0,.47-.08.81-.19,1.22-.29l9.41-2.34,9.42-2.31,4.71-1.14,2.36-.57c.76-.18,1.54-.32,2.33-.43,1.92-.26,3.85-.44,5.76-.39l5.89.12,11.77.2,5.89.1c1.97.09,4.01-.06,5.97-.33.99-.13,1.97-.29,2.96-.53l2.87-.71,5.73-1.39c3.22-.76,6.44-1.56,9.67-2.37l4.84-1.23c.82-.21,1.6-.42,2.39-.57.79-.16,1.6-.3,2.41-.41,1.63-.23,3.23-.39,4.88-.4l4.99-.11c3.33-.05,6.65-.09,9.96-.14,3.31-.02,5.79-.03,7.7-.08.97-.03,1.73-.05,2.5-.1.88-.08,1.57-.38,2.08-.73,1.02-.72,1.39-1.57,1.44-2.33.05-.76-.26-1.53-.89-2.11.02,1.35-1.15,2.74-2.57,2.94l-.27.03-.38.02-.76.04c-.51.02-1.01.05-1.52.07-1.02.04-2.05.08-3.09.11-6.51.2-12.79.04-19.15.24-.75.02-1.6.05-2.4.13-.8.07-1.59.17-2.38.28-1.56.23-3.16.52-4.7.95l-9,2.41-9,2.42-4.5,1.21c-.77.2-1.48.41-2.21.55-.73.15-1.48.28-2.24.38-1.51.2-3.02.35-4.52.33l-4.66-.05-9.31-.11-9.31-.14c-.77,0-1.55-.04-2.36-.02-.8.02-1.58.08-2.37.15-1.57.15-3.12.36-4.69.73-8.25,2.03-16.43,4.16-24.61,6.28l-1.53.4-.76.19c-.22.05-.45.08-.68.09-.9.03-1.79-.4-2.25-1.18-.24-.38-.38-.83-.42-1.29-.04-.48-.05-1.04-.08-1.56l-.14-3.16c-.16-4.22-.32-8.44-.48-12.67-.23-7.68-.94-15.29-.62-23.06.44-7.14,1.04-14.56.5-21.44-1.26,5.91-1.4,13.48-1.57,19.95Z"/>
      <path d="M2199.34,1371.26s-.05.2-.05.2v.05c.02-.08.03-.17.05-.25Z"/>
    </g>
    <g>
      <polygon points="1901.7 1619.46 1901.68 1619.45 1901.65 1619.56 1901.7 1619.46"/>
      <path d="M1842.74,1650.91c.37-.48,1.11-.89.98-1.73-.61-3.93.61-7.78.75-11.68.18-5.1.51-10.21.91-15.32.16-2.59.25-5.15.23-7.74-.03-2.56-.06-5.11-.09-7.65-.04-4.09-.15-8.18-.25-12.27-.1-4.09-.21-8.19-.12-12.26.02-2.54.09-5.08.17-7.63l.19-7.64.28-15.28c0-2.56-.07-5.13-.1-7.69-.07-2.56-.22-5.09-.33-7.64l-.78-15.27c-.13-2.91-.39-5.81-.39-8.69,0-1.44.02-2.89.09-4.33l.3-4.35c.42-5.8.88-11.61,1.46-17.41.12-1.2.25-2.41.37-3.62l.19-1.81c.03-.32.06-.59.11-.83.06-.25.14-.5.25-.73.43-.94,1.24-1.73,2.19-2.12.5-.21.93-.29,1.54-.31l1.8-.13c7.77-.62,15.55-.81,23.29-.94,7.89-.14,15.74-.56,23.64-.61h1.88c.65-.02,1.23-.06,1.75.1,1.08.27,1.95,1.18,2.19,2.27.13.55.07,1.1,0,1.74l-.18,1.87-.34,3.74c-.46,4.99-.93,9.98-1.56,14.93l-.66,5.11c-.21,1.7-.47,3.41-.61,5.14-.14,1.73-.25,3.45-.27,5.19v5.16c.05,6.86.15,13.73.43,20.57.15,3.33.18,6.64.24,9.96v9.98c-.02,6.65,0,13.32.1,19.97-.01,2.08-.03,4.17-.04,6.26-.03,2.1-.14,4.21-.22,6.32-.18,4.22-.4,8.45-.68,12.66-.19,2.79-.04,5.62-.34,8.54-.07.79-1.05,4.45.58,4.7.51-1.36.51-2.97.6-4.52.32-4.95.47-9.91.62-14.87l.26-7.44c.11-2.48.23-4.96.34-7.44.08-1.71.17-3.42.25-5.14l.12-5.14c.07-3.42.1-6.84.04-10.21-.11-5.15-.05-10.3-.13-15.46-.04-5.16-.23-10.31-.5-15.46-.24-4.43-.31-8.88-.33-13.34.01-2.23-.05-4.47.06-6.67.11-2.22.28-4.41.58-6.6.91-7.03,1.62-14.08,2.28-21.13l.48-5.29.12-1.32.06-.67c.02-.27.02-.54,0-.81-.1-1.08-.62-2.15-1.46-2.86-.84-.72-1.95-1.06-3-1.04l-2.65.08-5.31.15c-9.09.23-18.21.31-27.31.66l-13.64.52-1.7.07c-.58.04-1.09.02-1.8.13-1.32.24-2.48,1-3.27,2.03-.4.52-.7,1.11-.88,1.74-.09.32-.14.64-.17.97l-.06.85-.22,3.41c-.27,4.27-.62,8.55-.98,12.82l-.56,6.41c-.18,2.13-.41,4.27-.47,6.43.06,16.63,2.29,33.04,1.49,49.62l-.35,13.01-.15,6.51-.04,6.52.32,26.03c.07,2.88.13,5.73.02,8.61-.13,2.85-.39,5.74-.72,8.57-.72,5.91-.83,11.92-1.91,17.74-.22,1.18-.23,2.39.14,3.34.23.57.46,1.22.88.67Z"/>
      <path d="M1900.28,1628.82c-.25,6.02-.55,12.04-.93,18.06-.1,1.49-.18,3.04-.31,4.48-.18,1.32-1.12,2.53-2.35,3.08-.31.13-.63.24-.96.29-.16.04-.33.03-.49.05h-.56s-2.26.06-2.26.06l-4.52.06c-3.66.04-7.31.19-10.97.33-1.83.08-3.64.04-5.47.05-1.82-.02-3.64-.02-5.47-.17-6.16-.43-12.41-.4-18.58-.81-.38-.03-.75-.05-1.08-.07-.37-.02-.6-.04-.81-.09-.43-.09-.76-.26-1.02-.43-.54-.35-.8-.71-1.09-.97-.28-.27-.58-.46-.97-.69-.41-.24-.92-.5-1.55-1.06-.06,1.26.37,2.53,1.17,3.48.79.95,1.94,1.59,3.17,1.76.23.04.5.05.7.06l.56.02,1.12.06c.75.05,1.49.1,2.23.16,1.48.11,2.95.22,4.43.24l8.68.08,4.34.02c1.45,0,2.91-.07,4.37-.09l4.36-.1,4.33-.21c2.89-.13,5.78-.24,8.67-.31,1.98-.05,3.95-.13,5.92-.22.46,0,1.11-.07,1.62-.26.53-.18,1.03-.45,1.47-.78.88-.67,1.55-1.61,1.85-2.68.16-.53.18-1.11.2-1.57l.08-1.47.16-2.95c.11-1.96.24-3.93.39-5.89.27-3.57.22-7.13.65-10.74.4-3.31.94-6.75.3-9.99-.59,1.35-.9,2.91-1.07,4.5-.19,1.6-.24,3.23-.31,4.74Z"/>
      <path d="M1901.7,1619.47s-.05.09-.05.09v.02s.05-.11.05-.11Z"/>
    </g>
    <g>
      <polygon points="1517.75 1500.15 1517.74 1500.17 1517.84 1500.23 1517.75 1500.15"/>
      <path d="M1615.24,1518.13c.45-.45,1.25-.78,1.27-1.69.08-4.26,1.96-8.17,2.78-12.28,1.08-5.37,2.25-10.77,3.6-16.1,1.32-5.33,2.88-10.63,4.38-15.88,1.22-4.23,2.37-8.48,3.53-12.73.56-2.13,1.19-4.23,1.72-6.38l1.65-6.43c2.53-10.66,4.84-21.4,7.24-32.07l7.59-31.99.27-1.14c.09-.35.19-.89.18-1.33,0-.93-.29-1.86-.82-2.62-.53-.76-1.29-1.35-2.16-1.66-.21-.09-.44-.14-.66-.19l-.58-.12-1.15-.23-9.21-1.85c-6.13-1.27-12.28-2.49-18.35-4.01-5.03-1.24-10.05-2.82-15.09-3.94-4.09-.92-8.14-1.96-12.18-3.05-2.02-.53-4.02-1.13-6.05-1.64l-6.08-1.55c-8.28-1.91-16.61-3.38-24.89-5.32l-1.97-.45c-.63-.14-1.35-.34-2.11-.28-1.48.12-2.88,1.05-3.52,2.4-.17.33-.28.69-.36,1.05l-.2.99-.39,1.98-.77,3.97c-1.03,5.29-2.06,10.58-3.25,15.82-.84,3.6-1.57,7.21-2.63,10.72-.51,1.77-1.1,3.48-1.71,5.24l-1.79,5.24c-2.37,7-4.68,13.99-6.82,21.07-.5,1.76-.94,3.51-1.34,5.28-.41,1.79-.7,3.56-1.05,5.31l-2.05,10.54-2.04,10.55c-.35,1.75-.63,3.54-1.02,5.27l-1.14,5.2-.35,1.64-.42,1.64-.85,3.28c-.58,2.19-1.16,4.38-1.73,6.58-1.17,4.39-2.39,8.78-3.67,13.14-.21.72-.4,1.45-.59,2.18l-.27,1.1c-.07.33-.21.81-.23,1.28-.14,1.9.86,3.79,2.54,4.79.2.14.71.42,1.21.6.47.18,1.02.38,1.57.53,1.09.29,2.16.35,2.45-.42-.66-.41-1.42-.7-2.21-.94-.77-.27-1.66-.41-2.34-.74-1.11-.59-1.88-1.73-2-2.97-.07-.63.04-1.2.24-1.86l.52-1.93,2.01-7.75c1.33-5.17,2.67-10.34,4.19-15.46l.79-2.64.7-2.68,1.37-5.38c.77-3.6,1.5-7.2,2.13-10.78.96-5.46,2.02-10.9,3.07-16.34.49-2.72,1.14-5.39,1.88-8.05l2.37-7.96c1.33-4.58,2.82-9.14,4.37-13.68l2.35-6.81c.8-2.28,1.48-4.6,2.09-6.94,1.75-7.46,3.23-14.91,4.7-22.4l1.09-5.61.27-1.4c.09-.46.17-.98.28-1.29.22-.71.73-1.33,1.38-1.71.65-.38,1.44-.52,2.19-.38l2.79.58,5.59,1.17c9.57,2.07,19.18,4.04,28.6,6.56l14.19,3.8,7.11,1.85,3.56.9,3.6.81c9.01,1.95,18.05,3.92,27.05,5.87l3.27.7c.57.12,1.04.21,1.46.43.43.22.81.52,1.11.9.61.75.86,1.77.67,2.73l-.75,3.23-3.01,13-3.05,12.99c-.99,4.34-1.97,8.68-2.96,13.02l-3.11,13.65c-1.06,4.54-1.98,9.13-3.19,13.62l-.86,3.38-.95,3.37-1.92,6.73-3.83,13.47c-.85,2.97-1.61,5.99-2.33,9.01-.75,3.01-1.47,6.03-2.3,8.98-1.74,6.16-2.89,12.52-4.97,18.54-.42,1.22-.65,2.5-.44,3.56.13.64.24,1.36.75.84Z"/>
      <path d="M1527.33,1503.62c6.31,1.52,12.56,3.2,18.89,4.69,6.31,1.51,12.63,2.95,18.91,4.58,3.82.96,7.64,1.86,11.5,2.68l5.8,1.22c1.93.41,3.86.79,5.78,1.23,6.47,1.47,13.12,2.51,19.61,3.97.4.09.78.18,1.14.26.36.08.65.16,1.09.22.8.11,1.5,0,2.07-.17,1.14-.37,1.79-.97,2.13-1.49.34-.54.38-1.03.23-1.51-.14-.47-.51-.95-1.08-1.37-.19,1.32-1.59,2.6-3.16,2.43l-.23-.03-.3-.06-.6-.12-1.18-.25c-.78-.18-1.56-.36-2.34-.53-1.55-.36-3.1-.72-4.67-.99l-18.42-3.1c-6.09-1.1-12.17-2.45-18.22-3.91-8.28-2.01-16.6-3.47-24.76-5.7-3.71-1.04-7.47-1.75-11.19-2.95-3.42-1.1-6.93-2.38-10.46-2.5,2.61,1.77,6.31,2.62,9.46,3.39Z"/>
      <path d="M1517.76,1500.16s.09.07.09.07h.02s-.11-.07-.11-.07Z"/>
    </g>
    <g>
      <polygon points="1559.89 1335.24 1559.88 1335.25 1559.98 1335.31 1559.89 1335.24"/>
      <path d="M1657.44,1354.2c.49-.4,1.33-.63,1.45-1.54.56-4.23,2.86-7.91,4.14-11.91.83-2.62,1.7-5.23,2.6-7.83.89-2.61,1.85-5.19,2.68-7.85,1.8-5.26,3.3-10.55,4.94-15.78,2.64-8.4,4.81-16.99,7.82-25.21l5.78-15.41,2.84-7.73,1.41-3.87c.49-1.33.87-2.7,1.19-4.06.32-1.37.59-2.73.76-4.17l.43-4.1.85-8.19,1.62-16.38c.15-1.58.31-3.07.44-4.73.07-1.86-1.03-3.64-2.66-4.44-.4-.2-.84-.35-1.28-.42-.44-.08-.79-.1-1.19-.16l-2.33-.29-4.66-.59c-6.19-.73-12.2-2.57-18.27-4.18-5.02-1.38-10.08-2.87-15.12-3.96-8.22-1.75-16.25-4.05-24.24-6.49-8.15-2.42-16.37-4.45-24.52-6.92-.67-.19-1.24-.4-1.98-.57-.73-.12-1.49-.08-2.19.16-1.4.45-2.57,1.64-2.96,3.05l-2.44,7.72c-1.62,5.15-3.25,10.29-5.03,15.36-2.51,6.94-4.75,14.05-6.89,21.11-2.16,7.07-4.24,14.16-6.17,21.28-3.8,13.81-8.4,27.38-12.12,41.3-2.26,8.76-4.42,17.62-6.93,26.37-.41,1.45-.74,2.92-1.09,4.41l-.27,1.15c-.11.46-.13.94-.11,1.41.06.94.36,1.86.87,2.68.14.21.39.66.84,1.1.44.44,1.09.88,1.78,1.08,1.08.32,2.15.42,2.47-.34-.65-.43-1.4-.74-2.17-1.02-.72-.28-1.41-.75-1.87-1.4-.74-1.03-.96-2.36-.57-3.58l1.01-3.88,1.95-7.77c1.29-5.19,2.58-10.37,4.07-15.52,1.03-3.53,2.15-7.05,3.25-10.57,1.13-3.51,2.23-7.02,3.22-10.52,3.02-10.67,6.48-21.23,9.19-32.01,1.19-4.62,2.54-9.23,3.94-13.83,1.41-4.59,2.84-9.2,4.38-13.71,2.43-7.21,4.86-14.46,7.14-21.74l1.72-5.46.85-2.73.21-.68c.06-.18.13-.35.22-.52.18-.33.42-.64.7-.9.57-.52,1.32-.85,2.09-.88.39-.02.75.02,1.16.14l1.38.38,5.51,1.53c9.44,2.64,18.83,5.44,28.27,8.12,4.73,1.33,9.48,2.56,14.23,3.76,4.75,1.21,9.51,2.39,14.27,3.53,4.5,1.06,8.93,2.25,13.46,3.35,4.54,1.05,9.16,1.55,13.7,2.22l.83.11c.25.04.48.09.71.17.46.16.88.41,1.24.74.72.65,1.17,1.6,1.2,2.57.01.45-.08,1.05-.13,1.6l-.17,1.66-.32,3.33-1.26,13.3-1.3,13.3c-.22,2.21-.71,4.39-1.32,6.53-.65,2.12-1.5,4.19-2.26,6.29l-4.91,13.13-2.44,6.57-1.21,3.29-1.13,3.33c-1.56,4.43-2.83,8.91-4.22,13.38l-4.09,13.41c-.9,2.97-1.7,5.97-2.67,8.91-.47,1.47-.93,2.95-1.43,4.41-.53,1.45-1.09,2.89-1.67,4.32-2.42,5.93-4.28,12.13-7.03,17.88-.56,1.17-.92,2.41-.83,3.5.05.65.09,1.38.65.92Z"/>
      <path d="M1569.36,1339.01l9.37,2.66,4.68,1.36,4.72,1.25c3.14.89,6.3,1.58,9.45,2.39,3.15.79,6.29,1.6,9.43,2.44,3.82,1,7.63,1.95,11.49,2.8l5.82,1.21c1.93.39,3.87.78,5.81,1.17,6.5,1.38,13.17,2.33,19.68,3.7.41.09.79.17,1.15.24.18.04.36.07.54.11.21.03.41.07.61.07.79.05,1.46-.08,2.01-.25,1.11-.36,1.74-.92,2.1-1.41.69-1,.43-1.94-.58-2.96-.36,1.3-1.88,2.57-3.48,2.51-.16,0-.28-.02-.47-.05l-.6-.11-1.19-.23c-.79-.17-1.57-.33-2.35-.5-1.56-.34-3.11-.68-4.69-.93-6.15-.99-12.34-1.85-18.47-2.87-6.08-1.05-12.16-2.51-18.2-4.03-4.13-1.04-8.27-1.97-12.41-2.9-2.08-.44-4.12-.96-6.16-1.51-2.04-.54-4.09-1.05-6.11-1.72-3.68-1.16-7.42-2-11.1-3.31-3.38-1.21-6.86-2.6-10.38-2.84,2.55,1.86,6.23,2.82,9.36,3.7Z"/>
      <path d="M1559.9,1335.24s.08.07.08.07h.02s-.11-.07-.11-.07Z"/>
    </g>
    <g>
      <polygon points="1701.41 1190.59 1701.39 1190.58 1701.36 1190.68 1701.41 1190.59"/>
      <path d="M1769.32,1191.88c.34-.47,1.06-.9.89-1.7-.82-3.72.19-7.47.13-11.2-.06-2.44-.03-4.88-.06-7.34-.1-2.47-.17-4.94-.22-7.41-.32-4.89-.59-9.78-.83-14.64l-.34-5.87c-.16-2.03-.54-3.97-1.03-5.91-.24-.96-.57-1.95-.89-2.86l-.95-2.78-.47-1.39c-.15-.44-.27-.89-.38-1.35-.22-.92-.38-1.87-.49-2.81-.13-1.18-.22-2.37-.16-3.51l.16-3.65.3-7.3.49-14.61c.13-4.88.31-9.73.3-14.64l.02-3.67-.05-3.65-.12-7.31-.31-16.7-.08-8.35c0-.66.02-1.49-.29-2.22-.27-.74-.77-1.38-1.41-1.85-.64-.46-1.41-.74-2.19-.79-.4-.03-.78,0-1.11.03l-1.04.07c-4.62.31-9.29.51-13.84,1.1-3.7.49-7.4.82-11.11,1.14-1.86.19-3.71.41-5.55.68-1.86.28-3.67.61-5.5.92-3.72.64-7.42,1.37-11.11,2.1l-5.55,1.08c-.94.18-1.83.33-2.8.53-.99.25-1.88.82-2.55,1.57-.86.94-1.38,2.24-1.32,3.54l.1,3.59.25,7.19c.15,4.79.4,9.58.28,14.35-.14,6.52-.86,13.07-1.33,19.62-.25,3.27-.49,6.55-.7,9.82-.14,1.63-.12,3.3-.14,4.96,0,1.66-.02,3.32.01,4.98.7,12.72.85,25.45,1.73,38.18.27,4,.53,8.02.76,12.05l.3,6.06c.1,2,.08,4,.01,6-.1,2.62-.05,5.33-.35,8.12-.09.75-1.05,4.27.58,4.51.51-1.3.49-2.84.6-4.32.17-2.37.34-4.73.41-7.11.04-2.38,0-4.76-.16-7.13-.32-4.73-.62-9.47-.74-14.22-.17-6.53-.21-13.15-.58-19.59-.28-4.92-.47-9.84-.67-14.76l-.32-7.38-.1-7.36c.12-8.47,1.09-17.01,1.74-25.5.1-1.7.14-3.41.19-5.12.05-1.71.11-3.43.04-5.11-.07-3.39-.18-6.77-.3-10.16l-.38-10.15c-.01-.84-.12-1.75-.01-2.37.12-.68.44-1.36.9-1.91.46-.55,1.06-.99,1.73-1.22.17-.07.33-.09.51-.14l.62-.12,1.25-.24,12.84-2.36,6.43-1.15c2.15-.4,4.25-.75,6.41-1.01,2.14-.29,4.28-.44,6.46-.62l6.5-.56c4.34-.38,8.67-.79,13-1.24l3.06-.31c.88-.09,1.79.19,2.44.79.66.6,1.02,1.47,1.02,2.38v3.08c0,4.1,0,8.2,0,12.3,0,7.92.25,15.83.33,23.73v5.93s-.11,5.93-.11,5.93c-.09,3.95-.21,7.91-.39,11.87l-.53,12.43c-.07,2.08-.2,4.12-.22,6.24.06,2.11.36,4.19.89,6.24.62,2.03,1.3,3.95,1.95,5.93.62,1.93,1.02,3.97,1.3,5.99.14,1.01.18,2.02.24,3.06l.17,3.11.34,6.21c.15,2.75.39,5.5.61,8.25.14,1.38.14,2.74.17,4.11.02,1.37.02,2.73-.01,4.09-.3,5.66-.16,11.42-.91,17.03-.16,1.14-.1,2.29.32,3.18.26.54.52,1.14.91.6Z"/>
      <path d="M1700.08,1199.55l-.13,4.32-.07,2.16c-.03.84.17,1.73.69,2.46.52.72,1.34,1.22,2.19,1.36.86.17,1.71-.07,2.36-.21l4.22-.93c5.63-1.22,11.28-2.35,16.95-3.39,6.89-1.26,13.67-2.96,20.6-4.08,5.83-.94,11.65-2.34,17.48-3.3.18-.03.36-.06.53-.09.18-.03.4-.08.59-.13.38-.11.73-.25,1.03-.4.61-.31,1.08-.67,1.44-1.03.72-.71,1.04-1.37,1.16-1.91.19-1.06-.36-1.77-1.65-2.35.06,1.21-.7,2.72-1.98,3.44-.25.13-.51.24-.77.3-.24.06-.67.13-1,.19-.71.11-1.41.23-2.11.34-1.4.22-2.79.43-4.18.74-10.81,2.4-21.57,5.05-32.41,7.22-3.71.74-7.38,1.58-11.05,2.43l-5.5,1.25-2.76.6-1.38.29c-.45.09-.85.13-1.27.07-.75-.1-1.42-.53-1.8-1.18-.4-.67-.44-1.44-.39-2.32.05-1.71.11-3.43.3-5.15.34-3.17.84-6.46.2-9.56-1.17,2.59-1.2,5.97-1.28,8.85Z"/>
      <path d="M1701.4,1190.59s-.05.09-.05.09v.02s.05-.11.05-.11Z"/>
    </g>
    <g>
      <polygon points="1382.4 636.28 1382.39 636.27 1382.34 636.33 1382.4 636.28"/>
      <path d="M1358.5,696.28c-.27-.4-.44-1.17-1.06-1.11-2.9.26-5.44-1.26-8.19-1.73-7.19-1.23-14.34-3.04-21.42-4.72-5.69-1.34-11.44-2.42-17.12-3.83-3.55-.85-7.04-1.81-10.56-2.67l-10.57-2.75-10.6-2.64-1.33-.32c-.34-.09-.66-.22-.95-.41-.57-.38-.99-.97-1.13-1.65-.07-.34-.08-.69-.02-1.04.02-.18.08-.34.13-.53l.22-.65.87-2.59c2.65-7.89,5.17-15.81,8.15-23.59.62-1.61,1.25-3.24,1.87-4.85.57-1.65,1.1-3.3,1.53-4.97.73-2.7,1.43-5.38,2.24-8.04.82-2.65,1.64-5.3,2.46-7.95,1.67-5.39,2.95-10.86,4.67-16.25l.8-2.54c.26-.76.79-1.42,1.47-1.85.68-.44,1.51-.63,2.31-.54.39.03.8.18,1.24.3l1.29.38c3.44,1,6.87,2.01,10.25,3.18,9.28,3.19,18.49,6.61,27.88,9.39,9.12,2.7,18.13,5.82,27.32,8.32,2.89.79,5.79,1.6,8.68,2.45l2.17.64c.71.23,1.52.42,1.96.67,1.02.55,1.6,1.76,1.4,2.86-.03.18-.07.36-.13.54l-.22.69c-.14.48-.29.97-.43,1.45-.29.97-.59,1.96-1.01,2.92-.22.52-1.81,2.79-.29,3.43.73-.8,1-1.92,1.39-2.96.62-1.66,1.2-3.34,1.75-5.02.29-.89.3-1.9-.05-2.77-.34-.87-.99-1.63-1.81-2.06-.4-.22-.86-.36-1.28-.47l-1.28-.36-2.56-.73c-1.7-.5-3.4-1.02-5.08-1.59-4.62-1.57-9.28-3.25-13.91-4.56-7.08-1.99-14.03-4.45-21.14-6.39-6.11-1.68-12.1-3.99-18.11-6.08-4.79-1.66-9.63-3.14-14.49-4.57l-1.82-.53c-.32-.09-.57-.17-.95-.27-.37-.1-.76-.13-1.15-.14-1.55,0-3.06.79-3.93,2.05-.45.6-.7,1.43-.84,1.99l-.51,1.83-1.03,3.65c-1.78,6.25-3.68,12.48-5.54,18.71-1.85,6.26-3.72,12.41-5.77,18.59-1.89,5.82-4.08,11.57-6.13,17.32-.99,2.79-1.95,5.58-2.89,8.39l-.7,2.1c-.26.74-.34,1.61-.13,2.39.19.79.65,1.51,1.26,2.02.59.53,1.42.8,2.12.94,5.76,1.33,11.51,2.69,17.21,4.27,11.94,3.35,24.09,5.91,36.15,8.79,3.99.95,8.1,1.59,12.01,2.76,4.08,1.2,8.34,1.82,12.29,3.38.8.32,1.66.43,2.4.14.45-.18.95-.35.63-.81Z"/>
      <path d="M1379.45,642.39c-2.46,8.26-5.17,16.43-8.01,24.58-1.72,4.94-2.97,10.02-4.8,14.94-.77,2.07-1.44,4.18-2.1,6.3l-1.01,3.17-.53,1.57c-.09.25-.18.55-.27.76-.08.2-.18.39-.3.56-.48.7-1.07,1.02-1.5,1.23-.44.21-.75.31-1,.48-.52.31-.71.96-1.69,2.12,1.8.32,3.52-.31,4.8-1.44.51-.44.94-.96,1.28-1.55.17-.29.31-.62.42-.91l.28-.74c.38-.99.75-1.97,1.04-2.99,2.28-7.95,4.29-15.99,6.83-23.85,1.76-5.36,3.18-10.78,5.07-16.1.85-2.41,1.39-4.91,2.39-7.31.92-2.2,2.01-4.44,1.99-6.87-1.61,1.54-2.27,3.98-2.89,6.04Z"/>
      <path d="M1382.4,636.28s-.06.05-.06.05v.02s.06-.07.06-.07Z"/>
    </g>
    <g>
      <polygon points="2470.49 2019.67 2470.47 2019.66 2470.43 2019.78 2470.49 2019.67"/>
      <path d="M2460.98,2126.14c-.58-.34-1.12-1.06-2.09-.88-4.53.83-9.12-.16-13.67-.07-5.95.11-11.95.12-17.9-.14-5.97-.27-11.94-.7-17.86-1.1-9.55-.62-19.06-1.08-28.58-2.06l-8.89-.85-4.44-.41-2.22-.2-1.1-.1c-.28-.03-.56-.1-.83-.2-1.08-.41-1.94-1.43-2.16-2.55-.05-.31-.07-.5-.06-.91v-1.12s0-2.23,0-2.23v-8.93s-.12-17.85-.12-17.85c0-1.5-.05-2.96.02-4.42.06-1.46.16-2.94.31-4.39.36-2.89.82-5.88,1.22-8.81l2.82-20.19c.22-1.67.53-3.37.65-5.09.13-1.71.2-3.42.16-5.14-.14-3.4-.28-6.8-.42-10.21-.2-5.65-.29-11.36-.78-16.93-.4-4.53-.62-9.07-.99-13.61-.14-2.27-.33-4.53-.55-6.79l-.6-6.77c-.41-4.59-.92-9.16-1.43-13.74l-.74-6.86-.34-3.44c-.06-.59-.12-1.11-.02-1.63.09-.52.29-1.02.57-1.47.37-.56.86-1.05,1.44-1.36.58-.35,1.21-.45,1.96-.57l4.32-.77,8.63-1.6c5.75-1.07,11.51-2.13,17.27-3.03l5.93-.91c1.87-.21,3.88.05,5.7.57.46.14.9.29,1.31.49l1.35.64,2.72,1.29,2.72,1.29,1.36.64.68.32c.27.12.56.24.86.31,1.19.31,2.45.2,3.56-.27.56-.24,1.09-.56,1.54-.97.23-.21.44-.43.64-.68.19-.24.37-.54.49-.73.28-.47.46-.74.75-1.08.28-.32.6-.62.95-.89.69-.55,1.49-.99,2.3-1.3.41-.15.82-.26,1.21-.31.38-.05.97-.08,1.44-.13l2.99-.26.73-.06c.21-.02.43-.02.65-.02.45,0,.91.04,1.37.09.92.11,1.85.3,2.74.56.43.13.86.27,1.26.44.41.17.75.35,1.2.6l2.56,1.4,5.1,2.83,10.17,5.7,5.09,2.85,2.55,1.42,1.27.71.63.35c.16.09.32.19.47.31,1.23.95,2.19,2.61,2.39,4.15.03.21.03.34.03.6v.73s.01,1.46.01,1.46l.02,2.92c.03,4.89.06,9.81.09,14.74,0,2.47-.02,4.94-.03,7.4-.04,2.48,0,4.94-.19,7.36-.11,1.61-.17,3.24-.31,4.86-.15,1.64-.32,3.32-.61,5.01-.15.91-1.43,5.14.19,5.52.62-1.56.74-3.43.98-5.23.37-2.87.8-5.75.94-8.66.2-2.9.11-5.81.09-8.7-.06-5.79-.1-11.59.04-17.39.05-1.99.11-3.99.16-5.99l.08-3c0-.51.04-.97.02-1.53-.03-.54-.13-1.06-.28-1.57-.31-1.01-.81-1.96-1.46-2.79-.33-.41-.7-.8-1.12-1.14-.43-.35-.91-.6-1.33-.84-1.73-.98-3.46-1.94-5.2-2.88-5.3-2.86-10.54-5.79-15.8-8.72l-3.94-2.19-1.97-1.09c-.65-.37-1.4-.72-2.13-.96-1.47-.49-2.99-.79-4.54-.87-.78-.05-1.58.04-2.31.12l-2.25.24-1.94.21c-.68.09-1.33.3-1.94.56-1.23.54-2.35,1.3-3.27,2.29-.47.48-.84,1.09-1.16,1.64-.3.53-.73.96-1.24,1.3-1,.67-2.3.89-3.43.57-.54-.15-1.13-.49-1.72-.76l-1.76-.84-3.52-1.69-1.76-.85c-.56-.28-1.24-.59-1.89-.79-1.31-.41-2.65-.65-4.01-.74-.54-.04-1.09-.05-1.64-.02-.55.02-1.15.11-1.63.2l-3.06.5-6.12,1.04-12.22,2.2-12.2,2.29-1.52.29c-.52.11-.97.16-1.61.34-1.18.37-2.18,1.18-2.81,2.2-.65,1-.9,2.33-.73,3.44l.32,3.08c1.1,10.57,2.08,21.16,3.09,31.74l.57,7.92.4,7.96c.28,5.31.59,10.61.94,15.92.15,2.5.3,4.99.45,7.49l.19,3.75c.06,1.23.04,2.47-.02,3.71-.06,1.24-.15,2.48-.31,3.7l-.57,3.7c-.38,2.47-.77,4.95-1.15,7.41-.73,4.78-1.42,9.56-2.09,14.35-.32,2.4-.7,4.76-.96,7.19-.22,2.42-.35,4.84-.29,7.27.16,9.66.28,19.31.19,28.98l-.02,1.9c.01.63-.06,1.27.08,1.93.27,1.29,1.12,2.44,2.27,3.09.57.33,1.23.53,1.89.57l1.89.17,3.78.35,15.14,1.37c10.09.96,20.22,1.55,30.33,2.21,3.35.22,6.72.35,10.09.5,3.37.08,6.74.23,10.07.41,6.94.37,13.95.13,20.81.88,1.39.15,2.8.09,3.88-.34.65-.26,1.38-.53.72-.92Z"/>
      <path d="M2468.37,2030.51l-1.04,10.51c-.36,3.52-.54,7.07-.57,10.59-.12,7.04-.32,14.07-.63,21.1-.37,8.54-.27,17.08-.81,25.63-.45,7.19-.44,14.5-.87,21.7-.05.9-.1,1.69-.14,2.38-.02.39-.04.54-.09.78-.05.22-.12.41-.19.58-.32.7-.71,1.08-.99,1.44-.29.35-.5.67-.74,1.12-.25.43-.51.98-1.11,1.65,1.48,0,2.89-.68,3.83-1.73.48-.52.85-1.14,1.09-1.81.12-.33.2-.68.25-1.04.05-.36.06-.73.06-.98.06-3.54.47-6.95.51-10.41.18-13.51.12-27.05.5-40.54.14-4.62.17-9.22.2-13.82.06-4.6-.06-9.19.4-13.76.43-4.14.69-8.3,1.34-12.48.62-3.85,1.4-7.83,1.04-11.63-1.4,3.09-1.73,7.2-2.06,10.71Z"/>
      <path d="M2470.49,2019.68s-.05.1-.05.1v.03s.05-.13.05-.13Z"/>
    </g>
    <g>
      <polygon points="2571.22 2131.72 2571.22 2131.74 2571.3 2131.77 2571.22 2131.72"/>
      <path d="M2621.96,2165.57c-.39-.34-.74-1.05-1.39-.87-3.05.85-6.12-.12-9.18-.01-8,.3-16.07-.06-24.06-.28-6.47-.17-12.86.29-19.28.26-4,0-7.99.03-11.99.09l-5.99.1c-2,.05-3.97,0-5.96,0h-2.98s-3-.07-3-.07l-5.99-.13-11.99-.19c-9.13-.11-18.25-.1-27.38-.6-3.79-.2-7.61-.51-11.37-.42-3.06.07-6.11.01-9.15-.1l-2.28-.09c-.76-.04-1.54-.04-2.23-.15-1.39-.25-2.83-.9-3.65-1.93-.37-.48-.51-1.23-.6-1.95-.08-.73-.1-1.48-.06-2.23.04-.75.13-1.49.3-2.21l.55-2.24c.73-3.01,1.5-5.98,2.33-8.99.48-1.91.86-3.85,1.14-5.81.25-1.97.44-3.91.65-5.87.05-.97.35-1.82.95-2.53.59-.7,1.42-1.2,2.32-1.36.45-.09.89-.07,1.4-.03l1.47.09,2.93.22c10.72.89,21.45,2.13,32.23,2.3,10.44.18,20.87.75,31.3.93,6.57.13,13.22.31,19.83.76,2.19.14,4.41-.03,6.7.2.62.06,3.53.91,3.69-.73-1.07-.47-2.33-.39-3.55-.46-7.77-.47-15.56-.29-23.33-.85-5.34-.39-10.76-.87-16.05-.92-8.08-.1-16.15-.53-24.23-.59-1.74-.02-3.48-.08-5.22-.16-1.74-.11-3.49-.24-5.23-.39-3.48-.32-6.98-.64-10.45-.96-2.77-.24-5.54-.44-8.31-.6l-2.08-.12c-.8-.07-1.71.1-2.48.44-1.55.69-2.74,2.13-3.04,3.83-.08.46-.09.73-.14,1.1l-.11,1.04-.22,2.07c-.14,1.39-.28,2.73-.51,4.09-.22,1.36-.46,2.71-.76,4.05-.29,1.32-.66,2.68-1,4.02l-1.35,5.18c-.22.88-.47,1.68-.67,2.64-.18.93-.26,1.86-.26,2.79,0,.94.06,1.88.35,2.86.13.48.44,1.06.8,1.42.36.39.77.7,1.19.96.85.52,1.77.86,2.73,1.05.47.1,1.01.14,1.44.14l1.34.05c7.13.26,14.26.49,21.4.55,6.72.05,13.45.4,20.16.6,6.49.19,12.97.22,19.46.28l9.73.13c3.24,0,6.49.01,9.74.02l20.41-.21,10.2-.15c3.4.06,6.77.01,10.18.16,4.51.16,9.06-.04,13.53.29,4.65.34,9.37.07,13.97.78.93.14,1.88.08,2.61-.36.44-.26.93-.53.49-.92Z"/>
      <path d="M2578.6,2132.72c4.73-.08,9.45-.1,14.18-.05,2.36.03,4.72.07,7.09.14,1.14-.02,2.19.29,3.19.8.99.51,1.9,1.2,2.56,2.04.37.48.74,1.16,1.13,1.75l1.16,1.81,2.36,3.6c1.58,2.4,3.14,4.8,4.59,7.29,2.43,4.19,5.27,8.19,7.72,12.37.3.52.6,1.01.71,1.28.13.31.15.54.14.68-.02.24-.04.3-.16.54-.27.43-.43,1.12-1.18,2.45.48-.02.97-.08,1.48-.25.51-.18,1.06-.48,1.48-1.01.43-.52.6-1.24.56-1.82-.03-.6-.22-1.09-.44-1.53-.17-.35-.38-.65-.52-.88l-.46-.75c-.29-.51-.58-1.01-.88-1.52-.58-1.01-1.15-2.01-1.8-2.98l-7.73-11.21-3.83-5.62-1.88-2.83-.93-1.43c-.31-.5-.74-1.02-1.18-1.44-1.23-1.16-2.73-1.94-4.37-2.3-.41-.09-.84-.13-1.27-.14h-1.16s-2.32.01-2.32.01c-3.09.02-6.17.04-9.26-.05-2.81-.08-5.6.16-8.44-.06-2.61-.21-5.31-.57-7.84.16,2.15,1.1,4.92,1,7.29.95Z"/>
      <path d="M2571.23,2131.72s.07.04.07.04h.02s-.09-.04-.09-.04Z"/>
    </g>
    <g>
      <polygon points="2409.38 2227.93 2409.36 2227.92 2409.32 2228.02 2409.38 2227.93"/>
      <path d="M2404.44,2319.48c-.52-.31-1.02-1-1.84-.78-3.86,1.05-7.86.29-11.78.59-5.12.4-10.28.66-15.44.85l-3.87.13-1.93.06h-.48c-.13,0-.27.01-.4,0-.26-.03-.52-.09-.77-.18-1-.36-1.74-1.28-1.91-2.32-.04-.27-.05-.5-.03-.81l.04-.96.08-1.92c.35-8.24.43-16.49.85-24.73.52-10.31.19-20.58.05-30.84l-.16-7.7-.09-3.85v-3.83s0-3.83,0-3.83l.09-3.85.19-7.7.38-17.59c.14-5.87-.02-11.78-.25-17.63-.15-4.87-.2-9.8-.63-14.61-.33-3.91-.62-7.83-.71-11.73l-.06-5.85c.01-1.95.08-3.91.12-5.86.17-7.95-.05-15.87.17-23.83l.09-3.76c.06-1.13.74-2.2,1.74-2.72.49-.27,1.06-.41,1.63-.4.58.02,1.25.08,1.87.11l3.78.25c5.04.33,10.08.67,15.08,1.17l10.32,1.06,5.16.53.65.07c.23.02.43.04.58.07.34.06.66.18.96.34.6.33,1.11.84,1.41,1.45.15.3.27.62.32.95.05.34.05.6.02,1.08l-.12,2.59-.21,5.18c-.12,3.45-.22,6.91-.27,10.36-.05,3.36-.13,6.71-.22,10.06-.07,1.67-.04,3.37-.02,5.06l.06,5.09c.34,6.7.7,13.4,1.19,20.1.15,2.1.3,4.22.46,6.33.13,2.12.34,4.25.36,6.31.01,2.1-.05,4.2-.3,6.27l-.76,6.34c-.36,2.79-.38,5.65-.85,8.57-.13.79-1.28,4.44.34,4.77.58-1.34.64-2.96.83-4.52.62-4.96,1.06-9.94,1.51-14.92.24-2.5.27-5.01.21-7.51-.12-2.5-.27-5-.35-7.5-.23-6.88-.34-13.85-.82-20.63-.8-10.33.04-20.7,0-31.1,0-2.23.05-4.47.12-6.71l.13-3.36c.01-.57.08-1.1.03-1.73-.05-.61-.23-1.21-.52-1.75-.57-1.09-1.58-1.96-2.79-2.33-.3-.09-.62-.15-.92-.18l-.84-.09-1.68-.18c-2.24-.23-4.47-.47-6.7-.7-7.11-.72-14.23-1.25-21.35-1.73l-5.34-.35-.67-.04c-.21-.02-.45-.03-.74-.03-.54,0-1.09.11-1.6.3-1.03.38-1.89,1.17-2.39,2.13-.25.48-.42,1.01-.48,1.54-.06.57-.03.99-.04,1.43v2.67s-.02,5.35-.02,5.35l-.15,13.76-.1,6.88-.05,3.44.05,3.46c0,4.62.31,9.18.52,13.77.23,4.58.49,9.16.8,13.73.28,4.3.57,8.63.5,12.92v3.22s-.12,3.24-.12,3.24c-.08,2.16-.17,4.31-.25,6.47-.15,4.17-.26,8.34-.36,12.5l-.13,6.25-.06,3.12.02,3.13c.03,2.09,0,4.17.07,6.26l.17,6.25c.1,4.17.18,8.33.19,12.51,0,4.37.08,8.74.04,13.11l-.11,6.54-.27,6.55-.53,13.1-.26,6.55-.13,3.28c-.01.55-.07,1.06-.02,1.71.06.62.26,1.23.58,1.78.42.72,1.07,1.31,1.84,1.65.74.37,1.67.44,2.38.38l4.35-.21c2.9-.14,5.8-.25,8.68-.24,5.99.03,12.02-.55,17.98-.14,1.21.08,2.42-.04,3.32-.53.55-.29,1.16-.59.57-.95Z"/>
      <path d="M2407.57,2237.3c-.28,3.06-.28,6.15-.07,9.22l.74,9.08c.46,6.05.84,12.11,1.12,18.18.07,1.84.23,3.69.29,5.5.06,1.83.09,3.66.05,5.49-.13,3.66-.31,7.36-.61,11.04-.53,6.2-.6,12.5-1.11,18.7-.03.39-.06.75-.09,1.09-.03.36-.06.52-.12.76-.12.43-.31.78-.5,1.06-.39.56-.76.88-1.01,1.19-.27.3-.44.63-.63,1.04-.2.43-.4.97-.88,1.66,2.57-.21,4.57-2.12,5.09-4.52.19-1.04.14-1.67.22-2.45.06-.75.13-1.5.19-2.24.13-1.49.27-2.97.31-4.46l.4-17.49.11-4.37c.05-1.48.03-2.95,0-4.41-.05-2.94-.33-5.87-.49-8.76-.48-7.96-1.4-15.81-1.89-23.74-.29-3.58-.61-7.15-.06-10.77.51-3.32,1.18-6.76.71-10.05-1.31,2.67-1.52,6.22-1.76,9.25Z"/>
      <path d="M2409.38,2227.93s-.05.09-.05.09v.02s.05-.11.05-.11Z"/>
    </g>
    <g>
      <polygon points="1597.8 2450.08 1597.78 2450.08 1597.74 2450.17 1597.8 2450.08"/>
      <path d="M1666.46,2457.19c.32-.47,1.03-.92.82-1.7-.96-3.61-.09-7.32-.31-10.97-.51-9.55-.74-19.23-.06-28.69.56-7.65.85-15.32,1.49-22.97.18-2.39.42-4.75.53-7.15l.2-7.24-.38-14.33-.5-14.32c-.11-2.39-.16-4.77-.19-7.14l-.07-3.56v-3.58s.06-16.37.06-16.37l.09-8.19.04-2.05.02-1.02c.01-.34,0-.75-.08-1.12-.29-1.51-1.4-2.82-2.86-3.35-.58-.23-1.31-.29-1.84-.3l-1.7-.06-3.41-.1c-2.27-.05-4.54-.07-6.79.01-7.31.27-14.59.02-21.86-.14l-2.78-.04c-.96,0-1.9.1-2.83.22-1.85.27-3.7.67-5.46,1.35l-5.2,1.92c-1.85.73-3.24,2.22-4.1,3.95-.27.55-.45,1.18-.54,1.78l-.26,1.74-.49,3.49-.92,6.99c-.61,4.66-1.23,9.32-2.01,13.93l-.81,4.76-.68,4.8c-.49,3.21-.8,6.41-1.13,9.61-.65,6.4-1.24,12.81-1.66,19.22-.18,3.12-.49,6.21-.61,9.36l-.26,4.71c-.08,1.57-.1,3.12-.16,4.68-.19,6.24-.36,12.48-.4,18.73-.02,1.96-.03,3.93-.05,5.91-.02,1.97-.03,3.96-.17,5.91-.12,1.96-.22,3.92-.38,5.88l-.68,5.91c-.32,2.6-.3,5.26-.73,7.98-.12.73-1.22,4.13.4,4.44.56-1.25.6-2.76.77-4.21.55-4.62.93-9.26,1.32-13.89l.36-6.98c.15-2.32.14-4.65.28-6.98.32-6.4.76-12.87.81-19.19l.12-7.24.37-7.21c.33-4.81.74-9.63.97-14.46.21-4.15.59-8.31,1.02-12.47l.68-6.24c.29-2.06.58-4.12.88-6.18,1.02-6.54,2.02-13.13,2.87-19.71l1.28-9.88.32-2.47c.11-.88.17-1.53.49-2.21.59-1.34,1.67-2.58,2.96-3.24.38-.2.91-.36,1.41-.55l1.51-.54,3.01-1.08c1.92-.69,4.02-1.06,6.08-1.26,1.03-.11,2.04-.07,3.13-.05l3.2.05,6.4.09c8.53.12,17.06.2,25.6.11.92-.04,1.75.23,2.43.8.67.56,1.11,1.39,1.19,2.26.02,1.9-.05,3.99-.08,5.97-.09,4.02-.18,8.04-.27,12.05-.07,3.88-.1,7.76-.12,11.64-.03,1.94.05,3.88.09,5.82.05,1.94.07,3.88.18,5.82.37,7.74.7,15.49.83,23.25.34,8.14-.19,16.22-.82,24.35l-.86,12.17-.43,6.09c-.15,2.03-.3,4.05-.34,6.1-.27,5.43.17,10.85-.01,16.21-.18,5.57.25,11.2-.3,16.72-.11,1.12-.02,2.25.45,3.1.28.52.56,1.1.93.55Z"/>
      <path d="M1596.11,2458.81l-.3,4.23-.04.53c0,.21-.02.42,0,.63.02.42.12.84.28,1.25.32.8.95,1.51,1.73,1.87.77.39,1.66.44,2.43.31l2.09-.33,4.19-.63c5.59-.82,11.19-1.57,16.8-2.21,3.4-.37,6.82-.94,10.18-1.35,1.69-.18,3.4-.33,5.09-.4,1.69-.05,3.43-.05,5.14-.02,5.79.09,11.64-.27,17.43-.19.38,0,.66.02,1.06,0,.4,0,.77-.07,1.11-.16.68-.18,1.22-.47,1.64-.78.84-.63,1.22-1.31,1.35-1.85.22-1.08-.37-1.78-1.68-2.29.12,1.14-.61,2.51-1.93,2.9-.25.08-.49.1-.78.12h-1.05c-.7,0-1.4-.02-2.09-.03-1.39-.03-2.77-.06-4.16,0-5.43.24-10.82.52-16.28.83-2.73.21-5.46.51-8.15.95-2.68.41-5.36.79-8.05,1.15-7.36.96-14.58,2.35-21.91,3.32-.79.13-1.54.05-2.19-.32-.64-.36-1.1-1.04-1.23-1.8-.14-.75.03-1.61.08-2.45.08-.84.18-1.68.3-2.52.46-3.09,1.09-6.29.58-9.36-1.28,2.49-1.44,5.79-1.63,8.61Z"/>
      <path d="M1597.79,2450.09s-.05.08-.05.08v.02s.05-.1.05-.1Z"/>
    </g>
    <g>
      <polygon points="1497.74 2030.53 1497.72 2030.52 1497.71 2030.62 1497.74 2030.53"/>
      <path d="M1563.24,2033.45c.29-.48.96-.97.7-1.7-1.21-3.42-.61-7.06-1.08-10.57-.61-4.59-1.09-9.21-1.49-13.85-.18-2.31-.44-4.64-.66-6.96l-.33-3.47c-.14-1.15-.27-2.3-.41-3.44-.86-7.38-2-14.72-2.8-22.1-.24-2.3-.5-4.6-.82-6.9-.32-2.3-.59-4.62-.98-6.89l-2.26-13.69c-1.55-9.12-3.18-18.22-4.85-27.32l-2.88-15.58-1.37-7.8c-.22-1.45-1.21-2.76-2.54-3.39-.67-.31-1.41-.46-2.15-.44-.76.07-1.34.18-2.01.27-4.35.62-8.75,1.14-13.01,2.04-3.46.73-6.94,1.33-10.42,1.88l-5.22.92-2.61.45-2.59.51c-7.03,1.4-13.94,3.18-20.98,4.53l-1.67.33c-.56.12-1.1.19-1.71.4-1.18.42-2.15,1.38-2.59,2.55-.22.58-.32,1.22-.28,1.84.05.65.21,1.17.32,1.73l.73,3.33c.97,4.44,1.94,8.89,2.73,13.34,1.09,6.13,2.18,12.28,3.19,18.4,1.02,6.14,2.04,12.29,3.26,18.38,1.14,5.92,2.35,11.89,3.13,17.8.48,2.94.73,5.98,1.12,8.97.36,3,.74,6,1.16,8.99.52,3.76,1.04,7.55,1.52,11.36.5,3.81,1.01,7.63,1.51,11.45.35,2.51,1.04,4.99,1.31,7.64.07.71-.13,4.18,1.52,4.05.22-1.31-.12-2.73-.32-4.13-.63-4.46-1.49-8.88-2.16-13.33l-.53-3.33-.44-3.35c-.28-2.23-.54-4.47-.75-6.72-.57-6.17-1.04-12.43-1.86-18.5-.73-4.63-1.4-9.28-2.3-13.86-.85-4.6-1.7-9.19-2.68-13.77-1.68-7.86-2.74-15.95-4.2-23.9-1.12-6.33-2.43-12.63-3.8-18.91l-1.03-4.71-.13-.58c-.03-.15-.06-.31-.06-.47-.02-.31,0-.63.09-.94.15-.62.5-1.19.97-1.62.24-.21.51-.39.8-.53.3-.13.57-.2,1-.29l2.35-.52,4.7-1.04,12.12-2.57,6.07-1.25c2.02-.4,4.05-.74,6.07-1.12,2.02-.39,4.06-.7,6.1-1.03l6.11-.99c4.07-.67,8.14-1.38,12.2-2.12l2.87-.51c.86-.17,1.72-.02,2.47.41.74.43,1.31,1.14,1.57,1.95.12.38.18.88.27,1.36l.24,1.44c.63,3.84,1.26,7.68,1.89,11.51,2.48,14.82,5.62,29.49,7.9,44.34,1.24,7.78,2.34,15.55,3.21,23.38l2.8,23.45c.24,2.59.62,5.17.88,7.78.26,2.6.49,5.2.59,7.79.21,5.39,1.04,10.79.88,16.17-.03,1.09.14,2.17.66,2.96.32.48.64,1.02.97.47Z"/>
      <path d="M1498.32,2039.11l1.54,8.06c.26,1.56,1.39,2.94,2.85,3.49.72.29,1.52.38,2.29.27l2.04-.36c5.38-.96,10.78-1.85,16.19-2.63,3.29-.47,6.56-1.02,9.82-1.82,1.63-.38,3.27-.7,4.89-1.1,1.61-.42,3.22-.81,4.85-1.17,5.47-1.21,10.9-2.88,16.36-4.11.31-.07.76-.17,1.09-.32.35-.14.66-.31.94-.49.55-.36.95-.75,1.27-1.12.61-.76.85-1.42.9-1.95.06-1.03-.58-1.65-1.92-2.05.2,1.12-.33,2.6-1.46,3.4-.21.16-.45.27-.69.37-.13.04-.23.07-.38.11l-.5.12c-.66.15-1.32.29-1.98.44-1.31.28-2.62.57-3.92.94l-15.12,4.45c-2.52.67-5.05,1.24-7.59,1.84-2.56.53-5.16.94-7.74,1.37-3.55.57-7.06,1.25-10.56,1.93l-5.26,1.01-1.31.24c-.4.07-.81.06-1.2-.02-.79-.15-1.54-.58-2.05-1.21-.48-.57-.76-1.24-.88-2.02l-.47-2.39c-.31-1.59-.61-3.19-.79-4.83-.34-3.01-.54-6.16-1.81-8.89-.6,2.65.08,5.78.61,8.47Z"/>
      <path d="M1497.74,2030.53s-.03.09-.03.09v.02s.03-.11.03-.11Z"/>
    </g>
    <g>
      <polygon points="671.12 1645.27 671.1 1645.28 671.11 1645.39 671.12 1645.27"/>
      <path d="M703.57,1739.97c.64,0,1.45.34,2.12-.3,3.13-2.97,7.28-4.42,10.83-6.77,4.64-3.07,9.38-6.04,14.15-8.94,2.4-1.44,4.79-2.87,7.18-4.31l3.6-2.13c.61-.37,1.17-.68,1.82-1.09.65-.43,1.2-.95,1.69-1.51.79-.9,1.43-1.92,1.89-3.03.23-.56.41-1.15.5-1.78l.23-1.66.9-6.63.45-3.32c.15-1.03.45-2.09.79-3.11.35-1.03.76-2.04,1.25-2.99.47-.92,1.13-1.85,1.72-2.8l4.5-7.02c1.49-2.26,3.16-4.49,4.94-6.53l5.47-6.28c.85-.95,1.88-1.84,2.95-2.64,1.08-.81,2.15-1.53,3.37-2.1l7.46-3.73,3.72-1.87.47-.23c.16-.08.36-.19.53-.29.34-.22.67-.45.96-.72.59-.52,1.1-1.1,1.53-1.73.44-.63.8-1.31,1.07-2.04.14-.36.25-.74.33-1.14.05-.19.06-.4.09-.6l.05-.52.38-4.15c.12-1.41.27-2.72.35-4.2.04-1.47-.1-2.89-.33-4.3-.13-.81-.3-1.61-.54-2.41-.25-.83-.53-1.52-.8-2.28l-1.62-4.48-3.22-8.96-1.59-4.49c-.52-1.5-1.09-2.99-1.5-4.51-.87-3.04-1.83-6.04-2.48-9.16-1.18-5.14-2.27-10.37-3.71-15.39-.6-2.05-1.12-4.09-1.7-6.15-.6-2.05-1.26-4.07-2-6.07-1.51-3.96-3.02-7.92-4.53-11.87-.77-2.01-1.56-4.01-2.36-6.01l-1.21-2.99-.61-1.49c-.18-.48-.44-1.07-.81-1.52-.73-.93-1.8-1.55-2.94-1.76-.57-.11-1.17-.1-1.74.01-.59.13-1.05.31-1.58.47-2.05.64-4.11,1.27-6.18,1.88-5.24,1.53-10.45,3.19-15.66,4.85-5.21,1.62-10.41,3.38-15.57,5.13-14.17,4.84-28.36,9.64-42.42,14.67-3.41,1.24-6.84,2.45-10.26,3.65l-10.36,3.62c-2.18.91-3.49,3.41-3,5.73.05.27.16.61.22.81l.22.64.44,1.29.89,2.58c1.19,3.43,2.39,6.86,3.63,10.28,3.09,8.6,6.36,17.27,8.73,26.12.78,2.95,1.9,5.83,2.63,8.94.2.84.58,4.96,2.21,4.67,0-1.57-.59-3.22-1.03-4.86-.7-2.61-1.45-5.22-2.21-7.81-.39-1.3-.76-2.6-1.17-3.89l-1.28-3.86c-.43-1.28-.84-2.58-1.28-3.85l-1.36-3.83c-.89-2.55-1.77-5.12-2.59-7.7-1.13-3.55-2.26-7.12-3.39-10.68-.58-1.78-1.16-3.55-1.74-5.31-.3-.88-.6-1.76-.9-2.63-.15-.44-.32-.88-.39-1.25-.08-.39-.09-.8-.03-1.2.17-1.22,1.03-2.34,2.2-2.78l3.96-1.41,7.95-2.79c5.3-1.85,10.6-3.72,15.87-5.7,9.05-3.43,18.34-6.47,27.54-9.6l10.93-3.84,5.45-1.84c1.82-.62,3.68-1.16,5.52-1.76,7.36-2.34,14.72-4.68,22.08-7.02l1.78-.56c.5-.16,1.02-.19,1.53-.12,1.04.13,2.01.75,2.59,1.61.14.22.25.44.36.7l.34.87.68,1.73,1.35,3.47,5.4,13.88c.92,2.32,1.78,4.58,2.48,6.96.73,2.34,1.25,4.75,1.87,7.16,1.2,4.82,2.42,9.63,3.69,14.42,1.12,4.52,2.49,9.05,3.9,13.52,1.51,4.43,3.03,8.85,4.53,13.27l2.23,6.39c.36,1.08.8,2.11,1.04,3.16.26,1.07.43,2.17.54,3.27.11,1.11.15,2.2.04,3.3l-.29,3.37-.29,3.37c-.05.56-.08,1.14-.18,1.65-.1.53-.28,1.04-.51,1.54-.46.99-1.12,1.9-1.93,2.64-.79.77-1.85,1.17-2.84,1.71l-6.03,3.07-3.02,1.52c-1,.51-2.04.97-2.99,1.6-1.89,1.24-3.68,2.66-5.16,4.39-3.08,3.57-6.41,6.98-9.11,10.9-1.36,1.96-2.56,3.99-3.85,5.98l-1.9,3c-.62.99-1.31,2-1.81,3.11-1,2.17-1.77,4.51-2.03,6.89l-1.03,7.02-.51,3.51c-.18,1.06-.66,2.11-1.27,3.05-.62.93-1.39,1.8-2.28,2.39l-3.03,1.8c-5.4,3.19-10.66,6.72-16.11,9.75-5.67,3.15-11.08,6.86-16.89,9.66-1.18.57-2.26,1.32-2.88,2.23-.38.55-.81,1.14-.08,1.13Z"/>
      <path d="M673.18,1655.39l1.47,4.71,1.56,4.7c1,3.15,2.13,6.23,3.18,9.34,2.13,6.22,4.18,12.46,6.14,18.74l1.84,5.7,1.73,5.7c1.14,3.81,2.09,7.7,3,11.59,1.48,6.57,3.43,13.11,4.93,19.67.19.82.35,1.54.5,2.17.04.16.07.31.11.46.05.18.1.36.16.53.13.34.29.64.47.91.75,1.1,1.81,1.45,2.49,1.43.71-.02,1.15-.35,1.4-.77.25-.43.33-1.03.24-1.73-1.13.78-2.42.55-2.84-1.41-.88-3.19-1.4-6.35-2.27-9.46l-5.22-18.21c-.44-1.52-.85-3.04-1.32-4.55l-1.43-4.54c-.9-3.05-1.99-5.99-2.95-9-2.68-8.21-5.77-16.19-8.43-24.37-1.13-3.73-2.6-7.32-3.49-11.19-.85-3.54-1.6-7.25-3.34-10.38-.15,3.19,1.07,6.84,2.06,9.98Z"/>
      <path d="M671.12,1645.28s-.01.11-.01.11v.02s.01-.13.01-.13Z"/>
    </g>
    <g>
      <polygon points="2504.78 2635.46 2504.78 2635.48 2504.89 2635.51 2504.78 2635.46"/>
      <path d="M2604.02,2643.91c.44-.46,1.25-.8,1.25-1.71.03-4.27,1.85-8.22,2.62-12.35,2.02-10.8,4.55-21.66,6.96-32.36,1.93-8.61,3.82-17.23,5.34-25.99l2.63-16.28c.86-5.43,1.61-10.9,2.71-16.2l.38-2.01.46-2.01.92-4.02,1.82-8.04,1.8-8.05.89-4.03.44-2.01.11-.51c.03-.2.08-.4.09-.61.04-.41,0-.83-.06-1.23-.31-1.87-1.93-3.41-3.75-3.69l-4.63-.85-9.26-1.71-9.25-1.78-4.62-.93-4.66-.82c-1.29-.23-2.59-.46-3.88-.69l-3.89-.54c-2.59-.35-5.18-.66-7.76-.87-8.37-.72-16.73-1.7-24.87-3.4-8.31-1.86-16.67-3.32-24.98-5.23l-1.97-.45c-.7-.18-1.48-.17-2.19.03-1.44.39-2.63,1.61-2.97,3.06-.52,2.71-.96,5.34-1.43,8.01-.93,5.33-1.88,10.65-2.98,15.92-1.56,7.22-2.97,14.55-4.14,21.85-1.21,7.31-2.37,14.62-3.34,21.94-.26,1.77-.55,3.53-.84,5.29-.28,1.76-.58,3.52-.93,5.29l-2.05,10.58c-1.38,7.05-2.72,14.11-3.98,21.18-1.59,8.89-3.29,17.89-5.22,26.79-.32,1.47-.56,2.97-.81,4.48-.06.4-.13.7-.19,1.21-.04.47-.03.96.08,1.44.2.95.72,1.86,1.49,2.52.2.18.61.53,1.2.8.58.29,1.41.4,1.9.42,1.13.07,2.19-.08,2.33-.89-.73-.27-1.53-.41-2.35-.5-.42-.05-.81-.07-1.19-.18-.38-.11-.74-.28-1.05-.52-1.02-.74-1.44-2.08-1.17-3.3l.77-3.94,1.46-7.89c.96-5.27,1.93-10.53,3.09-15.77,1.59-7.2,3.25-14.47,4.51-21.64.96-5.47,2.02-10.93,3.06-16.39l1.38-8.24c.38-2.75.75-5.51,1.08-8.27.58-4.75,1.31-9.5,2.11-14.25l1.22-7.12c.45-2.36.91-4.71,1.36-7.06,1.53-7.48,2.95-15,4.27-22.53l.99-5.65.49-2.82c.11-.86.44-1.49,1.01-2.02.56-.51,1.31-.79,2.07-.79.19,0,.38.02.57.06l.69.14,1.4.29,5.61,1.15,14.41,3.07c2.41.5,4.78,1.09,7.22,1.51,2.44.41,4.88.86,7.32,1.23l14.62,1.79,7.32.84c2.43.3,4.9.48,7.3.86,2.27.34,4.55.63,6.82,1.05l6.81,1.34c4.54.92,9.07,1.83,13.6,2.74l6.57,1.28c1.05.14,1.9.64,2.47,1.46.57.81.74,1.83.49,2.83l-2.84,13.08-2.88,13.07c-.53,2.17-.91,4.37-1.33,6.56l-.64,3.29c-.21,1.1-.36,2.2-.54,3.31l-2.23,13.86-1.1,6.93c-.37,2.31-.7,4.63-1.17,6.91-.46,2.29-.83,4.59-1.36,6.87l-1.55,6.85-3.08,13.7c-1.36,6.06-2.4,12.22-4,18.18-1.66,6.2-2.73,12.59-4.74,18.65-.41,1.23-.61,2.52-.39,3.58.13.64.26,1.36.76.84Z"/>
      <path d="M2514.88,2636.99c6.5.29,12.99.63,19.48,1.04,3.25.24,6.49.35,9.68.82,3.2.42,6.34,1.22,9.52,1.92,7.72,1.71,15.43,3.18,23.28,4.63,6.57,1.11,13.29,1.71,19.87,2.77.41.07.8.13,1.16.19.18.03.36.06.52.08.17.03.41.05.6.07.8.03,1.49-.11,2.04-.32,1.11-.43,1.72-1.05,2.04-1.58.32-.54.35-1.04.19-1.51-.15-.46-.52-.94-1.1-1.36-.18,1.33-1.56,2.69-3.15,2.65-.25,0-.74-.08-1.12-.13l-1.2-.18c-.8-.13-1.59-.26-2.38-.39-1.58-.26-3.14-.53-4.73-.7-6.2-.69-12.45-1.21-18.54-2.19-6.14-1.02-12.27-2.26-18.37-3.53-2.09-.43-4.16-.9-6.3-1.22-2.12-.31-4.25-.55-6.39-.66-4.24-.22-8.48-.44-12.72-.77-3.85-.3-7.69-.27-11.58-.72-3.58-.41-7.28-.98-10.78-.42,2.91,1.23,6.72,1.34,9.97,1.49Z"/>
      <path d="M2504.79,2635.46s.1.05.1.05h.02s-.12-.05-.12-.05Z"/>
    </g>
    <g>
      <polygon points="2369.45 2958.84 2369.43 2958.84 2369.43 2958.96 2369.45 2958.84"/>
      <path d="M2389.01,3057.47c.6.22,1.23.83,2.09.47,3.98-1.66,8.38-1.55,12.53-2.48,5.42-1.23,10.91-2.28,16.41-3.35,5.49-1.04,10.99-2.09,16.44-3.12,4.39-.82,8.77-1.7,13.14-2.58,2.19-.41,4.38-.93,6.56-1.43,2.19-.49,4.38-.97,6.54-1.52l16.18-4.02,4.04-1.03,2.02-.52,1.01-.26c.33-.09.66-.16,1.1-.31,1.62-.61,2.83-1.94,3.4-3.51.28-.78.4-1.68.29-2.5l-.22-2.07-1.83-16.58-.95-8.28c-.28-2.77-.76-5.57-1.35-8.31l-4.66-18.49-2.27-9.25c-.78-3.08-1.37-6.18-1.79-9.31-.63-5.23-1.15-10.55-2.06-15.69-1.47-8.37-2.39-16.81-3.6-25.19-1.22-8.54-2.8-16.94-3.99-25.51-.25-1.48-1.41-2.78-2.87-3.18-.72-.22-1.53-.21-2.22-.03l-2,.43-8.01,1.76c-5.34,1.18-10.68,2.35-16.03,3.36-1.84.37-3.69.58-5.53.87-1.85.27-3.67.57-5.55.75l-11.17,1.25c-7.44.85-14.87,1.79-22.26,2.83-7.2,1-14.41,1.86-21.62,2.74l-5.41.66-1.35.17-.68.08-.34.04-.42.07c-1.15.23-2.25.9-2.95,1.87-.71.96-1.03,2.2-.91,3.38l.06.43.07.35.14.67.27,1.33,1.13,5.34c1.92,8.93,3.86,17.99,5.45,27.06.53,2.99,1.37,5.97,1.8,9.14.12.86.12,4.99,1.77,4.85.15-1.57-.29-3.27-.57-4.94-1.8-10.69-4.47-21.18-6.35-31.86-.64-3.67-1.28-7.36-1.92-11.05-.07-.45-.18-.94-.23-1.35-.05-.41-.02-.82.08-1.22.19-.79.71-1.48,1.38-1.91.34-.21.72-.36,1.11-.45.37-.07.9-.12,1.33-.18.92-.12,1.83-.25,2.74-.37,11.13-1.58,22.31-2.7,33.43-4.45,9.55-1.55,19.29-2.36,28.95-3.56l5.78-.9c1.92-.33,3.8-.75,5.69-1.13,3.78-.79,7.56-1.6,11.34-2.43l11.29-2.51c1.52-.35,3.15.71,3.45,2.27l.92,5.67c1.52,9.81,3.02,19.64,4.38,29.46,1.32,9.83,2.62,19.68,4.13,29.49.33,2.32.76,4.64,1.23,6.94.48,2.31,1.08,4.57,1.6,6.85,1.07,4.55,2.15,9.11,3.22,13.65l1.6,6.58c.53,2.2,1.13,4.36,1.54,6.56.44,2.21.77,4.41,1.02,6.66l.81,6.72,1.58,13.44.73,6.73c.21,2.23-1.45,4.46-3.64,4.89-9.18,2.29-18.36,4.58-27.54,6.87l-6.91,1.52-6.98,1.32-13.95,2.64c-6.17,1.18-12.3,2.68-18.48,3.55-6.42.93-12.79,2.47-19.22,3.02-1.31.11-2.58.43-3.48,1.06-.55.38-1.16.77-.48,1.03Z"/>
      <path d="M2370.56,2969.11c.68,3.21,1.4,6.43,2.01,9.65.54,3.23,1.18,6.43,1.57,9.7.87,6.52,1.66,13.04,2.34,19.58.77,7.94,2.26,15.83,3.3,23.75.85,6.68,2.16,13.38,3.02,20.06.11.84.21,1.58.3,2.23.14.8.45,1.47.8,1.97.73,1.01,1.56,1.42,2.19,1.54.64.12,1.13-.03,1.51-.36.38-.32.67-.85.83-1.54-.66.17-1.39.08-2.01-.28-.62-.36-1.11-.99-1.26-1.76-.57-3.22-.78-6.45-1.35-9.62l-3.44-18.63c-.59-3.1-1.04-6.2-1.55-9.31-.45-3.12-.84-6.25-1.22-9.38-.51-4.29-1.13-8.54-1.74-12.79-.63-4.25-1.19-8.49-1.89-12.76-.53-3.89-1.64-7.61-2.18-11.54-.52-3.6-.92-7.37-2.36-10.65-.45,3.16.43,6.91,1.12,10.13Z"/>
      <path d="M2369.45,2958.85s-.02.11-.02.11v.02s.02-.13.02-.13Z"/>
    </g>
    <g>
      <polygon points="2184.95 3140.93 2184.93 3140.93 2184.9 3141.03 2184.95 3140.93"/>
      <path d="M2175.59,3231.9c-.48-.37-.89-1.12-1.73-.99-3.95.59-7.82-.65-11.73-.81-2.56-.1-5.12-.25-7.69-.41-2.61-.14-5.18-.18-7.8-.12-5.15.18-10.29.28-15.4.37l-3.08.07c-.56.02-.89.01-1.32-.1-.4-.11-.78-.29-1.1-.54-.66-.5-1.1-1.28-1.19-2.11-.04-.37-.02-.96-.02-1.46v-1.54c.02-4.11.04-8.22.15-12.33l.18-7.68c.07-2.55.05-5.15.19-7.64.07-1.26.17-2.53.3-3.78.12-1.25.31-2.49.49-3.77l1.06-7.6,2.04-15.22.49-3.81c.15-1.27.24-2.57.36-3.85.23-2.57.46-5.14.53-7.7.53-11.68.84-23.37,1.8-35.04.41-4.84.92-9.73,1.04-14.54.19-7.83.89-15.61,1.5-23.38.62-7.91.84-15.8,1.5-23.72l.15-1.88c.03-.65.11-1.16.36-1.69.47-1.02,1.47-1.79,2.58-1.96.28-.05.56-.06.84-.04l.93.08,1.88.17,3.76.32c5.02.42,10.02.91,15.01,1.45,6.88.75,13.75,1.25,20.63,1.81l5.16.39,2.58.18.32.02.23.03c.15.03.31.05.45.11.29.1.57.23.8.43.47.38.83.9.96,1.49.07.29.09.6.06.91l-.13,1.27-.49,5.14c-.6,6.67-1.32,13.31-2.03,19.96l-1.1,9.95c-.39,3.32-.76,6.65-1.1,9.98-.82,8.38-1.81,16.82-2.81,25.29-.33,2.79-.29,5.64-.72,8.56-.11.79-1.21,4.45.42,4.75.56-1.35.59-2.96.76-4.52.27-2.48.49-4.96.7-7.45l.67-7.44c.48-4.96,1.01-9.92,1.71-14.86.96-6.8,2.1-13.65,2.71-20.41.47-5.16,1-10.3,1.53-15.45l.77-7.73.35-3.87.16-1.94.08-.97c.03-.33.03-.7-.02-1.05-.17-1.21-.88-2.31-1.91-2.95-.51-.32-1.09-.52-1.69-.6-.6-.06-1.13-.07-1.69-.11-2.23-.13-4.47-.3-6.7-.47-4.47-.37-8.94-.75-13.4-1.12-7.08-.66-14.15-1.31-21.23-1.97l-5.32-.46-1.33-.11c-.44-.03-.86-.09-1.44-.08-1.08.04-2.14.49-2.94,1.2-.81.71-1.33,1.73-1.5,2.78-.07.57-.07.93-.1,1.4l-.08,1.33-.32,5.32c-1.13,18.25-2.72,36.48-3.59,54.74-.41,8.6-1.01,17.22-1.5,25.8-.24,4.15-.43,8.3-.61,12.45-.06,2.08-.31,4.13-.45,6.19l-.25,3.1-.37,3.09c-1.01,8.25-2.05,16.49-3.3,24.71-.36,2.15-.58,4.33-.73,6.51-.16,2.18-.14,4.37-.2,6.54l-.22,13.07-.1,6.54-.05,3.27c0,.56-.03,1.07-.01,1.66.02.61.17,1.22.44,1.77.54,1.11,1.57,1.96,2.77,2.26.59.17,1.25.16,1.76.14l1.63-.03,6.54-.14c2.89-.06,5.79-.21,8.68-.34,2.88-.16,5.76-.12,8.6.17,5.91.73,11.96.88,17.8,1.99,1.19.23,2.4.24,3.35-.13.58-.23,1.22-.45.68-.87Z"/>
      <path d="M2183.29,3150.3c-.88,12.12-.69,24.25-1.36,36.34-.29,7.36-.45,14.65-1.24,21.99-.66,6.17-.87,12.45-1.51,18.62-.09.74-.13,1.53-.24,1.88-.11.42-.3.75-.48,1.02-.38.53-.75.8-1.02,1.09-.28.27-.47.58-.71.97-.24.41-.5.91-1.07,1.55,2.58.15,4.92-1.76,5.35-4.23.16-1.56.32-3.1.48-4.63.17-1.48.33-2.95.41-4.44l.78-17.43c.26-5.81.39-11.66.57-17.45.14-3.97.16-7.93.19-11.88l.05-5.93c.02-1.98.05-3.96.2-5.92.12-1.79.15-3.58.2-5.37.09-1.79.23-3.59.47-5.4.45-3.32,1.07-6.76.55-10.03-1.27,2.68-1.42,6.23-1.61,9.25Z"/>
      <path d="M2184.95,3140.94s-.05.09-.05.09v.02s.05-.11.05-.11Z"/>
    </g>
    <g>
      <polygon points="1792.06 3207 1792.04 3206.99 1792.01 3207.09 1792.06 3207"/>
      <path d="M1785.82,3293.09c-.46-.35-.88-1.07-1.67-.91-3.71.77-7.41-.29-11.11-.26-2.42.01-4.85,0-7.28-.05-1.21-.03-2.43-.04-3.64-.1l-3.62-.25-3.62-.27c-1.21-.12-2.41-.27-3.62-.41-2.41-.29-4.82-.58-7.21-.88-3.86-.48-7.72-.89-11.59-1.3l-1.43-.16c-.4-.05-.79-.17-1.16-.36-.73-.38-1.36-.99-1.76-1.71-.2-.36-.34-.76-.41-1.15-.04-.21-.05-.38-.06-.62l-.02-.73-.05-2.91c-.06-4.84-.14-9.68-.25-14.51l-.18-7.26-.1-3.63.03-3.59.02-3.59c0-1.2.09-2.41.13-3.62l.29-7.25.51-14.51c.4-11.07.16-22.12.56-33.18.16-4.59.41-9.23.28-13.78-.08-1.85,0-3.69.04-5.53.06-1.84.1-3.68.26-5.52.31-3.68.61-7.35.92-11.02.62-7.47.85-14.94,1.52-22.41.06-.58.08-1.21.2-1.71.13-.52.36-1.01.69-1.44.67-.84,1.69-1.4,2.77-1.44l7.1.27c4.76.19,9.51.38,14.24.74,6.5.49,13.02.92,19.53,1.26,3.26.18,6.51.34,9.76.47l2.44.09,1.22.04c.34.02.6.04.89.14,1.13.34,2.03,1.42,2.14,2.6.03.23.03.72.03,1.09l.02,1.19.03,2.37.04,4.74.03,9.48c0,3.16.05,6.33,0,9.47l-.03,4.72-.06,4.74c-.04,3.98-.09,7.98-.17,11.99-.11,4-.15,8.05-.49,12.01-.19,2.63-.04,5.31-.44,8.07-.1.75-1.13,4.22.5,4.49.53-1.28.54-2.81.68-4.28l.31-3.52.17-3.54c.1-2.36.21-4.71.21-7.07.05-4.71.11-9.42.36-14.14.36-6.47.8-13.05.64-19.46-.11-4.89-.13-9.78-.16-14.67l-.07-7.34c.03-1.35-.63-2.7-1.66-3.55-.52-.43-1.13-.74-1.78-.91-.32-.09-.66-.12-.99-.14h-.92c-8.42-.06-16.92-.7-25.35-1.26-6.7-.43-13.43-.83-20.15-1.08l-5.04-.2-2.52-.09c-.98-.06-2.03.21-2.88.74-.85.54-1.54,1.32-1.93,2.24-.2.46-.33.95-.37,1.45-.04.47-.06.85-.09,1.28l-.32,5.03c-.57,8.62-1.26,17.24-1.91,25.86-.37,4.29-.53,8.66-.68,12.99-.05,4.32-.08,8.64-.06,12.96.02,8.13-.19,16.3-.4,24.41-.24,7.86-.48,15.7-.72,23.55l-.38,11.77c.01,3.93-.1,7.86.03,11.79l.49,24.71c-.05,2.24,1.59,4.38,3.78,4.97.57.15,1.08.18,1.59.25l1.53.19,3.07.37,12.27,1.47c2.72.31,5.44.61,8.19.74,2.74.16,5.48.39,8.18.58,5.63.47,11.34.33,16.9,1.17,1.13.17,2.28.13,3.16-.28.54-.25,1.14-.51.61-.9Z"/>
      <path d="M1790.56,3215.87l-.42,8.58c-.01,2.88-.12,5.77-.1,8.63.13,5.72.18,11.44.13,17.17-.04,3.48.09,6.95.05,10.41,0,1.73.01,3.46-.04,5.2-.06,1.74-.14,3.47-.26,5.21-.4,5.85-.35,11.79-.73,17.64-.02.37-.05.71-.07,1.03-.03.24-.07.46-.13.66-.12.4-.31.7-.48.95-.38.49-.71.76-.96,1.04-.26.27-.43.56-.64.97-.21.41-.44.93-.95,1.58,2.45.03,4.57-1.76,5.1-4.06.1-.42.15-.96.16-1.3l.05-1.07c.05-.71.1-1.41.15-2.11.1-1.4.21-2.8.22-4.21l.05-16.49-.1-8.27c-.06-2.75-.13-5.49-.14-8.24-.03-3.76-.16-7.5-.3-11.23l-.19-5.6c0-1.86.07-3.72.13-5.58.03-.85.04-1.69.05-2.54l.11-2.54c.08-1.7.18-3.4.39-5.11.4-3.14.96-6.4.38-9.49-1.22,2.55-1.31,5.9-1.45,8.76Z"/>
      <path d="M1792.06,3207s-.05.09-.05.09v.02s.05-.11.05-.11Z"/>
    </g>
    <g>
      <polygon points="1371.98 2825.17 1371.96 2825.17 1371.92 2825.25 1371.98 2825.17"/>
      <path d="M1425.65,2857.42c.43-.33,1.22-.53,1.23-1.27.01-3.46,1.8-6.49,2.54-9.78,1.91-8.59,4.51-17.1,6.74-25.62,1.77-6.84,3.27-13.74,5.1-20.56l1.7-6.35c.6-2.09,1.26-4.18,1.98-6.22l4.46-12.4,4.35-12.45c1.5-4.13,2.7-8.48,3.6-12.77l3.29-14.7,1.71-7.33.44-1.83c.16-.57.3-1.35.21-2.02-.14-1.4-.94-2.7-2.13-3.47-.47-.33-1.1-.54-1.57-.67l-1.5-.46-3-.92c-2.01-.6-4.02-1.16-6.03-1.62-6.56-1.5-12.96-3.49-19.38-5.38-6.53-1.93-13.14-3.46-19.67-5.43l-1.55-.46-.78-.23c-.29-.08-.58-.13-.88-.15-1.19-.08-2.4.37-3.26,1.2-.43.41-.77.91-1,1.46-.23.57-.32,1.08-.47,1.6l-.82,3.14c-1.1,4.18-2.2,8.36-3.46,12.48-1.71,5.67-3.57,11.28-5.09,17.05-1.54,5.75-2.82,11.51-4.04,17.3-.58,2.81-1.19,5.62-1.81,8.42l-.94,4.2-1.1,4.11c-.38,1.37-.71,2.74-1.12,4.11l-1.26,4.12c-.83,2.75-1.65,5.51-2.43,8.27-1.93,6.98-4.11,13.91-6.05,21.04-.67,2.34-.87,4.77-1.6,7.21-.19.66-1.64,3.63-.06,4.12.69-1.07.88-2.45,1.2-3.75.51-2.08.98-4.17,1.44-6.26l1.54-6.22c1.06-4.14,2.32-8.24,3.65-12.31,1.86-5.59,3.9-11.2,5.46-16.81l1.64-6.49c.54-2.16.98-4.34,1.47-6.5.96-4.34,1.92-8.68,2.75-13.05,1.42-7.54,3.5-14.95,5.87-22.27,1.8-5.85,3.41-11.74,4.97-17.65l1.16-4.43.14-.55c.05-.14.08-.29.15-.42.11-.28.27-.53.46-.76.38-.46.9-.82,1.48-1,.58-.19,1.2-.2,1.81-.03l2.21.59,4.42,1.2c15.15,4.15,30.16,8.76,45.37,12.68,1.63.31,2.86,1.81,2.89,3.46.01.42-.04.77-.17,1.24l-.32,1.35-.65,2.7c-.88,3.59-1.77,7.19-2.65,10.77-.84,3.47-1.64,6.95-2.42,10.43-.75,3.48-1.69,6.91-2.84,10.28-2.27,6.77-4.56,13.52-7.06,20.21-1.3,3.5-2.68,6.99-3.72,10.6-1.05,3.61-1.9,7.24-2.85,10.87-1.88,7.24-3.65,14.53-5.59,21.74-1.27,4.78-2.37,9.67-3.91,14.35-1.61,4.87-2.64,9.96-4.6,14.69-.4.96-.6,1.98-.37,2.87.14.53.26,1.13.76.75Z"/>
      <path d="M1369.41,2832.94l-1.49,7.66c-.11.65-.29,1.23-.34,2.02-.03.74.11,1.48.4,2.15.55,1.34,1.68,2.44,3.07,2.9,4.94,1.63,9.85,3.33,14.73,5.13,1.48.55,2.97,1.07,4.47,1.57,1.51.52,3.05.94,4.58,1.34,3.08.82,6.2,1.36,9.26,2.17,5.16,1.33,10.48,2.22,15.65,3.53.71.19,1.51.24,2.12.14.63-.09,1.15-.28,1.57-.49.84-.44,1.3-.97,1.52-1.43.41-.92.01-1.7-1.12-2.52-.18,1.05-1.1,2.13-2.36,2.36-.24.04-.48.06-.72.03-.12,0-.24-.04-.35-.05l-.45-.11c-.62-.16-1.25-.32-1.86-.48-1.24-.33-2.47-.65-3.72-.89l-14.74-2.68c-2.44-.42-4.84-1-7.22-1.68-2.35-.7-4.73-1.54-7.08-2.35-3.22-1.13-6.47-2.14-9.71-3.15l-2.43-.76-1.21-.38c-.41-.13-.81-.24-1.14-.41-1.38-.66-2.33-2.23-2.27-3.79.03-.67.26-1.45.39-2.21l.43-2.27c.29-1.52.59-3.03,1.02-4.54.78-2.77,1.74-5.62,1.55-8.49-1.52,2.11-2.03,5.11-2.51,7.67Z"/>
      <path d="M1371.98,2825.18s-.06.07-.06.07v.02s.06-.09.06-.09Z"/>
    </g>
  </g>
  <g id="Green">
    <g>
      <polygon points="2734.59 2713.26 2734.57 2713.25 2734.52 2713.34 2734.59 2713.26"/>
      <path d="M2806.37,2744.73c.48-.25,1.3-.32,1.43-1.06.61-3.43,2.89-6.14,4.18-9.28,3.38-8.2,7.31-16.26,11.22-24.19,3.15-6.38,6.03-12.89,9.24-19.24,1.99-3.96,3.96-7.93,5.9-11.91l1.45-2.99.73-1.51c.25-.54.47-1.07.67-1.61.77-2.15,1.38-4.37,1.61-6.67,1-8.8,1.91-17.62,2.79-26.43l1.47-15.11c.12-1.42-.35-2.79-1.11-3.91-.39-.56-.87-1.06-1.43-1.47-.28-.21-.58-.38-.9-.53-.31-.14-.59-.25-.89-.38-2.33-.98-4.66-1.98-6.98-3-3.85-1.7-7.69-3.52-11.61-4.93-3.21-1.11-6.26-2.53-9.31-3.95-3.04-1.44-5.99-3.11-8.98-4.66-3.04-1.6-6.11-3.11-9.18-4.62l-4.6-2.29-1.15-.58c-.37-.2-.83-.4-1.28-.49-.91-.21-1.89-.09-2.74.32-.54.26-1.02.64-1.4,1.1-.39.46-.63,1.03-.85,1.5l-1.36,2.97-2.66,5.97c-1.77,3.98-3.55,7.96-5.46,11.85l-.99,2.01-.92,2.05-1.85,4.11c-1.22,2.75-2.26,5.53-3.39,8.3-2.2,5.55-4.35,11.11-6.33,16.73-.95,2.66-2.12,5.31-3.44,7.81l-4.08,7.66c-2.73,5.11-5.44,10.2-8.04,15.42-.8,1.67-1.53,3.35-2.24,5.07-.71,1.73-1.32,3.45-1.99,5.16-1.31,3.43-2.67,6.85-4.08,10.24-.94,2.24-1.56,4.63-2.64,6.95-.14.31-.69,1.15-1.01,2.01-.16.44-.26.83-.24,1.25,0,.44.23.76.62.87.33-.55.68-1.08.94-1.71.27-.61.5-1.26.76-1.88,1.65-3.99,3.13-8.04,4.63-12.08l2.27-6.06c.77-2.02,1.55-4.03,2.51-5.96,1.27-2.68,2.81-5.23,4.26-7.84,1.46-2.6,2.88-5.2,4.2-7.82,2.01-4.01,4.13-7.93,6.21-11.93.99-2.03,1.9-4.08,2.69-6.2.76-2.11,1.5-4.22,2.21-6.35,1.23-3.65,2.61-7.27,4.05-10.88,1.45-3.6,2.88-7.22,4.51-10.7.64-1.39,1.21-2.8,1.87-4.19l1.97-4.18c1.3-2.79,2.56-5.6,3.82-8.41l3.74-8.45c.31-.68.63-1.46.92-2.06.28-.55.73-1.01,1.27-1.29.54-.29,1.18-.41,1.79-.33.31.04.61.12.9.25.3.13.67.33,1.01.5,7.07,3.56,14.08,7.22,21.11,10.85,1.77.89,3.6,1.71,5.39,2.56l2.71,1.25,2.74,1.14c3.65,1.51,7.32,3,11,4.45l5.18,2.09,2.58,1.07,1.29.54c.38.17.74.39,1.06.66,1.28,1.09,2.09,2.85,1.84,4.52-.22,1.85-.44,3.7-.65,5.55-.82,7.15-1.48,14.31-2.16,21.47l-1.07,10.73c-.21,1.78-.34,3.59-.64,5.35-.34,1.76-.86,3.49-1.52,5.15-6.62,13.55-13.24,27.1-19.87,40.65-2.2,4.49-4.08,9.18-6.41,13.57-2.43,4.57-4.32,9.44-7.06,13.81-.56.89-.93,1.87-.86,2.78.04.55.06,1.16.62.87Z"/>
      <path d="M2739.09,2719.71c4.89,1.89,9.75,3.83,14.59,5.85,2.42,1.01,4.83,2.03,7.23,3.07,2.41,1.04,4.8,2.11,7.14,3.26,2.88,1.34,5.76,2.69,8.63,4.03,2.88,1.35,5.76,2.7,8.57,4.2,4.74,2.52,9.74,4.66,14.49,7.17.27.14.63.34.98.45.35.12.69.2,1.01.24.65.08,1.21.02,1.69-.09.95-.25,1.52-.68,1.84-1.1.6-.84.33-1.69-.64-2.68-.35,1.01-1.45,1.87-2.71,1.76-.51-.04-.84-.2-1.48-.54-.57-.31-1.14-.61-1.71-.91-1.13-.61-2.26-1.22-3.44-1.75l-13.8-6.12c-4.59-2.07-9.18-4.14-13.77-6.21-6.28-2.85-12.72-5.11-19-7.86-2.86-1.24-5.81-2.17-8.65-3.57-.65-.32-1.31-.65-1.96-.97l-.98-.47c-.3-.14-.56-.34-.82-.54-.99-.86-1.61-2.09-1.79-3.56-.36.57-.51,1.33-.41,2.11.1.78.47,1.56,1.04,2.2.29.31.62.59,1,.81.18.12.38.2.57.29l.48.2c.65.25,1.28.5,1.89.74Z"/>
      <path d="M2734.58,2713.26s-.06.07-.06.07v.02s.06-.09.06-.09Z"/>
    </g>
    <g>
      <polygon points="2071.2 1270.75 2071.2 1270.73 2071.1 1270.72 2071.2 1270.75"/>
      <path d="M2076.69,1345.14c.46.28.94.95,1.62.68,3.22-1.25,6.68-.69,10-1.2,8.67-1.32,17.52-2.13,26.23-2.83,7.01-.57,14.01-1.38,21.04-1.87,8.74-.6,17.49-1.28,26.22-2.27,8.71-.98,17.41-2.04,26.11-3.15l3.72-.48c.57-.06,1.4-.18,2.03-.52.65-.33,1.23-.79,1.67-1.37.44-.58.74-1.25.88-1.95.15-.7.06-1.47-.02-2.05l-.42-3.73c-.56-4.98-1.07-9.96-1.46-14.95-.33-4.15-.56-8.35-1.17-12.43-1.03-6.63-1.27-13.3-1.56-19.97-.31-6.78-1.02-13.51-1.28-20.31-.09-2.16-.18-4.27-.36-6.48-.15-1.18-.91-2.31-2.02-2.81-.55-.26-1.15-.37-1.75-.33-.61.03-1.13.21-1.65.33-4.18,1.04-8.37,2.07-12.57,2.94-5.8,1.15-11.55,2.52-17.35,3.12-5.87.63-11.73,1.31-17.56,2.17-2.83.45-5.66.74-8.55,1.27-1.43.26-2.84.55-4.26.89-1.44.35-2.79.72-4.18,1.08-5.54,1.45-11.08,2.91-16.58,4.51-3.46,1.08-6.94,1.79-10.45,2.62-3.56.68-7.16,1.27-10.75,1.81-2.38.36-4.72,1.05-7.23,1.33-.68.08-3.97-.12-3.81,1.53,1.25.22,2.59-.13,3.91-.33,4.22-.65,8.41-1.47,12.6-2.29,2.09-.43,4.2-.76,6.28-1.24,2.08-.47,4.17-.92,6.28-1.33,5.73-1.34,11.53-2.62,17.11-4.22,2.13-.61,4.27-1.2,6.4-1.78,2.12-.55,4.29-.98,6.46-1.34,4.36-.61,8.78-1.18,13.15-1.9,3.76-.61,7.57-1.07,11.39-1.47,1.92-.2,3.83-.48,5.74-.78,1.92-.3,3.8-.71,5.67-1.09,5.97-1.22,11.91-2.63,17.82-4.09l1.11-.28.55-.14c.14-.02.29-.07.43-.07.57-.06,1.13.08,1.58.38.45.3.78.78.94,1.35.14.5.14,1.37.21,2.11l.63,9.11c.51,7.81.9,15.63,1.32,23.45.49,7.85,1.33,15.63,2.27,23.4.45,3.66.82,7.33,1.17,11l.52,5.51.26,2.75.13,1.37c.04.42.02.8-.07,1.19-.17.75-.61,1.44-1.2,1.93-.61.51-1.31.76-2.17.83l-5.3.66-10.58,1.38c-7.05.9-14.11,1.86-21.21,2.45-14.87,1.2-29.75,2.34-44.63,3.63-4.93.43-9.86,1.23-14.77,1.49-5.11.27-10.21,1.16-15.31,1.06-1.04-.02-2.06.17-2.8.7-.45.32-.95.65-.42.98Z"/>
      <path d="M2064.4,1275.1c-.03.84.11,1.44.18,2.09l.24,1.93.46,3.86.85,7.73c.54,5.16.96,10.32,1.34,15.49.46,6.3,1.53,12.5,1.97,18.8.37,5.3,1.2,10.62,1.59,15.92.02.29.06.75.16,1.08.09.35.21.68.35.96.28.58.63,1.01.97,1.35.7.66,1.36.91,1.88.96,1.01.06,1.6-.6,1.94-1.95-1.04.22-2.34-.26-2.93-1.37-.12-.21-.19-.44-.25-.67-.03-.12-.03-.23-.05-.35l-.04-.48c-.04-.64-.09-1.28-.13-1.92-.08-1.27-.16-2.54-.33-3.8l-2.11-14.79-1.02-7.4c-.3-2.46-.56-4.93-.8-7.4-.59-6.78-1.58-13.46-2.16-20.22-.26-3.07-.86-6.09-.96-9.19-.01-1.36.78-2.62,1.81-3.39.53-.39,1.1-.67,1.77-.85.69-.21,1.35-.46,1.99-.78-.63-.15-1.29-.22-1.96-.23-.31,0-.72,0-1.12.1-.4.08-.79.25-1.15.45-1.47.83-2.38,2.48-2.45,4.05Z"/>
      <path d="M2071.19,1270.74s-.09-.03-.09-.03h-.02s.1.03.1.03Z"/>
    </g>
    <g>
      <polygon points="3773.5 2364.05 3773.48 2364.04 3773.43 2364.14 3773.5 2364.05"/>
      <path d="M3745.99,2456.14c-.43-.46-.72-1.27-1.61-1.31-4.17-.18-7.95-2.14-11.96-3.05-5.24-1.19-10.48-2.51-15.69-3.94-5.2-1.43-10.36-3.01-15.48-4.59-4.12-1.27-8.27-2.47-12.41-3.68l-12.44-3.65c-10.33-2.97-20.67-5.85-31.09-8.55-5.23-1.35-10.46-2.52-15.7-3.73l-15.72-3.56-1.12-.25c-.36-.08-.78-.17-1.05-.25-.59-.19-1.12-.56-1.5-1.05-.38-.5-.6-1.11-.63-1.74,0-.32.02-.63.1-.95l.3-1.1,2.47-8.87c1.66-5.91,3.36-11.8,5.18-17.67.77-2.43,1.54-4.88,2.22-7.35.71-2.47,1.38-4.94,1.87-7.41,1.68-8.04,3.86-15.94,5.95-23.85l.78-3.02.38-1.51c.12-.48.28-.89.52-1.31.48-.81,1.21-1.49,2.05-1.95.42-.23.87-.4,1.33-.49.44-.1.95-.08,1.48-.11,4.15-.14,8.3-.27,12.47-.29,10.54-.06,21.14-.63,31.66-.78,7.23-.06,14.47-.12,21.71-.17,7.26-.12,14.49-.45,21.69-.95,3.5-.24,7.01-.45,10.51-.64l5.26-.28c1.76-.11,3.48-.06,5.21-.1,3.45-.1,6.97.05,10.48.13,3.51.08,7.02.14,10.54.17,2.21.02,4.42.04,6.64.06l3.33.04,1.66.03c.43,0,.83.11,1.18.3.71.37,1.12,1.11,1.13,1.94,0,.21-.03.42-.07.63l-.18.82-.37,1.63-1.52,6.51c-.69,2.86-1.05,5.83-1.87,8.81-.22.8-1.81,4.48-.23,4.99.74-1.34.99-3.01,1.37-4.61,1.21-5.09,2.25-10.22,3.29-15.34l.39-1.92c.13-.63.3-1.31.18-1.98-.15-1.37-1.3-2.5-2.63-2.72-.67-.12-1.32-.07-1.97-.1l-1.96-.05-3.93-.15c-7.19-.34-14.47-.79-21.58-.87l-8.18.19-8.13.45c-5.42.3-10.85.61-16.27,1.05-4.66.39-9.35.55-14.05.63-4.7.03-9.41.05-14.11.08-7.47.06-14.94.34-22.39.58-7.47.23-14.93.45-22.38.68l-7.2.17c-.55,0-1.33.03-1.96.24-.65.2-1.26.5-1.81.89-1.09.77-1.98,1.86-2.38,3.2l-3.59,13.96c-2.41,9.29-4.64,18.62-7.14,27.86-2.37,8.71-5.04,17.38-7.58,26.03l-.91,3.14c-.36,1.18-.18,2.54.51,3.57.65,1.05,1.87,1.74,2.99,1.92l3.19.72,12.77,2.82c8.51,1.87,17.03,3.75,25.41,6.19l13.21,3.7c4.4,1.23,8.82,2.43,13.2,3.73,8.76,2.59,17.5,5.31,26.26,7.96,5.8,1.78,11.78,3.13,17.53,4.92,5.98,1.87,12.19,3.17,18.02,5.39,1.18.45,2.43.7,3.48.52.64-.11,1.34-.21.85-.73Z"/>
      <path d="M3770.57,2373.59c-1.22,6.22-2.59,12.43-4.02,18.62-1.43,6.19-2.94,12.36-4.55,18.51-.96,3.73-1.91,7.46-2.87,11.19-1,3.73-2.01,7.45-3.17,11.14-1.95,6.21-3.48,12.62-5.42,18.84-.12.39-.23.75-.34,1.09-.1.34-.21.69-.29.87-.18.43-.42.74-.66.99-.49.49-.92.72-1.25.96-.34.24-.6.49-.91.85-.32.36-.68.81-1.37,1.33,2.64.64,5.37-.96,6.2-3.45.23-.79.46-1.58.69-2.36.24-.75.47-1.5.71-2.24.48-1.49.95-2.97,1.34-4.48l4.45-17.76c1.47-5.93,2.94-11.85,4.41-17.78,2-8.1,3.55-16.23,5.52-24.3.91-3.67,1.45-7.38,2.47-11.08.93-3.4,1.99-6.9,1.92-10.36-1.63,2.64-2.25,6.31-2.86,9.42Z"/>
      <path d="M3773.49,2364.06s-.06.09-.06.09v.02s.06-.11.06-.11Z"/>
    </g>
    <g>
      <polygon points="4064.29 2830.54 4064.27 2830.53 4064.24 2830.61 4064.29 2830.54"/>
      <path d="M4058.41,2897.39c-.37-.34-.7-1.05-1.32-.87-2.9.86-5.8-.11-8.7,0-3.79.16-7.59.09-11.42.12-1.92.01-3.83.03-5.74.04-1.91,0-3.8.1-5.69.14-3.04.08-6.08.23-9.12.37l-4.56.2c-.75.02-1.55.06-2.25.07-.62,0-1.23-.21-1.72-.57-.62-.44-1.06-1.11-1.21-1.84-.14-.64-.04-1.72-.06-2.64l.02-5.68-.06-11.36c-.08-7.58-.25-15.15-.43-22.72-.2-8.65-.53-17.29-.38-25.96.04-1.8.07-3.61.11-5.41.05-1.8.06-3.59-.02-5.37-.27-5.79.14-11.56.36-17.32.25-5.86.09-11.72.4-17.57.1-1.7,1.51-3.19,3.19-3.36.4-.05.86-.01,1.34,0l1.4.04,2.79.07c3.72.09,7.45.19,11.15.45,10.18.77,20.42,1.31,30.59,1.26h3.71c.99-.04,1.83.39,2.43,1.1.29.36.49.77.59,1.21.05.22.07.44.08.68v4.64c0,4.95,0,9.9.14,14.85.15,6.21.43,12.56-.05,18.74-.08,2.04-.02,4.17-.31,6.33-.08.58-1.04,3.29.6,3.52.5-1,.48-2.19.58-3.35.16-1.84.34-3.67.38-5.52l.08-5.54c.05-1.85-.05-3.69-.06-5.53-.02-1.84-.02-3.69.03-5.54.13-5.08.39-10.22.26-15.23-.05-1.91-.07-3.83-.09-5.74v-1.44c0-.48-.05-1.05-.22-1.55-.32-1.02-1.01-1.91-1.91-2.48-.45-.29-.95-.49-1.47-.61-.54-.12-1.07-.09-1.52-.1h-2.87c-1.92-.02-3.83,0-5.75.04-6.59.16-13.25-.31-19.84-.74-5.25-.37-10.52-.57-15.78-.7l-3.95-.09c-.68,0-1.27-.04-2.02-.03-.8.02-1.59.25-2.27.66-1.38.79-2.29,2.31-2.34,3.88l-.07,3.97c-.14,6.76-.39,13.53-.61,20.29-.24,6.75-.4,13.56-.15,20.31.21,6.36.11,12.75.14,19.11.04,12.31.82,24.58.71,36.89l-.06,9.67v2.42c0,.4-.03.8.02,1.24.05.43.17.86.35,1.26.36.79.98,1.48,1.75,1.91.75.45,1.7.6,2.53.55l19.34-.59c2.13-.06,4.27-.12,6.4-.18,2.13-.09,4.27-.05,6.39.11,4.41.34,8.88.06,13.24.77.89.14,1.78.08,2.47-.36.42-.27.89-.53.47-.92Z"/>
      <path d="M4062.99,2837.48c-.24,8.96-.93,17.89-1.19,26.89-.13,5.44.21,10.87-.04,16.32-.11,2.29-.1,4.6-.09,6.91v3.46s-.02,1.73-.02,1.73c-.02.55-.01,1.23-.08,1.6-.17.86-.62,1.35-.96,1.67-.35.32-.63.5-.83.74-.44.43-.49,1.11-1.24,2.44,1.9-.05,3.6-1.17,4.47-2.8.35-.63.56-1.33.63-2.04.04-.38.04-.65.06-.92l.04-.83c.06-1.1.12-2.2.09-3.3-.25-8.6-.77-17.2-.73-25.79.03-2.94.11-5.83.1-8.75.09-2.92.23-5.84.45-8.76.21-2.65.09-5.31.44-7.98.33-2.46.81-5.01.17-7.43-1.16,1.98-1.18,4.61-1.25,6.85Z"/>
      <path d="M4064.29,2830.54s-.05.07-.05.07v.02s.05-.08.05-.08Z"/>
    </g>
    <g>
      <polygon points="4428.22 2640.87 4428.21 2640.89 4428.33 2640.91 4428.22 2640.87"/>
      <path d="M4527.79,2618.2c.33-.55,1.04-1.07.85-1.98-.9-4.27.03-8.61-.12-12.91-.1-2.81-.16-5.63-.2-8.45-.06-2.82,0-5.65-.11-8.5-.09-2.84-.36-5.69-.62-8.49-.24-2.81-.48-5.61-.73-8.41-.38-4.5-.83-8.99-1.27-13.49-.2-2.25-.48-4.5-.59-6.72-.11-2.24-.15-4.47-.03-6.71l.67-16.85.28-8.43c.04-1.41.1-2.81.11-4.22l-.08-4.27c-.04-1.42-.03-2.85-.12-4.26l-.29-4.21-.61-8.41-1.29-16.83c-.09-.95-.48-1.92-1.2-2.61-.71-.7-1.7-1.09-2.66-1.09-.47-.02-.98.08-1.38.19l-1.16.31-2.33.62-9.31,2.46c-6.21,1.63-12.43,3.21-18.69,4.68-2.6.58-5.23,1.07-7.83,1.63-2.62.52-5.24,1.02-7.81,1.64-8.37,1.99-16.81,3.47-25.22,5.04-8.56,1.6-17.01,3.57-25.59,5.12-2.71.49-5.43,1.01-8.14,1.56l-4.06.82-2.03.42c-.67.11-1.45.35-2.05.79-1.23.86-1.99,2.34-1.92,3.83.17,1.45.46,2.75.67,4.13.46,2.72.91,5.44,1.31,8.17,1.08,7.49,2.15,14.99,3.23,22.48,1.04,7.5,2.12,14.99,3.39,22.44,2.48,14.48,4.25,29.05,6.68,43.56,1.53,9.12,3.09,18.34,4.35,27.58.21,1.53.5,3.05.79,4.59.14.77.27,1.55.41,2.33.06.39.12.79.18,1.18l.08.6c.03.2.07.48.13.71.06.26.18.78.49,1.36.31.57.83,1.18,1.47,1.57.64.4,1.37.57,1.91.49.55-.07.88-.36.9-.78-.79-.19-1.53-.47-2.18-.95-.64-.46-1.18-1.13-1.41-1.9-.17-.6-.22-1.31-.34-1.98l-.31-2.03-.65-4.05-1.36-8.1c-.92-5.4-1.84-10.79-2.55-16.23-.98-7.47-1.81-15.06-3.02-22.4-1.8-11.22-3.34-22.49-5.38-33.68-1.74-9.62-2.86-19.46-4.31-29.18-.56-3.87-1.17-7.73-1.82-11.59l-.98-5.78-.25-1.44-.13-.72c-.03-.19-.05-.37-.05-.56,0-.74.28-1.49.78-2.07.51-.59,1.14-.95,1.99-1.09l2.87-.59,5.74-1.19c3.83-.78,7.65-1.57,11.47-2.35,9.84-1.98,19.71-3.85,29.57-5.76l14.78-2.9,7.38-1.5c2.46-.54,4.91-1.15,7.36-1.74,9.14-2.41,18.36-4.63,27.52-6.91l3.32-.84,1.66-.42.83-.21c.26-.07.49-.11.74-.12.97-.06,1.95.4,2.45,1.24.26.41.41.89.45,1.4l.13,1.7,1.11,13.64,1.07,13.64c.2,4.55.32,9.11.07,13.68l-.56,14.34-.26,7.17c-.07,2.39-.22,4.79-.16,7.2.02,2.4.2,4.82.43,7.19l.62,7.15,1.25,14.3c.25,3.17.71,6.32.9,9.47.23,3.16.17,6.32.05,9.47-.27,6.56.07,13.18-.57,19.67-.13,1.32-.05,2.65.4,3.66.27.61.55,1.3.93.66Z"/>
      <path d="M4438.62,2639.85c6.51-1.35,13.03-2.7,19.56-3.87,6.53-1.18,13.12-2.1,19.71-2.99,4-.53,7.99-1.18,11.97-1.82l5.98-1.12c2.01-.34,3.98-.75,5.97-1.13,6.69-1.26,13.37-2.99,20.06-4.27.42-.08.81-.15,1.18-.22.18-.04.36-.07.53-.1.21-.05.42-.09.61-.16.77-.26,1.35-.63,1.81-.99.91-.75,1.31-1.5,1.49-2.09.17-.61.09-1.09-.18-1.52-.25-.42-.72-.82-1.37-1.11.1,1.4-.93,3.18-2.49,3.74-.25.09-.69.18-1.1.27l-1.21.25c-.81.15-1.62.3-2.42.45-1.61.3-3.21.59-4.8.97l-9.3,2.29c-3.1.75-6.2,1.62-9.29,2.22l-4.65.97c-1.56.3-3.14.54-4.71.81-3.15.52-6.3,1.02-9.45,1.48-4.32.64-8.6,1.37-12.88,2.12-4.27.79-8.54,1.57-12.82,2.36-3.89.68-7.69,1.68-11.66,2.23-3.65.49-7.44.91-10.8,2.29,3.22.51,7-.38,10.26-1.05Z"/>
      <path d="M4428.22,2640.87s.11.04.11.04h.03s-.13-.04-.13-.04Z"/>
    </g>
    <g>
      <polygon points="4154.51 1705.93 4154.5 1705.91 4154.41 1705.93 4154.51 1705.93"/>
      <path d="M4145.68,1786.58c.44.34.85,1.05,1.6.86,3.47-.87,6.98.09,10.47-.03,4.56-.16,9.14-.17,13.72-.11,2.29.05,4.6-.03,6.89-.02,2.3.02,4.58-.06,6.85-.12,7.32-.19,14.62-.65,21.94-.77,4.54.05,9.02.1,13.59.4l13.65.64c4.55.19,9.09.41,13.7.36,1.15,0,2.3.02,3.44-.01l3.41-.12,6.83-.24,15.6-.6c.65-.04,1.27,0,2.03-.14.72-.14,1.39-.48,1.95-.93,1.14-.9,1.76-2.43,1.65-3.82-.05-2.6-.09-5.21-.09-7.81,0-4.32.09-8.7-.21-12.97-.48-6.95-.45-13.91-.53-20.84-.09-7.06-.57-14.07-.61-21.14l-.04-3.35c-.02-.57,0-1.09-.05-1.7-.05-.61-.23-1.21-.52-1.75-.57-1.08-1.56-1.92-2.73-2.3-.57-.2-1.22-.23-1.76-.24l-1.68-.06c-4.48-.17-8.95-.34-13.4-.68-12.24-.89-24.45-2.22-36.69-2.78-2.97-.16-5.96-.27-8.95-.39-2.99-.15-5.96-.2-8.94-.29-5.95-.16-11.9-.31-17.86-.32-7.48-.02-15.07-.13-22.61-.49-2.49-.12-5.02.1-7.64-.13-.37-.03-1.31-.26-2.34-.26-1.24,0-2.16.75-1.84,1.49.66-.07,1.3-.14,1.95-.11.68.04,1.39.04,2.08.07,8.87.39,17.74.13,26.62.57,6.1.31,12.27.71,18.3.74,4.6.03,9.22.1,13.8.33,4.59.15,9.19.51,13.8.63,7.92.25,15.89,1.18,23.84,1.81,6.32.49,12.65.8,18.98,1.04l2.37.09.59.02c.2.01.32.02.48.04.31.04.6.15.89.27,1.15.53,2.01,1.74,2.04,3.01l.33,9.49c.51,16.27.51,32.54,1.19,48.8l.19,5.74.07,2.87c0,.48.04.97-.01,1.37-.05.42-.18.82-.37,1.19-.39.74-1.06,1.34-1.84,1.64-.39.15-.8.23-1.23.24l-1.44.02c-1.92.04-3.83.07-5.74.11-7.4.14-14.79.54-22.17.73l-5.54.03c-1.85,0-3.7-.1-5.54-.16-3.7-.13-7.39-.29-11.09-.51-3.87-.22-7.74-.47-11.62-.64-3.89-.05-7.79-.16-11.66.01l-23.26.66c-2.56,0-5.13.1-7.7.16-2.58,0-5.15-.02-7.7-.18-5.31-.32-10.68-.03-15.93-.72-1.07-.14-2.14-.07-2.97.37-.5.27-1.06.54-.55.92Z"/>
      <path d="M4150.44,1713.19c-.64,5.35-1.32,10.7-2.09,16.03-.74,5.34-1.66,10.64-2.48,15.98-.55,3.24-.89,6.49-1.25,9.74-.37,3.25-.75,6.5-1.28,9.73-.9,5.44-1.35,11.02-2.23,16.47-.05.36-.11.61-.15,1.01-.05.38-.03.74,0,1.08.08.68.31,1.24.57,1.69.54.9,1.21,1.3,1.73,1.45,1.06.26,1.74-.34,2.25-1.64-1.09.1-2.27-.59-2.47-1.85-.05-.24-.03-.48-.01-.73l.14-.99c.11-.66.22-1.31.33-1.97.22-1.31.44-2.61.58-3.92l1.46-15.46c.5-5.15.96-10.31,1.74-15.4,1.02-6.99,1.77-13.97,2.85-20.93.5-3.16.68-6.34,1.33-9.53.3-1.46.64-2.95.86-4.43.21-1.34.95-2.56,2.06-3.58-1.37.09-2.86,1.26-3.31,2.98-.12.46-.15.75-.22,1.12-.05.36-.11.71-.16,1.06-.09.71-.17,1.41-.25,2.07Z"/>
      <path d="M4154.5,1705.93h-.09s-.02.02-.02.02l.11-.02Z"/>
    </g>
    <g>
      <polygon points="5028.24 1452.87 5028.22 1452.86 5028.15 1452.94 5028.24 1452.87"/>
      <path d="M4980.77,1528.47c-.37-.46-.59-1.28-1.42-1.33-3.87-.27-7.26-2.3-10.93-3.29-9.59-2.59-19.18-5.76-28.53-8.91-1.55-.58-2.78-2.26-2.95-3.92-.03-.22-.02-.4-.01-.64l.04-.75.07-1.5.14-2.99c.19-3.99.38-7.97.66-11.96l.5-7.44.24-3.72c.07-1.24.15-2.48.29-3.7.26-2.45.43-4.89.76-7.35l.97-7.39,1.86-14.79.89-7.4.8-7.43c1.12-11.3,1.99-22.62,3.5-33.88.37-2.32.74-4.65,1.11-6.98.42-2.33.79-4.66,1.07-6.98.91-7.54,2.31-15.03,3.63-22.42.18-.82.69-1.55,1.41-1.91.72-.38,1.59-.38,2.4-.08l5.44,1.91c3.63,1.27,7.25,2.54,10.85,3.92,4.54,1.77,9.19,3.32,13.74,5.07,4.58,1.67,9.1,3.57,13.56,5.5,6.13,2.68,12.23,5.44,18.39,8.09,6.18,2.65,12.4,5.08,18.67,7.4,3.05,1.12,6.08,2.27,9.11,3.44l2.27.88,1.14.44.57.22c.19.08.29.12.43.19,1.03.54,1.57,1.78,1.27,2.88-.12.46-.58,1.32-.9,2.02l-1.04,2.2-2.06,4.41c-1.37,2.94-2.72,5.9-4.04,8.87-.83,1.86-1.67,3.73-2.51,5.61-.84,1.88-1.68,3.76-2.62,5.56-.93,1.82-1.82,3.65-2.81,5.46l-3.07,5.37c-1.37,2.35-2.46,4.9-3.99,7.32-.41.65-2.84,3.46-1.47,4.39,1.03-.97,1.7-2.4,2.45-3.71,2.42-4.19,4.7-8.46,6.98-12.73,1.11-2.15,2.15-4.34,3.25-6.5,1.11-2.15,2.07-4.38,3.17-6.54,2.96-5.97,6.07-11.96,8.76-17.96l.77-1.72.39-.86c.14-.32.26-.65.32-1,.29-1.39-.21-2.91-1.27-3.85-.5-.48-1.21-.81-1.78-1l-1.76-.67-3.52-1.35c-4.69-1.8-9.39-3.59-14.13-5.27-8.18-2.82-16.09-6.53-24.05-10.04-6.34-2.77-12.69-5.44-19.18-7.91l-4.87-1.82-4.89-1.72-9.76-3.45-6.26-2.26-3.13-1.14-1.56-.57c-.48-.18-1.13-.43-1.8-.47-1.33-.12-2.75.57-3.48,1.72-.37.55-.58,1.24-.67,1.82l-.28,1.64-1.11,6.56-2.18,13.14c-.7,4.38-1.43,8.76-1.89,13.2-.92,8.31-1.85,16.64-2.77,24.94-1.65,16.06-3.31,32.08-5.57,48.08-1.07,8.41-1.39,16.87-1.94,25.32l-.75,12.67c-.02.53-.09,1.04-.05,1.65.04.58.19,1.15.4,1.69.43,1.07,1.16,2.01,2.09,2.7.46.34,1.02.62,1.55.79l1.51.5,3.01,1c5.33,1.77,10.8,3.2,16.04,5.12,5.45,1.99,11.14,3.42,16.42,5.75,1.07.47,2.22.75,3.21.59.6-.1,1.26-.18.84-.71Z"/>
      <path d="M5023.07,1460.53c-5.39,10.46-10.91,20.83-16.83,30.99-1.78,3.1-3.52,6.2-5.25,9.31-1.76,3.1-3.55,6.19-5.46,9.21-3.22,5.08-6.1,10.47-9.31,15.57-.43.7-.68,1.06-1.03,1.37-.34.3-.68.51-.99.67-.62.32-1.09.46-1.46.65-.37.18-.64.4-.96.73-.33.33-.69.77-1.36,1.26,1.18.32,2.37.24,3.43-.1,1.06-.33,2.04-.92,2.86-1.74.32-.32.6-.69.84-1.08l.58-.95c.39-.62.78-1.23,1.17-1.84.78-1.22,1.56-2.43,2.26-3.69,5.47-9.87,10.81-19.83,16.32-29.68,3.78-6.73,7.13-13.61,10.89-20.33,1.7-3.05,3.12-6.22,4.97-9.24,1.71-2.77,3.62-5.57,4.41-8.7-2.21,1.87-3.73,4.96-5.08,7.57Z"/>
      <path d="M5028.23,1452.88s-.08.06-.08.06v.02s.08-.08.08-.08Z"/>
    </g>
  </g>
  <g id="Yellow">
    <g>
      <polygon points="1924.53 2356.73 1924.51 2356.73 1924.48 2356.79 1924.53 2356.73"/>
      <path d="M1913.98,2414.08c-.33-.32-.64-1.03-1.17-.82-2.49.96-5.05.09-7.57.29-3.29.27-6.61.4-9.92.46-3.31,0-6.61-.04-9.89-.17-5.29-.23-10.59-.18-15.88-.47-.4-.03-.85-.04-1.21-.07-.33-.02-.65-.11-.94-.24-.6-.25-1.09-.71-1.41-1.25-.32-.57-.45-1.17-.39-1.85l.18-2.47c.23-3.29.43-6.58.62-9.87.39-6.58.58-13.19,1.11-19.7.67-7.49,1.34-15,2.42-22.46.23-1.55.46-3.11.69-4.66.18-1.57.31-3.13.35-4.69.09-2.53.21-5.04.38-7.55.2-2.51.41-5.01.61-7.51.21-2.55.32-5.09.44-7.64l.19-3.82.12-1.91c.04-.62.16-1.18.46-1.69,1.56-2.97,5.45-1.56,8.56-1.69,3.24.14,6.48.29,9.69.6,4.41.47,8.86.83,13.32,1.12,4.44.21,8.88.36,13.31.34,2.16-.01,4.31,0,6.46.04.6,0,.96,0,1.32.12.36.1.7.29.97.54.55.49.83,1.24.78,2.01l-.73,6.35c-.24,2.14-.45,4.29-.64,6.43-.45,5.4-.98,10.86-1.73,16.28-.25,1.79-.17,3.64-.51,5.51-.09.5-1.09,2.83.54,3.09.52-.85.51-1.89.64-2.89.83-6.37,1.02-12.8,1.98-19.16.65-4.37,1.44-8.78,1.82-13.13.07-.85.17-1.62.22-2.53.02-.93-.27-1.88-.86-2.62-.58-.75-1.44-1.25-2.35-1.44-.46-.1-.93-.09-1.33-.1l-1.25-.02c-3.33-.05-6.67-.09-10,0-2.87.07-5.75-.01-8.63-.16-2.88-.2-5.75-.47-8.61-.7-4.57-.45-9.14-.72-13.72-.92l-3.43-.14-1.72-.07c-.52-.03-1.29-.06-1.94.12-1.35.33-2.49,1.26-3.12,2.47-.32.6-.5,1.27-.54,1.95l-.09,1.71c-.34,5.88-.79,11.75-1.21,17.62-.22,2.93-.37,5.89-.66,8.79-.25,2.92-.46,5.84-.75,8.78-.49,5.52-1.28,11.03-1.95,16.52-.68,5.3-1.04,10.69-1.24,16.03-.17,5.35-.38,10.69-.8,16.04l-.32,4.2-.16,2.1c-.05.68-.15,1.44.06,2.18.36,1.47,1.61,2.67,3.11,3,.77.16,1.45.11,2.16.16l2.1.08c5.61.21,11.21.46,16.83.61,1.87.04,3.74-.02,5.61-.05,1.87-.04,3.73-.1,5.57,0,3.85.19,7.73-.24,11.54.32.77.11,1.55.02,2.14-.44.36-.28.75-.56.38-.93Z"/>
      <path d="M1923.11,2362.73c-.43,7.79-1.03,15.57-2.19,23.28-.72,4.68-.96,9.41-1.8,14.09-.35,1.97-.6,3.96-.84,5.96l-.37,2.99-.21,1.47c-.06.38-.21.76-.42,1.09-.43.67-.92,1.03-1.28,1.28-.37.25-.63.41-.82.62-.41.4-.42,1.06-1.03,2.43,1.65-.13,2.99-.97,4.03-2.08.8-.88,1.41-1.97,1.62-3.18.18-.94.35-1.88.44-2.84.68-7.46,1.1-14.95,2.05-22.37.31-2.55.5-5.09.7-7.63.18-2.54.34-5.08.62-7.62.25-2.3.18-4.62.58-6.94.37-2.13.9-4.33.29-6.47-1.2,1.68-1.26,3.97-1.37,5.92Z"/>
      <polygon points="1924.52 2356.74 1924.48 2356.79 1924.48 2356.81 1924.52 2356.74"/>
    </g>
    <g>
      <polygon points="1444.16 2437.72 1444.14 2437.72 1444.13 2437.79 1444.16 2437.72"/>
      <path d="M1450.73,2493.39c-.39-.22-.88-.81-1.32-.47-2.03,1.59-4.65,1.45-6.92,2.33-5.94,2.3-12.11,4.09-18.2,5.88-4.89,1.45-9.7,3.17-14.6,4.56l-4.58,1.32c-1.21.38-2.49-.1-3.09-1.12-.15-.25-.27-.52-.33-.82-.07-.3-.15-.76-.23-1.13l-.47-2.33-.96-4.66-2.01-9.31-1.04-4.65c-.36-1.55-.79-3.09-1.19-4.64-.88-3.55-1.97-7-2.97-10.48-1.01-3.48-1.97-6.98-2.83-10.51-.35-1.47-.7-2.94-1.05-4.41-.34-1.47-.69-2.93-1.14-4.34-.37-1.15-.7-2.32-1.02-3.49-.29-1.18-.54-2.36-.79-3.55-.49-2.37-.94-4.75-1.4-7.12-.47-2.41-1.04-4.8-1.61-7.19l-.83-3.59c-.12-.59-.3-1.23-.34-1.76-.04-.56.06-1.13.28-1.65.28-.65.74-1.22,1.31-1.64.29-.2.6-.37.93-.49.32-.1.71-.19,1.09-.28l4.55-1.13c3.03-.76,6.06-1.51,9.11-2.1l6.31-1.19c2.13-.4,4.22-.91,6.31-1.48,4.16-1.22,8.18-2.58,12.19-4.05,1.95-.72,3.9-1.42,5.86-2.1l2.94-1.01.74-.25.37-.13.28-.08c.36-.09.72-.1,1.06-.03.68.14,1.24.6,1.53,1.23.08.16.14.33.18.51.04.14.1.48.14.71l.3,1.53c.4,2.04.82,4.07,1.28,6.09,1.14,5.09,2.26,10.26,3.11,15.46.28,1.72.89,3.39,1.09,5.21.05.49-.25,2.92,1.39,2.69.26-.93-.04-1.89-.2-2.85-1.02-6.11-2.72-12.06-3.68-18.19-.32-2.11-.64-4.22-.96-6.34-.17-1.05-.34-2.11-.53-3.15-.1-.53-.18-1.02-.31-1.58-.14-.58-.41-1.14-.8-1.6-.59-.71-1.45-1.19-2.35-1.32-.89-.17-1.87.13-2.57.4l-4.55,1.58c-3.03,1.05-6.06,2.12-9.05,3.3-2.57,1-5.21,1.92-7.87,2.66-2.69.74-5.37,1.28-8.11,1.77-4.34.83-8.64,1.84-12.92,2.91l-3.21.81-1.6.41c-.53.15-1.05.23-1.71.5-1.23.51-2.2,1.54-2.67,2.76-.24.61-.35,1.26-.32,1.92.01.32.07.66.13.95l.18.81c1.24,5.53,2.36,11.09,3.52,16.65.58,2.78,1.14,5.55,1.86,8.32l1.05,4.14c.37,1.37.79,2.72,1.2,4.08,1.56,5.11,2.83,10.31,4.21,15.46,2.67,9.93,5.16,19.94,7.09,30.07l.37,1.99c.13.65.2,1.35.53,2,.6,1.3,2.04,2.18,3.5,2.1.36,0,.72-.08,1.07-.17l.97-.29,1.94-.58,3.88-1.16,15.53-4.68c3.43-1.03,6.79-2.38,10.26-3.2,3.61-.86,7.07-2.32,10.76-2.82.75-.1,1.44-.4,1.85-1,.25-.36.54-.74.09-1Z"/>
      <path d="M1444.5,2443.65c1.78,7.3,3.38,14.64,4.54,22.06.71,4.51,1.88,8.92,2.47,13.46.25,1.91.61,3.81.97,5.71l.53,2.85c.07.45.19,1.01.22,1.37.03.37,0,.76-.11,1.12-.22.73-.59,1.18-.85,1.51-.28.32-.48.54-.59.79-.26.49-.09,1.12-.27,2.59,1.49-.56,2.52-1.71,3.19-3.02.51-1.03.82-2.19.69-3.39-.11-1.01-.22-1.86-.42-2.78-1.56-7.04-3.4-14.03-4.69-21.12-.88-4.85-2.2-9.57-3.09-14.4-.41-2.19-1.13-4.31-1.4-6.56-.25-2.07-.36-4.24-1.54-6.04-.67,1.89-.09,4.02.36,5.84Z"/>
      <polygon points="1444.16 2437.73 1444.13 2437.79 1444.14 2437.81 1444.16 2437.73"/>
    </g>
    <g>
      <polygon points="2132.43 2747.09 2132.42 2747.11 2132.5 2747.13 2132.43 2747.09"/>
      <path d="M2195.44,2746.89c.38-.29,1.13-.5,1.02-1.09-.5-2.77.82-5.3,1.06-7.98.32-3.49.8-6.98,1.31-10.47.39-3.51,1-7.02,1.33-10.49.62-5.59.98-11.21,1.67-16.79.05-.46.12-.81.14-1.38,0-.53-.07-1.06-.24-1.57-.33-1.02-1.05-1.9-1.97-2.46-.46-.28-.97-.48-1.5-.58-.25-.06-.56-.08-.78-.1l-.66-.04-2.62-.16c-3.5-.2-6.99-.38-10.49-.54-7-.32-14-.56-21-.75-8-.21-15.99-.33-23.98-.92-3.32-.24-6.66-.59-9.96-.55-5.36.08-10.69-.35-16.01-.67-5.43-.32-10.78-.29-16.28-.61-1.89.07-3.64,1.49-4.08,3.36-.13.47-.13.94-.16,1.35l-.08,1.29-.14,2.58c-.19,3.44-.4,6.88-.76,10.29-.26,2.34-.5,4.69-.8,7.03l-.9,7c-.67,4.67-1.28,9.35-1.71,14.04-.21,2.28-.45,4.55-.7,6.83l-.05.44c0,.18-.03.36-.02.55,0,.37.04.74.14,1.1.18.73.54,1.42,1.06,1.98.52.56,1.18.97,1.9,1.21.36.12.73.19,1.09.22l.54.02h.43c4.57-.07,9.15-.13,13.73-.34,5.75-.26,11.58-.49,17.38-.44,1.92.02,3.85-.31,5.87-.19.54.03,3.12.74,3.19-.92-.96-.41-2.06-.28-3.13-.28-6.82-.02-13.62.64-20.46.54-4.7-.07-9.45-.25-14.08-.06l-2.65.09c-.86.06-1.6-.09-2.25-.54-.63-.44-1.05-1.15-1.17-1.91-.07-.39-.05-.74,0-1.2l.15-1.32c.39-3.52.77-7.04,1.03-10.57.22-3.04.61-6.08,1.05-9.11.38-3.05.85-6.1,1.19-9.15.53-4.84.87-9.7,1.15-14.56l.2-3.65.05-.91c.01-.31.03-.61.06-.83.07-.47.25-.93.52-1.34.54-.82,1.47-1.37,2.45-1.46.12-.01.25,0,.37-.01h.45s.91.04.91.04l1.82.06c12.5.46,24.98,1.38,37.49,1.66,5.89.12,11.78.55,17.65.83,11.37.55,22.73.43,34.09,1.19l4.46.29,2.23.14c.73.06,1.52.05,2.18.2,1.36.32,2.43,1.51,2.6,2.87.06.34.04.67,0,1.03l-.12,1.11-.24,2.22-1.93,17.78c-.54,3.89-.7,7.88-1.59,11.72-.87,4-1.14,8.13-2.38,12.03-.25.79-.3,1.62.05,2.32.21.42.42.89.85.55Z"/>
      <path d="M2138.9,2747.77c2.05-.08,4.12-.09,6.16-.02,2.06.09,4.14.21,6.2.34,4.13.27,8.26.61,12.38,1.06,5,.55,10.03.61,15.03,1.28,2.1.28,4.23.45,6.36.62l3.19.26,1.59.16.4.04.48.03c.33,0,.65-.02.97-.08,1.29-.23,2.14-.8,2.69-1.3.55-.52.8-1.01.88-1.42.12-.81-.4-1.41-1.64-2-.04.85-.49,1.82-1.38,2.35-.34.21-.72.33-1.1.37-.39.04-.69,0-1.25-.09-1.01-.14-2.01-.28-3.03-.34-7.94-.41-15.91-.54-23.83-1.23-5.42-.47-10.82-.5-16.22-.95-2.46-.23-4.92-.02-7.41-.22-2.3-.17-4.69-.38-6.86.47,1.92.99,4.37.74,6.39.65Z"/>
      <path d="M2132.43,2747.09s.07.04.07.04h.02s-.08-.04-.08-.04Z"/>
    </g>
    <g>
      <polygon points="2079.51 2178.15 2079.51 2178.17 2079.58 2178.19 2079.51 2178.15"/>
      <path d="M2079.15,2116.66c-.37-.31-.74-1-1.32-.77-2.7,1.07-5.55.31-8.32.63-7.22.82-14.57,1.15-21.8,1.32-5.81.16-11.65.46-17.48.48-7.25-.01-14.54.22-21.74.21-7.25-.04-14.52-.09-21.77-.04l-6.22.04h-1.55c-.53,0-1.18.07-1.73.29-1.13.41-2.05,1.31-2.48,2.41-.22.55-.32,1.14-.3,1.72l.09,1.57.17,3.11c.11,2.07.19,4.14.25,6.22.1,3.45.09,6.93.47,10.33.6,5.52.4,11.03.07,16.56-.28,5.62-.15,11.22-.48,16.84-.09.94.16,1.98.76,2.77.58.8,1.48,1.37,2.46,1.55.48.1,1,.08,1.43.05l1.34-.08,2.67-.16c3.56-.21,7.13-.41,10.68-.45,4.89-.03,9.78-.06,14.67-.1,2.44.01,4.87,0,7.3-.03,2.44,0,4.88-.03,7.32-.1,4.74-.14,9.49-.16,14.23-.18,2.37-.02,4.74-.02,7.12-.07,2.38-.08,4.77-.17,7.15-.3,5.96-.41,11.98-.82,18-.94,1.99-.04,3.98-.42,6.08-.36.56.02,3.25.65,3.28-1.01-1.01-.38-2.14-.22-3.25-.19-7.07.17-14.1,1.03-21.18,1.13-2.43.05-4.88,0-7.32,0-2.43.01-4.86,0-7.27.07-7.34.25-14.67.1-22.02.45-3.15.12-6.33.21-9.52.18-3.18,0-6.37.01-9.54.02-5.05.04-10.09.27-15.13.56l-3.78.23c-.6.03-1.33.11-1.76.07-.49-.04-.97-.19-1.36-.47-.82-.55-1.3-1.51-1.24-2.59l.09-3.78c.16-6.48.47-12.96.7-19.44l-.03-4.9c0-1.64-.02-3.27-.14-4.88-.18-3.24-.4-6.47-.65-9.7-.24-3.04-.41-6.09-.55-9.15l-.1-2.29c-.01-.4-.04-.72.01-1.05.05-.32.13-.65.28-.94.57-1.21,1.85-1.93,3.25-1.81,5.9.09,11.79,0,17.68-.05l8.84-.03c2.95.02,5.89-.05,8.85,0,6.18-.01,12.36-.12,18.54-.22,6.18-.09,12.36-.21,18.55-.41,4.1-.15,8.2-.67,12.28-.65,4.24.02,8.49-.58,12.71-.19.86.08,1.71-.05,2.34-.54.38-.29.81-.6.38-.95Z"/>
      <path d="M2085.51,2174.92c.06-.32.09-.64.09-.97,0-.31-.02-.55-.02-.83l-.05-1.61-.09-3.22c-.05-2.15-.09-4.29-.1-6.44-.02-2.15-.01-4.29.01-6.44.04-2.15.08-4.29.07-6.45.1-5.25-.56-10.42-.53-15.65,0-2.2-.1-4.41-.21-6.62l-.15-3.31-.05-1.65v-.83c-.03-.34-.07-.68-.14-1.01-.31-1.35-1.03-2.19-1.63-2.69-.62-.5-1.19-.68-1.62-.69-.86.02-1.35.65-1.69,1.98.86-.14,1.91.14,2.53.98.24.32.39.69.45,1.07.04.21.03.34.03.62v.79c-.02,1.06-.03,2.11.05,3.16l1.04,12.33.48,6.16c.09,2.05.15,4.1.18,6.15.03,5.62.31,11.22.27,16.83-.04,2.54.29,5.11.06,7.64-.21,1.11-.92,2.05-1.79,2.67-.44.31-.92.56-1.43.74-.51.18-1.12.31-1.67.55.25.12.51.21.78.29.26.08.54.14.88.17.65.03,1.34-.14,1.95-.47,1.23-.67,2.07-1.96,2.3-3.24Z"/>
      <path d="M2079.51,2178.15s.07.04.07.04h.02s-.08-.04-.08-.04Z"/>
    </g>
    <g>
      <polygon points="2483.94 2202.66 2483.92 2202.65 2483.89 2202.72 2483.94 2202.66"/>
      <path d="M2476.13,2262.83c-.34-.33-.65-1.04-1.21-.84-2.61.92-5.26.02-7.88.19-6.86.45-13.81.33-20.67.29-5.51,0-11.02.27-16.53.2l-5.13-.05c-1.34-.02-2.57-1.01-2.85-2.29-.04-.16-.06-.32-.08-.48,0-.16-.01-.32,0-.55l.02-1.29.03-2.57.04-5.15v-10.29c-.02-3.43-.05-6.86-.02-10.28.04-7.82.13-15.67.59-23.5.11-1.63.21-3.26.32-4.89.07-1.63.06-3.28-.02-4.89-.08-1.32-.1-2.63-.14-3.94-.05-1.31-.08-2.62-.09-3.93,0-2.62,0-5.23-.01-7.84,0-2.66-.1-5.31-.2-7.96l-.13-3.98-.03-1.99c-.02-.63.12-1.22.4-1.76.35-.68.92-1.23,1.6-1.57.7-.37,1.4-.41,2.28-.4l5.06-.09c3.37-.07,6.75-.12,10.11-.01l6.93.25c2.31.07,4.6.26,6.9.37,4.59.24,9.22.61,13.82.7,2.24.06,4.48.14,6.72.24l3.36.16,1.65.09c.4.03.8.15,1.15.35.72.39,1.28,1.08,1.48,1.86.11.42.11.7.1,1.34l-.02,1.68c-.03,2.24-.04,4.48-.01,6.73.05,5.64.12,11.36-.19,17.03-.15,1.86.04,3.75-.21,5.7-.04.52-.99,2.95.63,3.2.51-.89.49-1.98.55-3.03.59-6.69.04-13.37.4-20.06.12-2.3.25-4.61.37-6.91.05-1.15.09-2.3.14-3.45,0-.59.05-1.1.02-1.76-.04-.64-.23-1.27-.55-1.83-.48-.85-1.21-1.54-2.08-1.96-.44-.21-.9-.35-1.38-.42-.5-.06-.9-.05-1.34-.07l-5.2-.23c-3.47-.15-6.93-.3-10.41-.32-5.96-.06-12.01-.67-18.01-.86-4.77-.17-9.54-.14-14.31-.06l-3.58.07-1.79.04-.89.02c-.31,0-.71.04-1.05.11-1.41.31-2.64,1.28-3.25,2.56-.31.64-.47,1.35-.47,2.05l.04,1.81c.15,6.13.19,12.26.26,18.38.02,3.06.11,6.13.06,9.18v4.57s-.06,4.59-.06,4.59c-.05,5.77-.39,11.55-.62,17.3-.45,11.16.27,22.29-.06,33.43l-.06,2.19c0,.74-.09,1.44,0,2.22.2,1.53,1.35,2.89,2.86,3.35.38.11.76.18,1.15.19h1.1s2.19,0,2.19,0h4.38c5.84,0,11.69-.09,17.52-.04,3.87,0,7.77-.29,11.61-.05,4,.24,8.04-.13,12.01.48.8.12,1.62.04,2.23-.41.37-.27.79-.55.41-.93Z"/>
      <path d="M2482.61,2208.92c-.16,4.06-.36,8.11-.65,12.16l-.47,6.07c-.14,2.03-.31,4.06-.5,6.08-.41,4.92-.27,9.85-.78,14.77-.21,2.07-.3,4.16-.39,6.25l-.15,3.13-.1,1.56-.03.39-.04.3c-.04.2-.1.39-.18.57-.33.73-.8,1.13-1.14,1.4-.36.27-.62.44-.81.65-.41.41-.44,1.08-1.09,2.43,1.72-.1,3.19-1.02,4.16-2.33.38-.51.69-1.08.9-1.68.22-.58.29-1.32.33-1.75.11-.99.21-1.98.23-2.98.15-7.79-.05-15.61.43-23.37.34-5.29.42-10.59.9-15.87.22-2.4.11-4.81.48-7.23.34-2.22.83-4.52.2-6.73-1.17,1.78-1.2,4.16-1.28,6.19Z"/>
      <polygon points="2483.94 2202.66 2483.89 2202.72 2483.89 2202.74 2483.94 2202.66"/>
    </g>
    <g>
      <polygon points="2107.54 1500.67 2107.56 1500.67 2107.58 1500.6 2107.54 1500.67"/>
      <path d="M2101.88,1444.18c-.32-.32-.64-1.01-1.15-.8-2.38,1.01-4.86.2-7.28.46-6.32.68-12.75.82-19.09.97-5.1.13-10.18.54-15.28.6l-2.38.04h-.59c-.23.03-.48.03-.71.08-.48.07-.94.23-1.37.45-.86.43-1.6,1.11-2.09,1.94-.51.81-.75,1.87-.71,2.76,0,3.17.02,6.35.07,9.52l.19,9.52.13,4.76.06,4.74c.08,3.61.03,7.24.01,10.86-.04,3.62-.12,7.25-.32,10.87-.17,3.01-.46,6.04-.21,9.05.28,4.87.33,9.7.37,14.53.03,2.46.16,4.91.28,7.36l.17,3.68.05,1.84.02.93c.02.33.05.67.14,1,.21.83.71,1.6,1.41,2.12.69.53,1.56.8,2.43.8,1.65-.14,3.12-.39,4.69-.58,3.09-.41,6.19-.81,9.29-1.04,4.26-.31,8.53-.62,12.79-.93,2.08-.13,4.21-.16,6.3-.14,2.06.05,4.25.16,6.36.17,2.07.03,4.15.08,6.22.15l1.55.06c.46.02,1.17.06,1.82-.09,1.31-.27,2.49-1.11,3.18-2.26.35-.57.58-1.22.67-1.88.09-.73.04-1.19.05-1.71v-3.11c-.03-2.07-.07-4.15-.14-6.22-.19-5.22-.31-10.49-.2-15.76.03-1.74-.27-3.5-.14-5.33.04-.49.75-2.83-.9-2.89-.42.87-.28,1.87-.29,2.84-.08,6.18.49,12.35.29,18.54-.14,4.25-.39,8.56-.27,12.76.12,1.45-.75,2.86-2.09,3.37-.33.13-.68.2-1.03.23-.33.02-.77-.01-1.16-.02l-2.4-.08c-3.21-.11-6.41-.21-9.63-.18-2.78.02-5.55.08-8.36.24-2.77.19-5.56.38-8.33.57-4.4.32-8.79.83-13.16,1.4l-3.28.44-1.61.21c-.43.04-.86,0-1.27-.14-.81-.27-1.46-.96-1.72-1.8-.07-.21-.11-.43-.13-.65-.03-.21-.03-.53-.04-.8l-.07-1.65c-.37-11.34-.62-22.66-.59-33.96-.02-5.33.26-10.68.42-16.01.32-10.34-.62-20.61-.49-30.92l.03-4.05c-.1-1.34.39-2.61,1.37-3.44.48-.41,1.06-.7,1.67-.84.59-.13,1.28-.09,1.96-.12l4.05-.11,16.2-.48c3.58-.1,7.17-.54,10.74-.44,3.71.1,7.43-.41,11.11.06.75.1,1.49-.02,2.05-.49.34-.29.71-.58.34-.94Z"/>
      <path d="M2108.23,1494.78c-.51-7.5-.78-14.99-.73-22.51.02-4.56-.44-9.1-.3-13.67.06-1.92,0-3.86-.05-5.79l-.07-2.9-.02-1.46c0-.59-.13-1.18-.34-1.74-.44-1.12-1.11-1.8-1.67-2.2-.58-.4-1.07-.53-1.46-.51-.76.06-1.2.7-1.5,2.03.76-.12,1.65.07,2.28.73.48.52.66,1.21.62,1.88-.04.92-.07,1.84-.02,2.76.43,7.2,1.14,14.39,1.28,21.58.08,4.92.57,9.79.61,14.7.02,2.23.37,4.43.25,6.7-.11,2.08-.38,4.24.48,6.21.99-1.75.78-3.94.66-5.81Z"/>
      <polygon points="2107.54 1500.66 2107.58 1500.6 2107.57 1500.59 2107.54 1500.66"/>
    </g>
    <g>
      <polygon points="1802.5 1380.75 1802.48 1380.75 1802.45 1380.8 1802.5 1380.75"/>
      <path d="M1789.02,1431.96c-.25-.37-.42-1.11-.93-.98-2.4.59-4.58-.63-6.89-.78-3.02-.2-6.03-.54-9.04-.95-3.01-.41-6-.89-8.94-1.45-4.75-.83-9.55-1.57-14.29-2.56-2.95-.63-5.9-1.23-8.86-1.81l-2.22-.43c-.41-.08-.67-.12-.93-.23-.26-.1-.52-.23-.74-.41-.92-.69-1.4-1.88-1.19-3.01,1.01-5.95,1.94-11.91,2.82-17.87,1.03-6.81,1.84-13.66,3.3-20.39.58-2.8,1.32-5.6,1.65-8.42.54-4.59,1.58-9.07,2.53-13.56.96-4.57,1.53-9.2,2.54-13.76.26-1.34,1.25-2.46,2.53-2.89.65-.21,1.3-.25,2.01-.12l2.2.34c2.93.46,5.86.92,8.75,1.55,3.96.88,7.95,1.73,11.89,2.67,1.96.49,3.91.96,5.87,1.41,1.96.48,3.93.99,5.91,1.43,3.85.86,7.66,1.84,11.48,2.82l2.86.73,1.43.36c.39.1.69.22,1,.42.6.39,1.1,1,1.34,1.69.13.34.19.7.2,1.06,0,.2-.01.32-.04.57l-.1.73c-.66,4.91-1.36,9.88-2.34,14.79-.32,1.62-.31,3.32-.74,5-.12.45-1.22,2.51.39,2.86.56-.74.6-1.7.77-2.6,1.11-5.77,1.54-11.64,2.72-17.41.21-.99.42-1.98.63-2.98.27-1.01.19-2.21-.3-3.19-.47-1-1.3-1.85-2.34-2.31-.25-.12-.54-.2-.79-.27l-.73-.18-1.46-.34c-5.96-1.3-11.82-2.99-17.81-4.19-2.58-.51-5.16-1.05-7.73-1.72-2.57-.65-5.16-1.2-7.73-1.79-4.1-.9-8.23-1.61-12.37-2.27l-3.13-.48c-1.27-.17-2.58.2-3.58.96-1,.74-1.7,1.91-1.89,3.11l-.55,3.09c-1.92,10.6-4.34,21.1-5.99,31.76-.76,5.02-1.74,10.01-2.6,15-.83,4.83-1.5,9.68-2.19,14.52-.35,2.42-.7,4.84-1.09,7.26l-.29,1.81c-.1.6-.22,1.22-.14,1.84.14,1.24.86,2.41,1.93,3.08.55.37,1.22.56,1.84.66l1.89.38,3.78.76,7.56,1.49,7.56,1.47,7.6,1.35c3.36.56,6.8.73,10.11,1.44,3.45.73,7.02.85,10.38,1.95.68.22,1.4.24,2-.13.36-.23.77-.45.49-.87Z"/>
      <path d="M1800.81,1386.13c-.37,3.56-.9,7.07-1.45,10.59-.6,3.51-1.29,7.01-2.08,10.49-.96,4.23-1.44,8.54-2.52,12.75-.45,1.77-.8,3.58-1.14,5.38l-.53,2.71c-.09.43-.19.95-.29,1.24-.12.34-.3.64-.53.91-.46.54-.95.77-1.3.94-.36.16-.61.26-.81.44-.41.32-.53.96-1.29,2.22,1.51.12,2.9-.44,4.01-1.34.88-.7,1.57-1.61,1.95-2.69l.12-.41.09-.32.16-.64c.1-.43.19-.85.26-1.29,1.07-6.77,1.86-13.59,3.2-20.3.9-4.6,1.42-9.21,2.24-13.82.39-2.09.45-4.21.95-6.3.47-1.92,1.1-3.9.59-5.89-1.27,1.46-1.44,3.54-1.64,5.32Z"/>
      <polygon points="1802.5 1380.75 1802.45 1380.8 1802.45 1380.82 1802.5 1380.75"/>
    </g>
    <g>
      <polygon points="1945.77 1172.88 1945.75 1172.87 1945.73 1172.94 1945.77 1172.88"/>
      <path d="M1999.73,1167.11c.29-.36.96-.74.7-1.24-1.21-2.35-.62-4.97-1.09-7.42-1.22-6.43-1.96-13.01-2.52-19.48-.48-5.21-1.1-10.43-1.44-15.66-.42-6.52-.91-13.02-1.56-19.54-.65-6.51-1.41-12.99-2.2-19.47l-.7-5.55-.36-2.8c-.17-1.05-.73-2.03-1.53-2.71-.79-.68-1.82-1.1-2.87-1.1-.54,0-.99.07-1.45.11l-1.39.14c-1.86.18-3.72.35-5.58.48-3.09.22-6.23.35-9.26.86-4.93.83-9.91,1.15-14.86,1.55-2.52.21-5.03.52-7.53.82l-3.76.43c-.64.08-1.23.11-1.91.21-.68.12-1.32.41-1.88.82-.71.52-1.24,1.26-1.52,2.1-.13.42-.21.86-.22,1.3,0,.46.06.84.1,1.24l.52,4.79c.35,3.19.7,6.38.88,9.58.49,8.78.78,17.61,1.79,26.33.97,8.48,1.5,17,2.5,25.47.63,5.33,1.2,10.74,1.52,16.14.1,1.79.55,3.56.56,5.45,0,.51-.54,2.95,1.11,2.91.35-.92.15-1.94.09-2.93-.4-6.35-1.48-12.63-1.8-19-.23-4.37-.35-8.81-.87-13.11-.79-6.56-1.19-13.15-2.08-19.7-.77-5.63-.88-11.39-1.19-17.09-.24-4.54-.68-9.06-1.17-13.57l-.38-3.38-.19-1.69c-.06-.56-.16-1.17-.14-1.57.03-.9.46-1.8,1.19-2.37.36-.29.78-.51,1.22-.62.4-.11,1.03-.15,1.58-.21,11.6-1.26,23.24-2.05,34.81-3.56,2.72-.35,5.46-.63,8.19-.89.72-.08,1.28-.13,1.87.04.58.15,1.11.46,1.55.87.43.41.75.94.92,1.51.16.53.17,1.25.26,1.93,1.05,10.56,2.82,21.01,3.59,31.6l1.24,16.63.66,8.31.76,8.32c.38,3.67,1.12,7.32,1.33,10.98.22,3.81,1.05,7.58.9,11.4-.03.77.15,1.53.67,2.06.32.32.64.68.97.27Z"/>
      <path d="M1948.29,1178.6c.56.18,1.15.26,1.73.24.31-.02.55-.05.78-.08l.72-.09,2.88-.35c1.92-.23,3.84-.44,5.76-.63,1.92-.19,3.84-.36,5.77-.51l2.89-.21c.96-.06,1.93-.2,2.9-.28,1.18-.12,2.35-.26,3.52-.42,1.17-.15,2.34-.32,3.48-.56,2.3-.44,4.61-.87,6.94-1.14,1.97-.23,3.92-.58,5.88-.93l2.94-.51,1.47-.23c.6-.09,1.18-.3,1.71-.59,1.07-.59,1.67-1.33,2.01-1.94.34-.62.44-1.13.38-1.52-.13-.77-.79-1.16-2.14-1.36.19.77.06,1.74-.56,2.47-.49.57-1.16.85-1.88.91-.95.1-1.88.21-2.81.4l-10.87,2.38c-1.81.38-3.63.82-5.44,1.12-1.82.28-3.64.54-5.46.76l-1.87.24-1.89.19-3.76.44c-2.5.3-5.01.6-7.53.8-1.14.09-2.28.26-3.41.41-.57.08-1.14.15-1.71.2-.58.07-1.12.07-1.64-.11-.96-.32-1.72-1.05-2.19-1.87-.24-.41-.43-.86-.57-1.33-.14-.5-.31-1.02-.57-1.51-.21.47-.35.95-.43,1.46-.08.57.02,1.22.27,1.8.5,1.18,1.6,2.05,2.72,2.39Z"/>
      <polygon points="1945.76 1172.88 1945.73 1172.94 1945.73 1172.96 1945.76 1172.88"/>
    </g>
    <g>
      <polygon points="1476.15 2789.58 1476.15 2789.56 1476.09 2789.52 1476.15 2789.58"/>
      <path d="M1458.05,2840.44c.23.41.34,1.17.93,1.13,2.73-.2,5.01,1.38,7.55,1.9,6.65,1.37,13.22,3.35,19.72,5.25,5.24,1.55,10.55,2.72,15.77,4.26,6.5,1.92,13.06,3.67,19.58,5.46,6.52,1.76,13.07,3.59,19.62,5.3l11.25,2.93c1.06.28,2.24.11,3.17-.47.94-.57,1.61-1.54,1.85-2.59.38-1.94.73-3.82,1.14-5.72.67-3.15,1.44-6.31,1.82-9.48.57-5.17,1.82-10.17,3.1-15.16,1.36-5.07,2.32-10.22,3.72-15.28.22-.81.44-1.58.64-2.43.2-.9.07-1.86-.31-2.69-.38-.83-1.02-1.54-1.82-1.99-.39-.24-.84-.38-1.26-.48l-1.21-.3c-3.24-.79-6.47-1.59-9.65-2.55-4.37-1.33-8.74-2.65-13.11-3.98-4.4-1.25-8.86-2.43-13.32-3.29-8.68-1.75-17.29-3.87-25.95-5.63-5.44-1.08-10.95-2.4-16.36-3.88-1.79-.5-3.68-.67-5.54-1.28-.5-.17-2.73-1.49-3.22.08.79.64,1.86.78,2.85,1.05,6.37,1.73,12.89,2.81,19.26,4.59,2.19.6,4.4,1.2,6.6,1.81,2.21.57,4.42,1.09,6.62,1.52,6.73,1.31,13.37,2.98,20.12,4.2,2.88.59,5.76,1.29,8.6,2.13,2.84.87,5.68,1.75,8.51,2.62,4.51,1.37,9.08,2.55,13.65,3.68l1.72.42c.56.13.91.27,1.31.54.76.52,1.27,1.41,1.36,2.34.05.49-.03.87-.18,1.49l-.4,1.72-.82,3.43-2.2,8.81-1.13,4.4c-.37,1.47-.68,2.97-1.01,4.45-.32,1.49-.68,2.97-.97,4.46l-.82,4.46c-.53,2.98-1.04,5.96-1.51,8.95-.22,1.41-.46,2.81-.7,4.22l-.38,2.1c-.1.68-.32,1.23-.72,1.72-.78.97-2.14,1.33-3.34.95l-4.1-1.19c-10.6-2.99-21.31-5.48-31.89-8.53l-16.66-4.68-8.34-2.3-8.31-2.38c-3.67-1.09-7.46-1.83-11.06-3.07-3.74-1.29-7.69-2-11.3-3.64-.73-.33-1.53-.47-2.24-.19-.43.17-.9.32-.64.79Z"/>
      <path d="M1469.88,2787.58c-1.2.21-2.29.87-3.02,1.8-.37.46-.65,1-.82,1.56-.17.57-.24,1-.36,1.51-.45,1.95-.91,3.9-1.39,5.85-.96,3.89-2,7.76-3.14,11.6-1.39,4.67-2.31,9.45-3.82,14.09-.63,1.95-1.16,3.95-1.69,5.95l-.8,2.99-.42,1.49c-.07.22-.15.53-.22.85-.05.31-.08.63-.08.95.02,1.28.45,2.2.88,2.8.44.6.89.91,1.28,1.02.78.21,1.42-.25,2.13-1.42-.81-.13-1.67-.65-2.05-1.55-.15-.34-.21-.72-.19-1.08.02-.39.1-.62.28-1.15.31-.94.62-1.87.85-2.83,1.75-7.5,3.24-15.07,5.26-22.48,1.38-5.08,2.33-10.22,3.69-15.28.16-.58.29-1.15.42-1.73.14-.58.21-1.18.43-1.68.42-1.03,1.39-1.87,2.52-2.07.51-.09,1.04-.06,1.54.06.49.13,1.06.32,1.6.44,1.09.26,2.19.4,3.32.25-.77-.71-1.74-1.17-2.76-1.5-.51-.16-1.03-.29-1.55-.41-.62-.14-1.29-.15-1.89-.04Z"/>
      <polygon points="1476.14 2789.58 1476.09 2789.52 1476.08 2789.52 1476.14 2789.58"/>
    </g>
  </g>
</svg>